<svg width="179" height="33" viewBox="0 0 179 33" fill="none" xmlns="http://www.w3.org/2000/svg">
<path d="M66.1433 26.6283V9.82291C66.1433 9.65231 66.0035 9.51248 65.8329 9.51248H60.5387C60.3961 9.51248 60.273 9.60757 60.2367 9.7446L56.422 24.5727C56.2821 25.1181 55.5074 25.1181 55.3676 24.5727L51.5277 9.7446C51.4914 9.60757 51.3683 9.51248 51.2257 9.51248H45.9315C45.7609 9.51248 45.6211 9.65231 45.6211 9.82291V26.6283C45.6211 26.7989 45.7609 26.9388 45.9315 26.9388H48.2668C48.4374 26.9388 48.5772 26.7989 48.5772 26.6283V14.0683C48.5772 13.4307 49.4861 13.3104 49.6483 13.9285L53.01 26.7038C53.0463 26.8409 53.1694 26.936 53.312 26.936H58.4496C58.5922 26.936 58.7153 26.8409 58.7516 26.7038L62.1133 13.9285C62.2755 13.3104 63.1844 13.4279 63.1844 14.0683V26.6255C63.1844 26.7961 63.3242 26.936 63.4948 26.936H65.8301C66.0007 26.936 66.1405 26.7961 66.1405 26.6255L66.1433 26.6283ZM73.549 27.2128C77.3777 27.2128 79.7857 24.5755 79.7857 20.7468C79.7857 16.9182 77.3777 14.3032 73.549 14.3032C69.7203 14.3032 67.3347 16.9405 67.3347 20.7468C67.3347 24.5532 69.7427 27.2128 73.549 27.2128ZM73.549 25.1964C71.4403 25.1964 70.2461 23.4764 70.2461 20.7468C70.2461 18.0173 71.4375 16.3225 73.549 16.3225C75.6605 16.3225 76.8519 18.0424 76.8519 20.7468C76.8519 23.4513 75.6829 25.1964 73.549 25.1964ZM89.3532 14.801L85.7958 26.5948L82.1489 14.5801H79.7045C79.4948 14.5801 79.3466 14.7843 79.4081 14.9828L83.0438 26.7206C83.083 26.8521 83.2032 26.9388 83.3403 26.9388H88.2485C88.3855 26.9388 88.5058 26.8493 88.5449 26.7206L92.1807 14.9828C92.2422 14.7815 92.0939 14.5801 91.8842 14.5801H89.6468C89.5098 14.5801 89.3895 14.6696 89.3504 14.801H89.3532ZM103.935 20.6769C103.935 16.8259 101.55 14.3032 97.9055 14.3032C94.2614 14.3032 91.8283 16.9629 91.8283 20.7468C91.8283 24.5308 94.1216 27.2128 97.9055 27.2128C100.794 27.2128 102.881 25.9291 103.661 23.2918H100.75C100.313 24.4832 99.5108 25.1964 97.9307 25.1964C96.1883 25.1964 94.9718 23.9798 94.7424 21.597H103.868C103.913 21.2754 103.938 20.9538 103.938 20.6797L103.935 20.6769ZM97.9055 16.3225C99.6702 16.3225 100.864 17.6285 101.001 19.6002H94.7648C95.0641 17.3768 96.2331 16.3225 97.9055 16.3225ZM121.655 26.9388H124.113C124.326 26.9388 124.477 26.729 124.407 26.5248L118.593 9.71943C118.548 9.59358 118.431 9.50968 118.299 9.50968H113.078C112.946 9.50968 112.826 9.59358 112.784 9.71943L106.97 26.5248C106.9 26.7262 107.051 26.9388 107.263 26.9388H109.722C109.856 26.9388 109.973 26.8521 110.015 26.7262L111.618 21.9382H119.759L121.361 26.7262C121.403 26.8521 121.524 26.9388 121.655 26.9388ZM115.181 11.4058C115.349 10.9108 116.048 10.9136 116.213 11.4058L118.909 19.4156H112.465L115.181 11.4058ZM133.334 14.8905V16.0903C133.334 16.4008 132.934 16.5154 132.761 16.2553C132.017 15.145 130.781 14.3032 129.092 14.3032C126.088 14.3032 123.909 16.8035 123.909 20.5623C123.909 24.321 126.066 26.8465 129.092 26.8465C130.577 26.8465 131.936 26.1305 132.778 25.0034C132.954 24.7657 133.334 24.8972 133.334 25.1936V26.9136C133.334 28.793 132.003 29.6879 130.331 29.6879C128.943 29.6879 127.783 29.0531 127.444 27.8225C127.408 27.6911 127.285 27.6016 127.148 27.6016H124.871C124.676 27.6016 124.527 27.7834 124.564 27.9735C125.062 30.4738 127.509 31.7043 130.331 31.7043C133.152 31.7043 136.178 30.3507 136.178 26.8437V14.8905C136.178 14.7199 136.039 14.5801 135.868 14.5801H133.647C133.477 14.5801 133.337 14.7199 133.337 14.8905H133.334ZM130.124 24.83C128.015 24.83 126.843 23.2471 126.843 20.5651C126.843 17.883 128.012 16.3225 130.124 16.3225C132.235 16.3225 133.449 17.9054 133.449 20.5651C133.449 23.2247 132.257 24.83 130.124 24.83ZM149.239 21.3146C149.261 21.0908 149.273 20.8727 149.273 20.6769C149.273 16.8259 146.887 14.3032 143.243 14.3032C139.599 14.3032 137.166 16.9629 137.166 20.7468C137.166 24.5308 139.459 27.2128 143.243 27.2128C145.975 27.2128 147.989 26.0662 148.859 23.7114C148.934 23.5072 148.783 23.2918 148.565 23.2918H146.294C146.168 23.2918 146.059 23.3702 146.009 23.4848C145.559 24.5588 144.759 25.1936 143.265 25.1936C141.612 25.1936 140.435 24.1001 140.122 21.955C140.094 21.7648 140.239 21.5942 140.429 21.5942H148.929C149.088 21.5942 149.222 21.474 149.239 21.3146ZM140.161 19.2282C140.536 17.2594 141.666 16.3225 143.243 16.3225C144.901 16.3225 146.054 17.4747 146.302 19.245C146.328 19.4324 146.182 19.6002 145.992 19.6002H140.469C140.273 19.6002 140.125 19.4212 140.161 19.2282ZM157.047 14.3032C155.453 14.3032 154.374 15.0192 153.689 16.0148C153.518 16.2637 153.126 16.1351 153.126 15.833V14.8905C153.126 14.7199 152.987 14.5801 152.816 14.5801H150.595C150.425 14.5801 150.285 14.7199 150.285 14.8905V26.6283C150.285 26.7989 150.425 26.9388 150.595 26.9388H152.838C153.009 26.9388 153.149 26.7989 153.149 26.6283V19.7624C153.149 17.3992 154.158 16.3448 155.764 16.3448C157.369 16.3448 158.379 17.3768 158.379 19.7149V26.6283C158.379 26.7989 158.519 26.9388 158.689 26.9388H160.935C161.105 26.9388 161.245 26.7989 161.245 26.6283V19.1667C161.245 16.4147 159.892 14.306 157.05 14.306L157.047 14.3032ZM167.714 24.8049H166.718C165.664 24.8049 165.043 24.4609 165.043 23.2695V16.9993C165.043 16.8287 165.183 16.6888 165.354 16.6888H167.667C167.837 16.6888 167.977 16.549 167.977 16.3784V14.8905C167.977 14.7199 167.837 14.5801 167.667 14.5801H165.354C165.183 14.5801 165.043 14.4403 165.043 14.2697V11.9568C165.043 11.7862 164.903 11.6464 164.733 11.6464H162.487C162.316 11.6464 162.177 11.7862 162.177 11.9568V23.4093C162.177 25.8173 163.941 26.9415 166.235 26.9415H167.711C167.882 26.9415 168.022 26.8017 168.022 26.6311V25.1209C168.022 24.9503 167.882 24.8105 167.711 24.8105L167.714 24.8049ZM167.98 23.6498C168.503 26.013 170.648 27.2128 173.391 27.2128C176.554 27.2128 178.873 25.7921 178.873 23.3366C178.873 21.3649 177.749 20.2183 175.159 19.6673L173.21 19.2534C171.719 18.9318 170.964 18.6353 170.964 17.7851C170.964 16.8454 172.088 16.3169 173.327 16.3169C174.356 16.3169 175.307 16.7587 175.687 17.567C175.738 17.6733 175.847 17.7376 175.964 17.7376H178.235C178.448 17.7376 178.599 17.5306 178.532 17.3293C177.849 15.3073 175.757 14.2976 173.305 14.2976C170.486 14.2976 168.192 15.7435 168.192 18.0117C168.192 19.8911 169.568 20.923 171.817 21.4041L173.766 21.8404C175.556 22.2067 176.129 22.6654 176.129 23.6051C176.129 24.5448 175.212 25.188 173.47 25.188C172.359 25.188 171.232 24.7965 170.863 23.4848C170.827 23.3534 170.704 23.2611 170.567 23.2611H168.296C168.097 23.2611 167.949 23.4485 167.991 23.6414L167.98 23.6498Z" fill="#1E1B30"/>
<path d="M30.4312 0.520931C29.0049 0.670436 27.8239 1.79471 27.6116 3.21202C27.492 4.00738 27.6654 4.78481 28.084 5.43067V6.67754C28.084 6.84498 27.8687 6.91375 27.773 6.77322C27.0434 5.69978 25.7726 4.39609 23.6826 3.80705C23.4314 3.73827 23.1832 3.68146 22.947 3.63362L22.8244 3.61269C20.6715 3.23295 18.8057 3.70837 17.529 4.2436C16.3837 3.67249 15.086 3.38245 13.6568 3.37647C10.9537 3.37647 8.69621 4.41404 6.92309 6.46823C6.81544 6.59083 6.61511 6.51906 6.61511 6.3576V5.42768C7.02774 4.7878 7.20117 4.01635 7.09053 3.22398C6.89319 1.81265 5.72107 0.685386 4.29778 0.523921C2.36917 0.305644 0.7306 1.81564 0.7306 3.70239C0.7306 4.32433 0.907016 4.91936 1.23892 5.43366V9.32975C1.23892 10.173 1.4841 10.9803 1.92365 11.671C1.76218 12.2451 1.75919 12.8491 1.91767 13.4232C0.814323 15.0707 -0.106627 17.3432 0.00998712 20.2586C0.177432 24.4716 2.91337 27.8713 7.56596 29.7013C8.25966 30.6461 9.56035 31.6777 11.9853 32.1232C13.6867 32.4342 15.5944 32.5 16.8951 32.5C17.813 32.5 22.5045 32.4492 24.6723 31.4714C25.5095 31.0917 26.1883 30.5325 26.6517 29.8538C30.9365 28.26 32.5213 25.6945 32.9638 23.7151C33.5648 21.018 32.9459 19.4991 32.0758 17.696C32.312 17.397 32.4824 17.0621 32.6469 16.7213C33.1612 15.6717 33.3256 13.9494 33.1731 13.0853C33.0894 12.6129 32.9848 12.1375 32.7695 11.6889C33.215 10.9982 33.4632 10.1819 33.4632 9.32676V5.43067C33.7951 4.91936 33.9715 4.32134 33.9715 3.6994C33.9715 1.82162 32.3449 0.317605 30.4282 0.517941L30.4312 0.520931Z" fill="#FFD935"/>
<path d="M30.7786 2.89494C30.3331 2.89494 29.9713 3.25674 29.9713 3.70226C29.9713 3.91755 30.055 4.11788 30.2105 4.27337C30.2883 4.35111 30.381 4.41091 30.4796 4.44979V9.32962C30.4796 9.88877 30.1477 10.3911 29.6304 10.6064L29.5049 10.6602C29.2985 10.5017 29.0324 10.3732 28.7155 10.2715C28.5331 9.97548 27.953 9.32962 26.2666 8.96184C26.0274 8.40867 25.1453 6.70432 23.0552 6.11527C22.8698 6.06444 22.6815 6.01959 22.4961 5.9837H22.4722C20.0053 5.52323 18.008 6.61461 17.401 6.99436C17.1558 6.79701 16.8956 6.61461 16.6205 6.46511C15.7714 6.00763 14.7786 5.7744 13.6693 5.77141H13.6633C10.7929 5.77141 8.98385 7.31729 7.70109 9.50305L6.76519 9.05752C6.54393 8.95287 6.29575 8.94091 6.06551 9.02463C5.83528 9.10536 5.64989 9.2758 5.54524 9.49408L5.03094 10.5855C4.54355 10.3582 4.22959 9.87382 4.22959 9.32962V4.44979C4.32827 4.41091 4.42096 4.35111 4.50169 4.27038C4.65419 4.11788 4.73791 3.91755 4.73791 3.70226C4.73791 3.25674 4.37312 2.89494 3.92759 2.89494C3.48207 2.89494 3.12326 3.25674 3.12326 3.70226C3.12326 3.92054 3.20698 4.12386 3.36247 4.27636C3.44021 4.35111 3.5329 4.41091 3.63158 4.44979V9.32962C3.63158 10.1041 4.08009 10.7978 4.77678 11.1237L4.28342 12.1642C4.17876 12.3855 4.16381 12.6337 4.24753 12.8639C4.33126 13.0971 4.4987 13.2795 4.711 13.3812L4.91134 13.4829C3.63157 14.8523 2.27706 17.053 2.40265 20.1627C2.58803 24.8512 6.74426 26.9263 9.20212 27.7486H9.2081C9.37854 28.23 10.0244 29.3274 12.4195 29.7699C13.7082 30.0061 15.3019 30.1078 16.8986 30.1078C19.7572 30.1078 22.6127 29.7789 23.6921 29.2915C24.6131 28.8759 24.8583 28.2599 24.924 27.925C25.1034 27.8682 25.2829 27.8114 25.4623 27.7456C26.1649 27.4885 26.9693 27.1596 27.639 26.6662C28.6706 25.9037 29.0085 25.5449 29.4869 24.8422C30.055 24.5432 30.4198 24.0947 30.5155 23.5774C30.5693 23.2904 30.5305 23.0003 30.4109 22.7581C30.7039 22.4711 30.8624 22.0256 30.8444 21.5172C30.8235 21.0059 30.6262 20.5634 30.3271 20.3392L30.3062 20.1777C30.1717 19.185 29.7142 17.8783 28.847 17.1368C29.6783 16.7989 30.2135 16.3504 30.4467 15.7912C30.665 15.2739 30.5544 14.8135 30.4617 14.5653C30.7308 14.1796 30.8474 13.7699 30.7996 13.3423C30.7278 12.6755 30.2763 12.1702 30.0491 11.9519C30.082 11.7665 30.0909 11.4825 29.9444 11.1775C29.9354 11.1596 29.9265 11.1476 29.9175 11.1297C30.6232 10.8097 31.0777 10.11 31.0777 9.32962V4.44979C31.1763 4.41091 31.266 4.35111 31.3468 4.27636C31.4993 4.12386 31.586 3.92054 31.586 3.70226C31.586 3.25674 31.2242 2.89494 30.7786 2.89494ZM28.4225 10.8067C28.9278 10.9473 29.2657 11.1596 29.4002 11.4287C29.4451 11.5124 29.46 11.5961 29.466 11.6679C29.0892 11.5722 28.4135 11.4436 27.4716 11.4317C27.1935 11.4317 26.9035 11.4317 26.6105 11.4526C24.347 11.5901 22.52 12.4004 21.8502 12.7353H21.8472C21.91 12.5081 21.9848 12.0596 21.7665 11.5692C23.0762 10.9114 25.3397 10.4001 27.6929 10.6722C27.965 10.7021 28.2102 10.7469 28.4225 10.8067ZM22.3825 6.57275L22.4124 6.57873C22.5768 6.60863 22.7323 6.64452 22.8908 6.68937C24.3978 7.11396 25.1872 8.19039 25.537 8.83327C25.4413 8.8213 25.3486 8.80635 25.244 8.79439C23.13 8.55519 21.4615 8.90802 20.6512 9.14423L20.4688 9.19806C20.2655 9.26384 20.1548 9.3057 20.1548 9.3057L20.3731 9.86485C20.3731 9.86485 20.4748 9.82299 20.6482 9.76916L20.8216 9.71534C21.5841 9.49408 23.1659 9.15918 25.1752 9.38942C25.4832 9.4253 25.7493 9.46716 25.9885 9.51501C26.748 9.66451 27.2563 9.87083 27.5942 10.0622C25.1423 9.81402 22.7891 10.3702 21.4346 11.0669C21.2911 10.9084 21.1177 10.7619 20.9143 10.6303C20.5854 10.421 20.1638 10.2775 19.6645 10.1997C19.5359 10.0383 19.3983 9.88877 19.2488 9.75421C19.189 9.53295 19.0007 8.94091 18.5581 8.26814C18.3548 7.95717 18.1246 7.67012 17.8704 7.40998C18.5521 7.01529 20.3043 6.17806 22.3825 6.57275ZM18.31 12.1852C18.2352 12.1852 18.1634 12.1852 18.0917 12.1941C17.0182 12.3048 16.178 13.2108 16.178 14.3141C16.178 15.1424 16.6504 15.857 17.3382 16.2098C15.0448 16.2786 12.9188 14.9689 12.0367 14.335C12.7633 13.8955 14.0521 13.148 15.0806 12.7383C16.0076 12.3705 17.075 12.1224 18.0797 12.0416C19.1711 11.9489 20.116 12.0536 20.6123 12.3167C20.9054 12.4752 21.1266 12.6725 21.2642 12.9088V12.9147C21.3299 13.0104 21.3748 13.1151 21.4107 13.2347C21.4974 13.5247 21.5034 13.8686 21.4286 14.2573C21.3927 14.4457 21.312 14.634 21.1894 14.8105C21.1446 14.8733 21.0937 14.939 21.0399 14.9988C20.7678 15.3008 20.3731 15.552 19.8798 15.7494C20.2266 15.3696 20.4389 14.8703 20.4389 14.3141C20.4389 13.136 19.4851 12.1852 18.31 12.1852ZM19.7033 13.9493C19.7033 14.1138 19.5748 14.2423 19.4133 14.2423C19.2518 14.2423 19.1233 14.1138 19.1233 13.9493C19.1233 13.7849 19.2548 13.6593 19.4133 13.6593C19.5718 13.6593 19.7033 13.7879 19.7033 13.9493ZM19.0395 14.7507C19.0395 15.0287 18.8123 15.259 18.5312 15.259C18.2501 15.259 18.0259 15.0287 18.0259 14.7507C18.0259 14.4726 18.2531 14.2423 18.5312 14.2423C18.8093 14.2423 19.0395 14.4696 19.0395 14.7507ZM4.80967 12.6636C4.78276 12.5828 4.78575 12.4991 4.82462 12.4214L6.08644 9.74823C6.12232 9.67348 6.18811 9.61667 6.26585 9.58677C6.30173 9.57481 6.33761 9.56883 6.37349 9.56883C6.42133 9.56883 6.46619 9.5778 6.50805 9.59873L7.40807 10.0263C6.86387 11.0549 6.41834 12.1971 6.01767 13.3752L4.97413 12.843C4.89638 12.8071 4.83957 12.7443 4.80967 12.6636ZM23.4469 28.7473C21.8562 29.4619 15.9418 29.8088 12.5271 29.1809C11.0829 28.9147 10.3802 28.4004 10.0453 28.0028C10.2905 28.0685 10.5327 28.1283 10.7659 28.1792C12.0218 28.4483 14.8086 28.8549 17.9063 28.8549C19.9904 28.8549 22.215 28.6666 24.2094 28.1343C24.0898 28.3287 23.8655 28.5559 23.4469 28.7473ZM30.2464 21.5382C30.2584 21.8521 30.1657 22.2409 29.8816 22.4173C28.5869 22.815 25.3456 22.8 23.0104 22.7522C17.7388 22.6445 12.9218 20.3003 12.874 20.2764L12.6108 20.8116C12.6587 20.8355 17.5893 23.2425 22.9984 23.3502C23.7699 23.3651 24.4755 23.3741 25.1184 23.3741C27.4836 23.3741 28.9995 23.2665 29.8786 23.0392C29.9384 23.1648 29.9564 23.3143 29.9295 23.4698C29.8637 23.8166 29.5886 24.1276 29.155 24.3399C29.1221 24.3549 29.0863 24.3728 29.0444 24.3877C29.0175 24.3997 28.9876 24.4117 28.9397 24.4266C28.871 24.4535 28.7902 24.4745 28.7095 24.4984C27.5045 24.8333 25.1483 24.923 21.7067 24.7645C15.9478 24.5014 13.0324 22.6146 12.0666 21.9927C12.0308 21.9688 11.9979 21.9478 11.956 21.9209L11.8155 21.8312C11.2324 21.4604 10.8527 20.7966 10.8706 20.1777C10.8885 19.6514 11.1816 19.2179 11.7198 18.9248C12.4912 18.5062 13.9534 19.0385 15.6488 19.6514C17.0422 20.1568 18.6239 20.7309 20.3163 20.988C25.3456 21.7535 28.868 21.1016 29.9893 20.8385C30.1148 20.9491 30.2345 21.2033 30.2464 21.5382ZM29.8966 15.561C29.6633 16.1141 28.9278 16.5627 27.7646 16.8557C27.2324 16.9902 26.5028 17.0441 25.5968 17.0112L25.5759 17.6092C25.7523 17.6152 25.9197 17.6182 26.0812 17.6182C26.8168 17.6182 27.4297 17.5584 27.9111 17.4358C27.9949 17.4148 28.0696 17.3909 28.1474 17.37C29.152 17.9381 29.6065 19.4511 29.7142 20.2554V20.2853C28.4882 20.5604 25.1363 21.1166 20.406 20.396C18.7704 20.1478 17.2216 19.5856 15.8521 19.0893C13.9474 18.3986 12.4404 17.8514 11.4327 18.4016C10.7091 18.7963 10.2965 19.4182 10.2726 20.1597C10.2457 20.997 10.7271 21.8491 11.4985 22.3365L11.6331 22.4232C11.6719 22.4502 11.7108 22.4771 11.7497 22.498C12.7394 23.1379 15.7564 25.0904 21.6798 25.3625C22.8011 25.4133 23.8028 25.4403 24.6908 25.4403C26.3503 25.4403 27.6032 25.3476 28.4793 25.1682C28.2042 25.4672 27.8663 25.7542 27.2832 26.1848C26.6762 26.6333 25.9496 26.9293 25.2559 27.1835C25.0197 27.2702 24.7775 27.3509 24.5353 27.4227C19.6316 28.9118 13.0235 28.0506 10.8885 27.5931C10.4699 27.5034 10.0124 27.3808 9.56392 27.2373C9.5101 27.2194 9.45329 27.2014 9.39349 27.1805C7.07915 26.409 3.1711 24.4685 3.00066 20.1388C2.87807 17.1368 4.23856 15.0377 5.46749 13.7639L6.36751 14.2214L6.47515 13.8925C8.2423 8.54921 10.3234 6.36943 13.6633 6.36943H13.6663C14.677 6.37242 15.574 6.58172 16.3365 6.99137C16.6415 7.15582 16.9285 7.35616 17.1887 7.5864C17.5176 7.87643 17.8106 8.21431 18.0588 8.59406C18.1874 8.79439 18.292 8.98576 18.3787 9.16218C15.9926 7.97511 12.4972 9.13825 10.9872 9.75122L10.8018 9.82897C10.6374 9.89774 10.5477 9.9396 10.5477 9.9396L10.8048 10.4808C10.8048 10.4808 10.9573 10.409 11.2115 10.3074L11.358 10.2476C12.7364 9.70338 16.6714 8.39073 18.7405 10.1011L18.7764 10.134C18.6209 10.131 18.4624 10.131 18.295 10.1399C17.0033 10.1997 15.4963 10.5526 14.2644 11.0818C12.9726 11.638 10.0453 13.2227 9.91974 13.2915L10.2068 13.8178C10.2367 13.7998 13.2358 12.1762 14.5006 11.632C15.6518 11.1356 17.1169 10.7918 18.3249 10.735C18.7405 10.714 19.1233 10.726 19.4641 10.7708C19.9306 10.8336 20.3103 10.9562 20.5914 11.1356C20.8186 11.2792 20.9921 11.4436 21.1117 11.62C21.2163 11.7725 21.2672 11.922 21.2941 12.0566C21.1715 11.9609 21.0399 11.8682 20.8934 11.7905C20.2924 11.4705 19.2488 11.3449 18.0319 11.4466C16.9524 11.5333 15.8551 11.7875 14.8594 12.1822C13.7471 12.6247 12.3656 13.432 11.639 13.8776C11.4866 13.9702 11.3939 14.1317 11.3879 14.3111C11.3789 14.4875 11.4596 14.658 11.6062 14.7626C12.4643 15.3905 14.6889 16.8108 17.1588 16.8108C17.2395 16.8108 17.3202 16.8108 17.398 16.8078C17.7 16.7959 17.993 16.772 18.2741 16.7391C18.5731 16.7062 18.8601 16.6583 19.1262 16.5985C19.9515 16.4191 20.6303 16.1201 21.1266 15.7284C21.1775 15.9736 21.1804 16.2906 20.9681 16.5417C20.6632 16.8946 20.1399 17.1816 19.4522 17.367L19.6077 17.9441C20.412 17.7258 21.0399 17.376 21.4196 16.9304C21.8712 16.4072 21.7755 15.7673 21.6559 15.3876C22.6845 15.7912 24.2333 16.165 25.6327 16.165C25.9855 16.165 26.3055 16.159 26.6164 16.1411C27.6002 16.0902 28.3955 15.9288 29.0444 15.6537C29.4002 15.5012 29.7112 15.3158 29.9713 15.0975C29.9803 15.2351 29.9653 15.3935 29.8966 15.561ZM27.1995 14.4756C27.1995 14.2184 27.4088 14.0091 27.6689 14.0091C27.9291 14.0091 28.1324 14.2184 28.1324 14.4756C28.1324 14.7327 27.9231 14.945 27.6689 14.945C27.4148 14.945 27.1995 14.7357 27.1995 14.4756ZM28.2131 13.74C28.2131 13.5905 28.3298 13.4709 28.4793 13.4709C28.6288 13.4709 28.7484 13.5905 28.7484 13.74C28.7484 13.8895 28.6258 14.0091 28.4793 14.0091C28.3328 14.0091 28.2131 13.8895 28.2131 13.74ZM30.2045 13.4081C30.2404 13.7281 30.1358 14.033 29.8876 14.338C29.8547 14.3769 29.8188 14.4188 29.78 14.4606C29.6334 14.6161 29.454 14.7537 29.2507 14.8762C29.3613 14.6311 29.4241 14.362 29.4241 14.0779C29.4241 12.9895 28.545 12.1134 27.4626 12.1134C26.3802 12.1134 25.4981 12.9895 25.4981 14.0779C25.4981 14.6699 25.7613 15.1992 26.1739 15.561C26.0005 15.561 25.8211 15.567 25.6327 15.567C24.3051 15.567 22.834 15.2081 21.8622 14.8284C21.9339 14.6789 21.9848 14.5234 22.0147 14.3679C22.0894 13.9882 22.0954 13.6324 22.0386 13.3094C22.5798 13.0343 24.4038 12.1852 26.6493 12.0476C26.9244 12.0327 27.1965 12.0267 27.4626 12.0297C28.6497 12.0446 29.3793 12.2599 29.5587 12.3167C29.6873 12.4303 30.1447 12.8639 30.2045 13.4081Z" fill="#1E1B30"/>
</svg>
