<svg width="170" height="170" viewBox="0 0 170 170" fill="none" xmlns="http://www.w3.org/2000/svg">
<path d="M155.133 82.3192C155.205 84.3004 154.525 85.9742 153.283 86.9288C153.871 87.805 154.094 88.9558 153.885 90.1C153.688 91.1592 152.936 93.1404 150.125 94.5658C148.34 97.2073 146.163 100.012 141.278 102.765C137.094 105.125 128.463 108.081 123.827 108.44C127.894 114.992 131.608 121.184 135.485 128.651C137.068 131.77 138.585 135.032 139.108 138.439C139.611 139.393 140.154 140.342 140.729 141.342C142.488 144.395 144.312 147.553 144.829 151.038C145.228 154.007 144.273 157.106 142.207 159.552C139.997 162.16 136.878 163.723 133.635 163.834C133.288 163.867 132.948 163.88 132.621 163.88C125.946 163.88 122.918 157.976 120.225 152.732C119.649 151.607 119.1 150.542 118.525 149.541C116.962 148.286 115.445 146.697 113.98 144.768C113.457 144.84 112.405 144.951 110.966 144.951C108.416 144.951 104.676 144.598 100.635 143.062C97.0457 141.688 93.3776 142.342 90.1411 142.918C87.0484 143.473 84.3742 143.951 82.5957 142.453C81.373 141.42 80.7649 140.028 80.8434 138.543C80.863 138.262 80.9023 137.988 80.9676 137.707C81.5299 135.268 83.7726 133.273 86.8196 132.502C89.1734 131.907 91.6319 131.587 94.0053 131.279C98.1899 130.737 102.146 130.22 104.048 128.252C101.845 124.133 99.7919 120.092 98.02 116.535L97.8042 116.097L101.897 114.057C101.296 113.495 99.9619 112.671 97.7911 113.56C97.2942 113.763 96.6992 114.031 96.0323 114.332C92.9657 115.705 88.7615 117.581 85.4399 117.581C84.1584 117.581 83.0076 117.3 82.1119 116.607C81.5038 116.136 81.0526 115.6 80.7846 115.025C80.4707 115.587 79.9934 116.103 79.3526 116.535C78.5353 117.084 77.5546 117.313 76.4823 117.313C73.0823 117.313 68.7342 115.025 65.5957 113.377C64.9484 113.037 64.373 112.736 63.8892 112.501C61.7838 111.474 60.3976 112.213 59.7634 112.736L63.7192 115.031L63.4772 115.456C61.483 118.895 59.1815 122.799 56.7165 126.768C58.4949 128.847 62.4049 129.618 66.5503 130.423C68.9042 130.88 71.3365 131.358 73.638 132.097C76.6392 133.064 78.7511 135.196 79.1565 137.661C79.2023 137.942 79.2219 138.223 79.2219 138.504C79.2088 139.995 78.5157 141.348 77.2276 142.297C76.4299 142.885 75.4884 143.107 74.4357 143.107C73.0234 143.107 71.4149 142.715 69.6692 142.283C66.4784 141.505 62.8561 140.616 59.188 141.76C52.7411 143.761 47.203 142.905 45.7646 142.623C44.1757 144.454 42.5607 145.945 40.9261 147.096C40.2853 148.057 39.6707 149.09 39.0234 150.175C36.1138 155.053 32.8511 160.532 26.6265 160.532C26.0773 160.532 25.5084 160.493 24.9134 160.402C21.7096 160.088 18.6953 158.335 16.6619 155.589C14.7526 153.013 13.9942 149.862 14.5761 146.939C15.315 143.48 17.3353 140.446 19.2838 137.51C19.9246 136.549 20.5261 135.64 21.0819 134.718C21.8207 131.358 23.5403 128.187 25.3188 125.179C30.6934 116.254 35.6953 109.277 41.4819 101.189L41.7696 100.79L45.6076 103.543C46.7323 102.033 50.9365 96.815 55.7161 95.8408C50.2957 90.6557 47.4057 84.3461 47.1115 77.0623C46.5622 63.3119 53.8134 54.2758 58.5996 49.8427L57.5272 49.4177C56.8407 49.1496 56.3046 48.6331 56.0103 47.9531C55.7226 47.2861 55.7096 46.5408 55.9842 45.8608L57.3049 42.5131L56.2523 42.0685C53.7873 41.0354 52.1984 38.6358 52.1984 35.955V10.37C51.8453 9.95153 51.6492 9.43499 51.6492 8.87922C51.6492 7.58461 52.6953 6.53845 53.99 6.53845C55.2846 6.53845 56.3373 7.58461 56.3373 8.87922C56.3373 9.42845 56.1346 9.93845 55.7946 10.3569V35.955C55.7946 37.1842 56.5203 38.2827 57.645 38.7535L58.6257 39.1654L59.9399 35.8373C60.2015 35.1573 60.718 34.6211 61.3915 34.3335C62.0649 34.0392 62.8103 34.0261 63.4903 34.2942L67.518 35.8961C67.6488 35.6935 67.7796 35.4908 67.9169 35.2881C71.1142 30.4888 78.2084 22.4269 89.7488 22.4269H89.7619C93.9203 22.4335 97.6342 23.3031 100.799 25.0161C101.969 25.6438 103.068 26.4088 104.094 27.2654C105.748 26.1865 113.771 21.3938 123.533 23.2246H123.579C124.278 23.3619 124.985 23.5254 125.671 23.7215C133.896 26.0427 137.074 32.9931 137.715 34.6015C144.051 35.9027 146.267 38.2042 146.986 39.3158L148.327 38.7535C149.451 38.2827 150.184 37.1842 150.184 35.955V10.3569C149.837 9.93845 149.641 9.42845 149.641 8.87922C149.641 7.58461 150.694 6.53845 151.988 6.53845C153.283 6.53845 154.329 7.58461 154.329 8.87922C154.329 9.43499 154.126 9.95153 153.78 10.37V35.955C153.78 38.2304 152.629 40.2965 150.753 41.5127C151.171 41.9115 151.505 42.3431 151.74 42.8269C152.335 44.0561 152.152 45.2069 152.008 45.7561C152.701 46.3642 154.676 48.3061 154.963 50.9411C155.14 52.5169 154.663 54.0404 153.571 55.4788C153.832 56.1261 154.31 57.7346 153.329 59.3169C152.472 60.6835 150.844 61.71 148.379 62.4554C148.307 63.0111 147.987 64.1619 146.646 65.1819C150.511 67.6665 152.525 73.1588 153.074 77.2323L153.12 77.5984C153.139 77.775 153.165 77.9515 153.185 78.1411C154.303 78.8211 155.061 80.4165 155.133 82.3192ZM152.368 86.36C153.76 85.5492 154.205 83.7642 154.153 82.3519C154.094 80.8154 153.479 79.4619 152.649 78.9715C148.667 79.9392 135.054 82.5938 115.419 79.6058C108.972 78.625 102.937 76.4346 97.608 74.5058C90.6642 71.9819 85.1849 69.9942 81.9549 71.7531C79.0715 73.3223 78.4046 75.5388 78.3588 77.1277C78.2738 79.73 79.8561 82.5154 82.2884 84.0519C82.3669 84.1042 82.4519 84.1565 82.5434 84.2154C82.6415 84.2742 82.7396 84.3396 82.8442 84.405C82.9946 84.5031 83.1188 84.5946 83.2626 84.6796C86.9961 87.0923 98.3142 94.4154 120.636 95.4354C133.936 96.0434 143.063 95.6904 147.758 94.3958C148.098 94.2911 148.425 94.1996 148.706 94.095C148.863 94.0427 148.987 93.9904 149.105 93.9511C149.301 93.8661 149.451 93.8008 149.589 93.7419C151.452 92.82 152.636 91.4665 152.917 89.9235C153.093 88.9819 152.897 88.0535 152.394 87.3735C149.17 88.3215 143.292 88.7727 133.818 88.7727C131.346 88.7727 128.633 88.74 125.651 88.6811C105.003 88.2627 86.1788 79.0827 85.9892 78.9911L86.4273 78.115C86.6103 78.2065 105.245 87.2885 125.671 87.7004C140.258 87.9946 148.497 87.5827 152.368 86.36ZM152.623 55.1127C153.682 53.8115 154.14 52.445 153.989 51.0523C153.715 48.535 151.557 46.6519 151.184 46.3446C150.7 46.1746 147.758 45.2265 142.802 45.1677C141.769 45.1481 140.703 45.1742 139.624 45.2396C130.163 45.8215 122.572 49.6596 121.192 50.3985C121.493 51.6735 121.506 53.1119 121.205 54.6877C121.061 55.4527 120.767 56.2046 120.349 56.9238C124.102 58.5127 130.255 60.0819 135.753 60.0819C136.348 60.0819 137.009 60.0754 137.702 60.0558C135.407 57.1069 132.89 53.5304 132.916 51.0261C133.033 47.6261 137.721 46.3511 140.147 48.6004L140.232 48.6723C141.2 49.3588 141.926 51.6604 142.913 50.1565C143.711 48.9731 145.306 47.5804 146.849 47.5019C148.811 47.2469 151.021 48.6004 151.021 50.6273C151.073 52.7327 149.837 55.5442 148.281 58.2185C149.87 57.545 151.184 56.6688 152.178 55.6227C152.341 55.4527 152.485 55.2761 152.623 55.1127ZM153.348 8.87922C153.348 8.1273 152.74 7.51922 151.988 7.51922C151.236 7.51922 150.622 8.1273 150.622 8.87922C150.622 9.23884 150.766 9.57884 151.021 9.84038C151.537 10.3504 152.42 10.3569 152.943 9.84038C153.205 9.58538 153.348 9.24538 153.348 8.87922ZM152.498 58.7938C153.061 57.8915 152.982 56.9631 152.825 56.3485C151.74 57.4796 150.328 58.4211 148.615 59.1404C148.431 59.2254 148.242 59.2973 148.046 59.3692C145.725 60.265 142.926 60.7881 139.5 60.9711C139.016 60.9973 138.545 61.0169 138.088 61.03C137.251 61.0561 136.466 61.0627 135.753 61.0627C130.026 61.0627 123.605 59.4019 119.78 57.7542C119.715 57.8392 119.649 57.9242 119.577 58.0092C120.29 59.0096 120.833 60.9058 118.936 62.7038C117.223 64.3319 110.77 66.7577 104.218 66.7577C103.303 66.7577 102.388 66.7119 101.485 66.6073C94.8161 65.8488 88.7092 63.6911 83.3215 60.2061L83.8511 59.3823C89.1146 62.7888 95.0776 64.8942 101.596 65.6331C109.044 66.4831 116.753 63.4296 118.263 61.9977C119.675 60.6573 119.263 59.4019 118.897 58.7677C117.701 59.9446 116.112 60.9254 114.157 61.6838C113.104 62.0958 111.908 62.4554 110.606 62.7431C109.6 62.9654 108.521 63.1484 107.396 63.2792C106.33 63.3969 105.219 63.4819 104.081 63.5277L103.983 63.0438L104.016 63.5342H103.905C103.663 63.5408 103.421 63.5473 103.179 63.5473C93.8942 63.5473 85.4726 58.1596 82.223 55.7992C81.8438 55.5246 81.6346 55.08 81.6476 54.6158C81.6673 54.1581 81.9157 53.7331 82.3146 53.4846C85.0803 51.7911 90.3569 48.705 94.5807 47.0246C98.3534 45.5273 102.505 44.5661 106.592 44.2327C111.149 43.8535 115.026 44.3111 117.223 45.4815C118.263 46.0373 119.106 46.7108 119.76 47.4954C119.898 46.6388 119.878 45.2723 118.923 43.8731C118.413 43.1211 117.681 42.4281 116.733 41.8265C115.576 41.0877 114.026 40.5842 112.13 40.3292C110.783 40.1527 109.273 40.1069 107.631 40.1919C102.917 40.4077 97.1961 41.7481 92.7042 43.69C87.8134 45.7954 76.2599 52.0461 76.1422 52.1115L75.678 51.2485C75.7892 51.1831 87.3819 44.9127 92.3184 42.7877C96.9803 40.7738 102.688 39.44 107.586 39.2111C108.815 39.1458 109.972 39.1588 111.051 39.2373C110.685 38.8254 110.299 38.4265 109.887 38.0735L109.802 37.995C101.472 30.94 85.5707 36.3865 80.3857 38.4592L80.0784 38.5835C79.0715 38.9954 78.4765 39.27 78.4699 39.2765L78.0515 38.3873C78.0515 38.3873 78.555 38.1519 79.405 37.7988L79.7123 37.6681C84.4657 35.7392 100.125 30.1881 109.273 36.38C108.893 35.3535 108.246 33.8692 107.187 32.2542C106.206 30.7504 105.049 29.4035 103.741 28.2461C102.695 27.3308 101.544 26.5331 100.335 25.8792C97.3138 24.2446 93.7569 23.4142 89.7619 23.4077H89.7488C78.6661 23.4077 71.8269 31.195 68.7342 35.8373C68.5184 36.1511 68.3157 36.4585 68.1261 36.7658C66.1384 39.95 64.6084 43.4742 63.693 46.9658C63.3269 48.3585 63.0784 49.6858 62.9476 50.9085C62.9019 51.2942 62.8757 51.6669 62.8561 52.0265C62.8365 52.4384 62.8299 52.8635 62.843 53.3342L61.8622 53.3604C61.8492 52.87 61.8557 52.4123 61.8753 51.9742C61.8884 51.7127 61.9146 51.4446 61.9407 51.1765L59.613 50.2481C54.9707 54.4327 47.543 63.325 48.0923 77.0231C48.3865 84.3069 51.3811 90.5773 56.9976 95.6838C57.4292 95.6642 57.8607 95.6904 58.2923 95.7558C64.8046 96.7823 76.2861 102.347 79.0061 103.778C79.6207 104.105 80.5426 104.955 81.0592 106.152C81.6476 104.982 82.6219 104.184 83.2561 103.903C86.0611 102.641 97.8761 97.8154 104.441 97.2008C110.26 96.6646 115.393 103.916 116.609 105.779L120.61 103.275L120.872 103.693C121.676 104.982 122.461 106.237 123.232 107.479C127.45 107.362 136.564 104.302 140.795 101.915C144.77 99.6658 146.888 97.3904 148.484 95.2C148.34 95.2458 148.19 95.2915 148.026 95.3373C144.731 96.2461 139.363 96.7038 131.987 96.7038C128.607 96.7038 124.808 96.6058 120.591 96.4161C98.0069 95.3831 86.5188 87.9488 82.7461 85.51C82.6022 85.425 82.4584 85.3269 82.3211 85.2354C82.2165 85.17 82.1119 85.1046 82.0138 85.0392L81.7719 84.8888C79.0061 83.1365 77.2799 80.0831 77.378 77.095C77.4565 74.4927 78.9211 72.2892 81.4842 70.89C85.1065 68.9219 90.7688 70.9815 97.9415 73.5838C103.225 75.4996 109.22 77.6704 115.569 78.6381C134.648 81.5346 147.967 79.0696 152.191 78.0758C152.171 77.9581 152.158 77.8338 152.145 77.7227L152.1 77.3565C151.563 73.3615 149.569 67.9215 145.725 65.7573C144.894 66.2019 143.9 66.5354 142.743 66.7577C141.344 67.0192 139.546 67.2088 137.408 67.3331L137.349 66.3523C139.454 66.2346 141.206 66.045 142.566 65.79C143.678 65.5808 144.633 65.2538 145.404 64.8223C146.66 64.1227 147.13 63.2923 147.313 62.7496C146.516 62.9392 145.64 63.1158 144.646 63.2792C141.278 63.835 136.375 63.9658 132.536 63.9658C129.202 63.9658 126.665 63.8677 126.606 63.8677L126.645 62.8869C126.763 62.8935 138.29 63.3381 144.489 62.3115C145.751 62.1023 146.823 61.88 147.765 61.6185C150.184 60.9384 151.733 60.01 152.498 58.7938ZM152.799 35.955V11.0696C152.538 11.1611 152.27 11.22 151.988 11.22C151.707 11.22 151.426 11.1611 151.165 11.0631V35.955C151.165 37.5765 150.197 39.0346 148.706 39.6558L148.078 39.9238C148.791 40.1854 149.419 40.4927 149.948 40.8523C151.707 39.8519 152.799 38.0081 152.799 35.955ZM151.112 45.2919C151.204 44.8277 151.25 44.0627 150.851 43.2388C150.243 42.0096 148.83 41.0811 146.66 40.4861C145.81 40.2508 144.829 40.0677 143.75 39.9435C134.21 38.845 125.03 41.0485 120.015 43.7685C121.245 45.9261 120.721 47.94 120.499 48.5873C120.65 48.8554 120.78 49.1431 120.898 49.4373C122.722 48.4892 130.255 44.8342 139.559 44.2588C140.67 44.1935 141.762 44.1673 142.821 44.1869C147.209 44.2392 150.027 44.9585 151.112 45.2919ZM143.861 38.9692C144.508 39.0477 145.116 39.1392 145.692 39.2569C144.731 38.2108 142.442 36.5304 137.257 35.5038C136.316 35.3142 135.276 35.1573 134.08 35.0135C126.24 34.1242 120.061 35.4319 117.08 36.295L116.4 36.5042C115.693 36.7265 115.308 36.8769 115.301 36.8835L114.941 35.9681C114.941 35.9681 115.347 35.8046 116.112 35.5627L116.798 35.3535C119.858 34.4708 126.181 33.1304 134.191 34.0392C135.054 34.1438 135.832 34.255 136.558 34.3792C135.57 32.1954 132.432 26.6508 125.403 24.6631C124.762 24.48 124.102 24.3296 123.441 24.2054H123.389C114.314 22.4792 106.795 26.7161 104.846 27.9454C106.036 29.0635 107.102 30.3254 108.011 31.7181C109.77 34.4119 110.476 36.8115 110.639 37.4327C111.3 38.0081 111.908 38.6684 112.45 39.3877C114.405 39.6688 116.02 40.205 117.263 41.0027C118.165 41.5781 118.897 42.2385 119.453 42.9511C124.592 40.1396 134.06 37.8381 143.861 38.9692ZM141.455 158.917C143.371 156.648 144.227 153.902 143.861 151.176C143.371 147.88 141.592 144.807 139.879 141.832C139.683 141.492 139.487 141.146 139.291 140.806C139.297 141.636 139.238 142.473 139.088 143.323C138.264 148.318 134.191 152.248 129.189 152.882C128.633 152.954 128.077 152.987 127.521 152.987C127.149 152.987 126.776 152.974 126.41 152.941C124.331 152.758 122.304 152.045 120.349 150.829C120.597 151.307 120.846 151.784 121.101 152.287C123.912 157.767 126.822 163.429 133.576 162.853C136.564 162.749 139.428 161.317 141.455 158.917ZM138.12 143.16C138.983 138.262 136.858 133.528 134.616 129.095C129.915 120.046 125.442 112.867 120.296 104.628L117.132 106.603C122.238 114.783 126.665 121.903 131.288 130.802C133.328 134.83 135.106 138.746 134.439 142.532C133.955 145.448 131.497 147.835 128.587 148.201C124.213 148.763 119.898 145.683 115.752 139.04C110.868 131.41 106.108 122.171 102.46 114.868L99.1184 116.535C102.806 123.923 107.625 133.273 112.594 141.041C114.719 144.448 116.949 147.063 119.27 148.887C121.591 150.712 124.01 151.745 126.495 151.967C127.338 152.039 128.201 152.019 129.065 151.908C133.641 151.333 137.368 147.73 138.12 143.16ZM133.471 142.368C134.086 138.877 132.38 135.117 130.418 131.253C125.736 122.237 121.245 115.044 116.046 106.714L116.033 106.701C116.033 106.701 116.027 106.695 116.027 106.688L116.007 106.662C115.589 105.982 110.24 97.6519 104.532 98.1815C98.1049 98.7831 86.4338 103.55 83.6615 104.792C83.0599 105.067 81.9811 105.995 81.6411 107.342C81.3861 108.342 81.5823 109.356 82.223 110.376C83.1384 109.552 84.4069 108.8 85.9826 108.146C87.3819 107.571 93.528 104.923 97.5426 103.066C101.851 101.065 105.323 101.837 107.128 103.229C108.952 104.628 114.445 111.768 114.673 112.076L113.895 112.671C113.843 112.599 108.253 105.328 106.533 104.007C104.951 102.791 101.871 102.144 97.9546 103.955C93.9269 105.818 87.7611 108.473 86.3553 109.055C83.4523 110.258 81.6673 111.827 81.4646 113.357C81.3142 114.495 82.0596 115.332 82.7069 115.829C85.4857 117.967 91.8411 115.129 95.6334 113.436C96.3134 113.128 96.9149 112.86 97.4184 112.651C100.374 111.442 102.159 112.893 102.813 113.599L102.898 113.553L103.12 113.992C106.781 121.341 111.62 130.769 116.583 138.517C120.506 144.807 124.507 147.737 128.463 147.233C130.954 146.919 133.06 144.873 133.471 142.368ZM120.238 54.5046C120.551 52.9158 120.519 51.4904 120.159 50.2611C120.009 49.7511 119.806 49.3 119.538 48.875C118.936 47.855 118.001 47.0115 116.766 46.3446C115.229 45.5273 112.66 45.0892 109.606 45.0892C108.665 45.0892 107.684 45.1285 106.67 45.2135C102.741 45.5273 98.5757 46.495 94.9469 47.94C90.7884 49.5877 85.5642 52.6477 82.8246 54.3215C82.7069 54.3935 82.6349 54.5177 82.6284 54.655C82.6284 54.7923 82.6873 54.9231 82.7984 55.0081C86.0023 57.3358 94.3519 62.6581 103.466 62.5535C100.668 59.4085 97.4707 55.5115 97.3138 52.6738C97.1961 48.8881 102.296 47.1423 105.147 49.4569L105.245 49.5288C106.37 50.2154 107.344 52.7196 108.325 50.9804C109.122 49.6073 110.79 47.9531 112.496 47.7504C114.654 47.3319 117.197 48.6658 117.348 50.915C117.583 53.4977 116.118 57.1723 114.346 60.5461C116.131 59.7811 117.557 58.82 118.583 57.6823C118.812 57.4338 119.021 57.1658 119.218 56.8911C119.741 56.1261 120.087 55.3219 120.238 54.5046ZM113.3 143.853C112.784 143.133 112.267 142.368 111.764 141.564C109.279 137.674 106.827 133.391 104.532 129.154C102.335 131.188 98.3469 131.704 94.1296 132.253C91.7822 132.554 89.3565 132.875 87.0615 133.457C84.3676 134.137 82.3996 135.85 81.9223 137.922C81.5953 139.354 82.0726 140.727 83.23 141.702C84.6553 142.905 87.1203 142.467 89.9711 141.957C93.3319 141.355 97.1438 140.675 100.988 142.14C106.415 144.212 111.365 144.036 113.3 143.853ZM81.5234 111.082C81.2749 110.716 81.0788 110.363 80.9415 110.023C80.778 110.356 80.5557 110.703 80.2877 111.056C80.5296 111.383 80.7257 111.716 80.8696 112.056C81.0396 111.723 81.2553 111.402 81.5234 111.082ZM79.6338 110.304C80.3334 109.336 80.5949 108.329 80.4053 107.316C80.1503 105.949 79.1303 104.955 78.5484 104.648C75.8611 103.229 64.5169 97.7304 58.1419 96.7234C57.7626 96.6646 57.3834 96.645 57.0042 96.6646L56.8342 96.8608C56.7688 96.8019 56.71 96.7431 56.6446 96.6908C51.5576 97.1811 46.7061 103.693 46.1699 104.432L46.1176 104.511C40.3965 112.494 35.4599 119.392 30.2096 128.095C28.0126 131.828 26.0707 135.47 26.4565 138.988C26.718 141.518 28.6861 143.689 31.1511 144.167C35.0676 144.918 39.2457 142.251 43.5546 136.222C49.0011 128.801 54.428 119.7 58.5473 112.599L58.7957 112.174L58.8807 112.226C59.5738 111.559 61.4438 110.219 64.3207 111.618C64.8111 111.86 65.3996 112.167 66.0534 112.514C69.7346 114.443 75.8938 117.679 78.8034 115.718C79.4834 115.26 80.2746 114.475 80.1961 113.331C80.0915 111.788 78.4111 110.108 75.593 108.728C74.2265 108.061 68.2373 105.014 64.3403 102.902C60.548 100.849 57.4292 101.3 55.7749 102.412C53.9703 103.622 47.9353 110.526 47.8765 110.598L47.1376 109.951C47.3861 109.663 53.323 102.876 55.2257 101.595C57.1219 100.326 60.6265 99.7769 64.8046 102.039C68.6949 104.151 74.6646 107.178 76.0246 107.845C77.5546 108.597 78.7642 109.428 79.6338 110.304ZM76.6457 141.505C77.8619 140.61 78.4242 139.263 78.1888 137.818C77.8422 135.719 75.9853 133.882 73.3373 133.032C71.088 132.306 68.6884 131.842 66.3607 131.384C62.1892 130.573 58.24 129.802 56.1738 127.637C53.6238 131.717 50.9038 135.843 48.1707 139.563C47.6149 140.342 47.0592 141.067 46.4969 141.754C48.4257 142.055 53.3557 142.545 58.8938 140.825C62.8234 139.603 66.583 140.525 69.9046 141.335C72.7161 142.022 75.1419 142.617 76.6457 141.505ZM66.9949 36.7461L63.1307 35.2096C62.6926 35.0331 62.2153 35.0396 61.7838 35.2292C61.3523 35.4188 61.0188 35.7588 60.8488 36.1969L56.893 46.2204C56.7165 46.6585 56.7296 47.1358 56.9126 47.5673C57.1023 47.9988 57.4488 48.3323 57.8869 48.5023L62.0519 50.1631C62.1957 49.0777 62.4246 47.9204 62.7449 46.7173C63.6342 43.3108 65.1053 39.8781 66.9949 36.7461ZM62.3788 115.391L59.1488 113.514C55.0492 120.569 49.7138 129.488 44.3522 136.798C39.8015 143.16 35.29 145.965 30.9615 145.128C28.0846 144.578 25.783 142.035 25.4823 139.086C25.0638 135.274 27.0776 131.475 29.3661 127.592C34.5511 118.993 39.4223 112.167 45.0323 104.334L41.9919 102.163C36.3361 110.062 31.4257 116.94 26.1557 125.682C23.6384 129.958 21.2192 134.548 21.7684 139.485C22.2326 144.101 25.7242 147.926 30.2553 148.796C31.1119 148.959 31.9684 149.031 32.8184 149.012C37.8073 148.887 42.7046 145.513 47.3796 138.988C52.8326 131.554 58.2334 122.524 62.3788 115.391ZM57.6646 41.5977L58.2661 40.0742L57.2657 39.6558C55.7749 39.0346 54.8138 37.5765 54.8138 35.955V11.0631C54.5522 11.1611 54.2711 11.22 53.99 11.22C53.7088 11.22 53.4342 11.1611 53.1792 11.0696V35.955C53.1792 38.2369 54.5326 40.2835 56.638 41.1661L57.6646 41.5977ZM54.9576 9.83384C55.2126 9.57884 55.3565 9.23884 55.3565 8.87922C55.3565 8.1273 54.7419 7.51922 53.99 7.51922C53.238 7.51922 52.6299 8.1273 52.6299 8.87922C52.6299 9.24538 52.7673 9.58538 53.0288 9.84038C53.5519 10.3569 54.4346 10.3504 54.9576 9.83384ZM38.1799 149.672C38.4676 149.195 38.7488 148.724 39.0234 148.266C36.9965 149.358 34.9303 149.94 32.838 149.992H32.5307C31.7134 149.992 30.8896 149.914 30.0723 149.757C25.1161 148.809 21.3042 144.624 20.7942 139.59C20.6961 138.733 20.6961 137.896 20.7484 137.066C20.5326 137.399 20.3169 137.726 20.1011 138.053C18.1984 140.91 16.2369 143.872 15.5372 147.135C15.0011 149.822 15.6811 152.621 17.4465 155.001C19.3165 157.525 22.0823 159.14 25.0377 159.434C31.7723 160.434 35.0284 154.962 38.1799 149.672Z" fill="#062733"/>
<path d="M154.153 82.3518C154.205 83.7641 153.76 85.5491 152.368 86.3599C148.497 87.5826 140.258 87.9945 125.671 87.7003C105.245 87.2883 86.6103 78.2064 86.4272 78.1149L85.9891 78.991C86.1787 79.0826 105.003 88.2626 125.651 88.681C128.633 88.7399 131.346 88.7726 133.818 88.7726C143.292 88.7726 149.17 88.3214 152.394 87.3733C152.897 88.0533 153.093 88.9818 152.917 89.9233C152.636 91.4664 151.452 92.8199 149.589 93.7418C149.451 93.8006 149.301 93.866 149.105 93.951C148.987 93.9903 148.863 94.0426 148.706 94.0949C148.425 94.1995 148.098 94.291 147.758 94.3956C143.063 95.6903 133.936 96.0433 120.636 95.4353C98.3141 94.4153 86.996 87.0922 83.2626 84.6795C83.1187 84.5945 82.9945 84.503 82.8441 84.4049C82.7395 84.3395 82.6414 84.2741 82.5433 84.2153C82.4518 84.1564 82.3668 84.1041 82.2884 84.0518C79.856 82.5153 78.2737 79.7299 78.3587 77.1276C78.4045 75.5387 79.0714 73.3222 81.9549 71.753C85.1849 69.9941 90.6641 71.9818 97.608 74.5056C102.937 76.4345 108.972 78.6249 115.419 79.6056C135.054 82.5937 148.667 79.9391 152.649 78.9714C153.479 79.4618 154.094 80.8153 154.153 82.3518Z" fill="#FF84ED"/>
<path d="M153.989 51.0522C154.14 52.4449 153.682 53.8115 152.623 55.1126C152.485 55.2761 152.341 55.4526 152.178 55.6226C151.184 56.6688 149.87 57.5449 148.281 58.2184C149.837 55.5442 151.073 52.7326 151.021 50.6272C151.021 48.6003 148.811 47.2469 146.849 47.5019C145.306 47.5803 143.711 48.973 142.913 50.1565C141.926 51.6603 141.2 49.3588 140.232 48.6722L140.147 48.6003C137.721 46.3511 133.033 47.6261 132.916 51.0261C132.89 53.5303 135.407 57.1069 137.702 60.0557C137.009 60.0753 136.348 60.0819 135.753 60.0819C130.255 60.0819 124.102 58.5126 120.349 56.9238C120.767 56.2045 121.061 55.4526 121.205 54.6876C121.506 53.1119 121.493 51.6734 121.192 50.3984C122.572 49.6595 130.163 45.8215 139.624 45.2395C140.703 45.1742 141.769 45.148 142.802 45.1676C147.758 45.2265 150.7 46.1745 151.184 46.3445C151.557 46.6519 153.715 48.5349 153.989 51.0522Z" fill="white"/>
<path d="M151.988 7.51917C152.74 7.51917 153.348 8.12724 153.348 8.87916C153.348 9.24532 153.205 9.58532 152.943 9.84032C152.42 10.3569 151.537 10.3503 151.021 9.84032C150.766 9.57878 150.622 9.23878 150.622 8.87916C150.622 8.12724 151.236 7.51917 151.988 7.51917Z" fill="#7356FB"/>
<path d="M144.489 62.3114C145.751 62.1022 146.823 61.8798 147.765 61.6183C150.184 60.9383 151.733 60.0098 152.498 58.7937C153.061 57.8914 152.982 56.9629 152.825 56.3483C151.74 57.4795 150.328 58.421 148.615 59.1402C148.431 59.2252 148.242 59.2972 148.046 59.3691C145.725 60.2648 142.926 60.7879 139.5 60.971C139.016 60.9972 138.545 61.0168 138.088 61.0299C137.251 61.056 136.466 61.0625 135.753 61.0625C130.026 61.0625 123.605 59.4018 119.78 57.7541C119.715 57.8391 119.649 57.9241 119.577 58.0091C120.29 59.0095 120.833 60.9056 118.936 62.7037C117.223 64.3318 110.77 66.7575 104.218 66.7575C103.303 66.7575 102.388 66.7118 101.485 66.6072C94.8161 65.8487 88.7091 63.691 83.3215 60.206L83.8511 59.3822C89.1145 62.7887 95.0776 64.8941 101.596 65.6329C109.044 66.4829 116.753 63.4295 118.263 61.9975C119.675 60.6572 119.263 59.4018 118.897 58.7675C117.701 59.9445 116.112 60.9252 114.157 61.6837C113.104 62.0956 111.908 62.4552 110.606 62.7429C109.6 62.9652 108.521 63.1483 107.396 63.2791C106.33 63.3968 105.219 63.4818 104.081 63.5275L103.983 63.0437L104.016 63.5341H103.905C103.663 63.5341 103.421 63.5472 103.179 63.5472C93.8941 63.5472 85.4726 58.1595 82.223 55.7991C81.8438 55.5245 81.6345 55.0798 81.6476 54.6156C81.6672 54.1579 81.9157 53.7329 82.3145 53.4845C85.0803 51.791 90.3568 48.7048 94.5807 47.0245C98.3534 45.5272 102.505 44.566 106.592 44.2325C111.149 43.8533 115.026 44.311 117.223 45.4814C118.263 46.0372 119.106 46.7106 119.76 47.4952C119.898 46.6387 119.878 45.2722 118.923 43.8729C118.413 43.121 117.681 42.4279 116.733 41.8264C115.576 41.0875 114.033 40.5841 112.136 40.3291C110.79 40.1525 109.279 40.1068 107.638 40.1918C106.893 40.2245 106.121 40.2898 105.336 40.3814C101.152 40.8456 96.4965 42.0552 92.7107 43.6898C87.8199 45.7952 76.2665 52.046 76.1488 52.1114L75.6845 51.2483C75.7957 51.1829 87.3884 44.9125 92.3249 42.7875C96.0061 41.1987 100.335 40.0348 104.408 39.4987C105.493 39.3548 106.559 39.2568 107.592 39.211C108.821 39.1456 109.979 39.1587 111.058 39.2372C110.691 38.8252 110.306 38.4264 109.894 38.0733L109.809 37.9948C101.479 30.9398 85.5772 36.3864 80.3922 38.4591L80.0849 38.5833C79.1957 38.9495 78.6268 39.2045 78.5026 39.2698C78.483 39.2698 78.4765 39.2698 78.4765 39.2698L78.058 38.3806C78.058 38.3806 78.5614 38.1452 79.4114 37.7922L79.7188 37.6614C84.4722 35.7325 100.132 30.1814 109.279 36.3733C108.9 35.3468 108.253 33.8625 107.193 32.2475C106.86 31.7441 106.513 31.2537 106.134 30.7829C106.062 30.6848 105.984 30.5868 105.905 30.4952C105.245 29.6779 104.526 28.926 103.748 28.2395C102.701 27.3241 101.551 26.5264 100.341 25.8725C97.3203 24.2379 93.7634 23.4075 89.7684 23.401H89.7553C78.6726 23.401 71.8334 31.1883 68.7407 35.8306C68.5249 36.1445 68.3222 36.4518 68.1326 36.7591C66.1449 39.9433 64.6149 43.4675 63.6995 46.9591C63.3334 48.3518 63.0849 49.6791 62.9542 50.9018C62.9084 51.2875 62.8822 51.6602 62.8626 52.0198C62.843 52.4318 62.8365 52.8568 62.8495 53.3275L61.8688 53.3537C61.8557 52.8633 61.8688 52.4056 61.8818 51.9675C61.8949 51.706 61.9211 51.4379 61.9472 51.1698L59.6195 50.2414C54.9772 54.426 47.5495 63.3183 48.0988 77.0164C48.393 84.3002 51.3876 90.5706 57.0041 95.6771C57.4357 95.6575 57.8672 95.6837 58.2988 95.7491C60.3845 96.0825 62.9738 96.8737 65.6218 97.8414C71.258 99.9141 77.1622 102.798 79.0126 103.772C79.6272 104.099 80.5491 104.949 81.0657 106.145C81.6541 104.975 82.6284 104.177 83.2626 103.896C86.0676 102.634 97.8826 97.8087 104.447 97.1941C110.266 96.6579 115.399 103.909 116.615 105.773L120.617 103.268L120.878 103.687C121.388 104.498 121.885 105.302 122.376 106.093C122.67 106.557 122.958 107.015 123.239 107.473C127.456 107.355 136.571 104.295 140.801 101.908C144.776 99.6591 146.895 97.3837 148.49 95.1933C148.346 95.2391 148.196 95.2848 148.033 95.3306C145.28 96.0891 141.082 96.5337 135.472 96.6579C134.367 96.6841 133.21 96.6972 131.994 96.6972C128.613 96.6972 124.815 96.5991 120.597 96.4095C98.0134 95.3764 86.5253 87.9422 82.7526 85.5033C82.6088 85.4183 82.4649 85.3202 82.3276 85.2287C82.223 85.1633 82.1184 85.0979 82.0203 85.0325L81.7784 84.8822C79.0126 83.1298 77.2865 80.0764 77.3845 77.0883C77.463 74.486 78.9276 72.2825 81.4907 70.8833C85.113 68.9152 90.7753 70.9748 97.948 73.5772C103.231 75.4929 109.227 77.6637 115.576 78.6314C134.655 81.5279 147.974 79.0629 152.198 78.0691C152.178 77.9514 152.165 77.8272 152.152 77.716L152.106 77.3498C151.57 73.3548 149.576 67.9148 145.731 65.7506C144.901 66.1952 143.907 66.5287 142.75 66.751C141.35 67.0125 139.552 67.2022 137.414 67.3264L137.355 66.3456C139.461 66.2279 141.213 66.0383 142.573 65.7833C143.685 65.5741 144.639 65.2472 145.411 64.8156C146.666 64.116 147.137 63.2856 147.32 62.7429C146.522 62.9325 145.646 63.1091 144.652 63.2725C141.285 63.8283 136.381 63.9591 132.543 63.9591C129.208 63.9591 126.671 63.861 126.613 63.861L126.652 62.8802C126.77 62.8868 138.297 63.3314 144.495 62.3048L144.489 62.3114ZM64.8895 80.6975C64.7849 83.7248 66.4718 86.556 66.4915 86.5822L65.648 87.0922C65.5761 86.9614 63.7976 83.9798 63.9088 80.6583C64.0788 76.0487 67.3349 73.9368 67.4722 73.8452L68.0018 74.6756C67.8776 74.7541 65.0399 76.6175 64.8895 80.6975ZM131.615 68.9348C132.746 70.2948 134.348 73.2502 135.054 75.2641L134.132 75.591C133.465 73.6948 131.909 70.8245 130.863 69.5625L131.615 68.9348Z" fill="#FFD934"/>
<path d="M152.799 11.0694V35.9548C152.799 38.0079 151.707 39.8517 149.948 40.8521C149.419 40.4925 148.791 40.1852 148.078 39.9236L148.706 39.6556C150.197 39.0344 151.165 37.5763 151.165 35.9548V11.0629C151.426 11.1609 151.701 11.2198 151.988 11.2198C152.276 11.2198 152.538 11.1609 152.799 11.0694Z" fill="#2CCCFF"/>
<path d="M150.851 43.2386C151.249 44.0625 151.204 44.8275 151.112 45.2917C150.027 44.9582 147.209 44.239 142.821 44.1867C141.762 44.1671 140.67 44.1933 139.559 44.2586C130.254 44.834 122.722 48.489 120.898 49.4371C120.78 49.1429 120.65 48.8552 120.499 48.5871C120.721 47.9398 121.244 45.9259 120.015 43.7683C125.03 41.0483 134.21 38.8448 143.75 39.9433C144.829 40.0675 145.809 40.2506 146.659 40.4859C148.83 41.0809 150.243 42.0094 150.851 43.2386Z" fill="#FFD934"/>
<path d="M145.692 39.2568C145.116 39.1391 144.508 39.0475 143.861 38.9691C142.122 38.7664 140.396 38.6748 138.702 38.6748C138.29 38.6748 137.885 38.6748 137.48 38.6879C130.104 38.8775 123.461 40.7606 119.453 42.951C118.897 42.2383 118.165 41.5779 117.263 41.0025C116.02 40.2048 114.405 39.6687 112.45 39.3875C111.908 38.6683 111.3 38.0079 110.639 37.4325C110.502 36.9094 109.979 35.1179 108.756 32.9537C108.534 32.5548 108.285 32.1364 108.011 31.7179C107.102 30.3252 106.036 29.0633 104.846 27.9452C106.795 26.716 114.314 22.4791 123.389 24.1987H123.441C124.102 24.3294 124.762 24.4798 125.403 24.6629C125.952 24.8198 126.475 24.9964 126.979 25.1925C131.464 26.9318 134.125 30.1421 135.544 32.4764C136.008 33.2283 136.335 33.8887 136.558 34.3791C135.832 34.2548 135.054 34.1437 134.191 34.0391C126.181 33.1302 119.858 34.4706 116.798 35.3533L116.23 35.5233L116.112 35.5625C115.347 35.8044 114.941 35.9679 114.941 35.9679L115.301 36.8833C115.301 36.8833 115.308 36.8833 115.321 36.8833C115.412 36.8441 115.785 36.7068 116.4 36.5106L117.08 36.3014C120.061 35.4383 126.24 34.1306 134.08 35.0198C135.276 35.1637 136.316 35.3206 137.257 35.5102C142.442 36.5368 144.731 38.2171 145.692 39.2633V39.2568Z" fill="#FFD934"/>
<path d="M143.861 151.176C144.227 153.902 143.371 156.648 141.455 158.917C139.428 161.317 136.564 162.749 133.576 162.853C126.822 163.429 123.912 157.766 121.101 152.287C120.846 151.784 120.597 151.306 120.349 150.829C122.304 152.045 124.331 152.758 126.41 152.941C126.776 152.974 127.149 152.987 127.521 152.987C128.077 152.987 128.633 152.954 129.189 152.882C134.191 152.248 138.264 148.318 139.088 143.323C139.238 142.473 139.297 141.636 139.291 140.806C139.487 141.146 139.683 141.492 139.879 141.832C141.592 144.807 143.371 147.88 143.861 151.176Z" fill="#134577"/>
<path d="M134.616 129.095C136.858 133.528 138.983 138.262 138.12 143.159C137.368 147.73 133.641 151.333 129.064 151.908C128.201 152.019 127.338 152.039 126.495 151.967C124.01 151.744 121.591 150.711 119.27 148.887C116.949 147.063 114.719 144.448 112.594 141.041C107.625 133.273 102.806 123.923 99.1183 116.535L102.459 114.868C106.108 122.171 110.868 131.41 115.752 139.04C119.898 145.683 124.213 148.763 128.587 148.201C131.497 147.834 133.955 145.448 134.439 142.532C135.106 138.746 133.328 134.829 131.288 130.802C126.665 121.903 122.238 114.783 117.132 106.603L120.296 104.628C125.442 112.867 129.914 120.046 134.616 129.095Z" fill="#7356FB"/>
<path d="M135.054 75.264L134.132 75.591C133.465 73.6948 131.909 70.8244 130.863 69.5625L131.614 68.9348C132.746 70.2948 134.348 73.2502 135.054 75.264Z" fill="#062733"/>
<path d="M130.418 131.253C132.38 135.117 134.086 138.877 133.471 142.368C133.06 144.873 130.954 146.919 128.463 147.233C124.507 147.736 120.506 144.807 116.583 138.517C111.62 130.769 106.781 121.341 103.12 113.991L102.898 113.553L102.813 113.599C102.159 112.893 100.374 111.441 97.4184 112.651C96.9149 112.86 96.3133 113.128 95.6333 113.436C91.841 115.129 85.4857 117.967 82.7068 115.829C82.0595 115.332 81.3141 114.495 81.4645 113.357C81.6672 111.827 83.4522 110.258 86.3553 109.055C87.7611 108.473 93.9268 105.818 97.9545 103.955C101.871 102.144 104.951 102.791 106.533 104.007C108.253 105.328 113.843 112.599 113.895 112.671L114.673 112.076C114.445 111.768 108.952 104.628 107.128 103.229C105.323 101.836 101.851 101.065 97.5426 103.066C93.528 104.923 87.3818 107.571 85.9826 108.146C84.4068 108.8 83.1384 109.552 82.223 110.376C81.5822 109.356 81.386 108.342 81.641 107.342C81.981 105.995 83.0599 105.066 83.6614 104.792C86.4337 103.55 98.1049 98.783 104.532 98.1814C110.24 97.6518 115.589 105.982 116.007 106.662L116.027 106.688L116.033 106.701L116.046 106.714C121.245 115.044 125.736 122.236 130.418 131.253Z" fill="#FFD934"/>
<path d="M120.159 50.261C120.519 51.4903 120.551 52.9157 120.238 54.5045C120.087 55.3218 119.741 56.126 119.218 56.891C119.021 57.1657 118.812 57.4337 118.583 57.6822C117.557 58.8199 116.131 59.781 114.346 60.546C116.118 57.1722 117.583 53.4976 117.348 50.9149C117.197 48.6657 114.654 47.3318 112.496 47.7503C110.789 47.953 109.122 49.6072 108.324 50.9803C107.344 52.7195 106.369 50.2153 105.245 49.5287L105.147 49.4568C102.296 47.1422 97.196 48.888 97.3137 52.6737C97.4706 55.5114 100.668 59.4083 103.466 62.5533C94.3518 62.658 86.0021 57.3356 82.7983 55.008C82.6871 54.923 82.6283 54.7922 82.6283 54.6549C82.6348 54.5176 82.7067 54.3933 82.8244 54.3214C85.5641 52.6476 90.7883 49.5876 94.9468 47.9399C98.5756 46.4949 102.741 45.5272 106.67 45.2133C107.684 45.1283 108.664 45.0891 109.606 45.0891C112.659 45.0891 115.229 45.5272 116.766 46.3445C118.001 47.0114 118.936 47.8549 119.538 48.8749C119.806 49.2999 120.009 49.751 120.159 50.261Z" fill="white"/>
<path d="M111.764 141.564C112.267 142.368 112.784 143.133 113.3 143.852C111.365 144.035 106.415 144.212 100.988 142.139C97.1438 140.675 93.3319 141.355 89.9711 141.956C87.1203 142.466 84.6554 142.904 83.23 141.701C82.0727 140.727 81.5954 139.354 81.9223 137.922C82.3996 135.849 84.3676 134.136 87.0615 133.456C89.3565 132.874 91.7823 132.554 94.1296 132.253C98.3469 131.704 102.335 131.187 104.532 129.154C106.827 133.391 109.279 137.674 111.764 141.564Z" fill="#FFD934"/>
<path d="M80.4053 107.316C80.5949 108.329 80.3334 109.336 79.6337 110.304C78.7641 109.428 77.5545 108.597 76.0245 107.845C74.6645 107.178 68.6949 104.151 64.8045 102.039C60.6264 99.7768 57.1218 100.326 55.2257 101.594C53.323 102.876 47.386 109.663 47.1376 109.951L47.8764 110.598C47.9353 110.526 53.9703 103.621 55.7749 102.412C57.4291 101.3 60.548 100.849 64.3403 102.902C68.2372 105.014 74.2264 108.061 75.593 108.728C78.411 110.108 80.0914 111.788 80.196 113.331C80.2745 114.475 79.4833 115.26 78.8033 115.718C75.8937 117.679 69.7345 114.443 66.0533 112.514C65.3995 112.167 64.811 111.86 64.3207 111.618C61.4437 110.219 59.5737 111.559 58.8807 112.226L58.7957 112.174L58.5472 112.599C54.428 119.699 49.001 128.801 43.5545 136.222C39.2457 142.251 35.0676 144.918 31.151 144.166C28.686 143.689 26.718 141.518 26.4564 138.988C26.0707 135.47 28.0126 131.828 30.2095 128.095C35.4599 119.392 40.3964 112.494 46.1176 104.511L46.1699 104.432C46.706 103.693 51.5576 97.181 56.6445 96.6906L57.0041 96.6645C57.3834 96.6448 57.7626 96.6645 58.1418 96.7233C64.5168 97.7302 75.861 103.229 78.5484 104.648C79.1303 104.955 80.1503 105.949 80.4053 107.316Z" fill="#FFD934"/>
<path d="M78.1887 137.818C78.4241 139.263 77.8618 140.61 76.6457 141.505C75.1418 142.617 72.7161 142.022 69.9045 141.335C66.583 140.525 62.8234 139.603 58.8938 140.825C53.3557 142.545 48.4257 142.055 46.4968 141.754C47.0591 141.067 47.6149 140.341 48.1707 139.563C50.9037 135.843 53.6238 131.717 56.1738 127.637C58.2399 129.801 62.1891 130.573 66.3607 131.384C68.6884 131.841 71.088 132.306 73.3372 133.031C75.9853 133.881 77.8422 135.719 78.1887 137.818Z" fill="#FFD934"/>
<path d="M67.4722 73.8452L68.0018 74.6756C67.8775 74.7541 65.0398 76.6175 64.8895 80.6975C64.7848 83.7248 66.4718 86.556 66.4914 86.5821L65.6479 87.0921C65.576 86.9614 63.7975 83.9798 63.9087 80.6583C64.0787 76.0487 67.3348 73.9368 67.4722 73.8452Z" fill="#062733"/>
<path d="M63.1307 35.2096L66.9949 36.7461C65.1053 39.878 63.6342 43.3107 62.7449 46.7173C62.4246 47.9204 62.1957 49.0777 62.0519 50.163L57.8869 48.5023C57.4488 48.3323 57.1023 47.9988 56.9127 47.5673C56.7296 47.1357 56.7165 46.6584 56.893 46.2204L60.8488 36.1969C61.0188 35.7588 61.3523 35.4188 61.7838 35.2292C62.2153 35.0396 62.6926 35.033 63.1307 35.2096Z" fill="#7356FB"/>
<path d="M59.1487 113.514L62.3787 115.391C58.2333 122.524 52.8326 131.554 47.3795 138.988C42.7045 145.513 37.8072 148.887 32.8183 149.011C31.9683 149.031 31.1118 148.959 30.2553 148.796C25.7241 147.926 22.2326 144.101 21.7684 139.485C21.2191 134.548 23.6383 129.958 26.1557 125.682C31.4257 116.94 36.336 110.062 41.9918 102.163L45.0322 104.334C39.4222 112.167 34.551 118.993 29.366 127.591C27.0776 131.475 25.0637 135.274 25.4822 139.086C25.783 142.035 28.0845 144.578 30.9614 145.128C35.2899 145.964 39.8014 143.159 44.3522 136.798C49.7137 129.488 55.0491 120.569 59.1487 113.514Z" fill="#7356FB"/>
<path d="M58.266 40.074L57.6645 41.5975L56.6379 41.1659C54.5325 40.2833 53.1791 38.2367 53.1791 35.9548V11.0694C53.4341 11.1609 53.7087 11.2198 53.9899 11.2198C54.271 11.2198 54.5522 11.1609 54.8137 11.0629V35.9548C54.8137 37.5763 55.7748 39.0344 57.2656 39.6556L58.266 40.074Z" fill="#2CCCFF"/>
<path d="M55.3564 8.87916C55.3564 9.23878 55.2126 9.57878 54.9576 9.83378C54.4345 10.3503 53.5518 10.3569 53.0287 9.84032C52.7672 9.58532 52.6299 9.24532 52.6299 8.87916C52.6299 8.12724 53.238 7.51917 53.9899 7.51917C54.7418 7.51917 55.3564 8.12724 55.3564 8.87916Z" fill="#7356FB"/>
<path d="M39.0234 148.266C38.7488 148.724 38.4676 149.194 38.1799 149.672C35.0284 154.961 31.7722 160.434 25.0376 159.434C22.0822 159.139 19.3165 157.524 17.4465 155.001C15.6811 152.621 15.0011 149.822 15.5372 147.135C16.2368 143.872 18.1984 140.91 20.1011 138.053C20.3168 137.726 20.5326 137.399 20.7484 137.066C20.6961 137.896 20.6961 138.733 20.7942 139.589C21.3042 144.624 25.1161 148.809 30.0722 149.757C30.8895 149.914 31.7134 149.992 32.5307 149.992H32.838C34.9303 149.94 36.9965 149.358 39.0234 148.266Z" fill="#134577"/>
<path d="M31.8179 76.428C33.9364 80.2268 29.7256 90.806 28.4572 91.7541L28.3264 91.8522H28.1564C26.9795 91.8326 23.0106 88.596 22.566 88.2299C21.1995 87.1053 17.9368 84.2872 17.0083 82.3518C16.2629 80.8676 16.4722 79.2853 17.5576 78.2326C18.7149 77.1145 20.5325 76.9314 22.0822 77.7749C22.9583 78.2064 23.8672 78.9845 24.7629 80.0764C24.8806 80.2203 24.9852 80.351 25.0833 80.4753C25.1422 79.0237 25.286 77.023 26.3256 76.1206C27.0645 75.2903 28.2872 74.8326 29.4641 74.9568C30.4972 75.0614 31.3537 75.5976 31.8179 76.428ZM28.006 90.8191C29.0979 89.4133 32.7333 80.083 30.9614 76.9053C30.5429 76.1599 29.7845 75.9703 29.366 75.931C28.4833 75.8395 27.5745 76.1795 27.0448 76.7876L26.986 76.8464C26.1818 77.5133 26.0968 79.6383 26.051 80.776C26.0379 81.0703 26.0314 81.3253 26.0118 81.5083L25.9529 81.7045C25.8614 81.9006 25.6979 82.0183 25.5018 82.0445C25.1095 82.0903 24.8675 81.7895 24.351 81.1291C24.2464 80.9983 24.1287 80.8545 24.0045 80.6976C23.2002 79.7168 22.4025 79.0237 21.631 78.6445C21.0948 78.3503 20.5652 78.226 20.0748 78.226C19.3229 78.226 18.6625 78.5268 18.2375 78.9387C17.4595 79.6906 17.3287 80.8022 17.891 81.9203C19.2379 84.7449 26.5152 90.2568 28.006 90.8191Z" fill="#062733"/>
<path d="M30.9615 76.9053C32.7334 80.083 29.098 89.4133 28.0061 90.8191C26.5153 90.2568 19.238 84.7449 17.8911 81.9203C17.3287 80.8022 17.4595 79.6906 18.2376 78.9387C18.6626 78.5268 19.323 78.226 20.0749 78.226C20.5653 78.226 21.0949 78.3503 21.6311 78.6445C22.4026 79.0237 23.2003 79.7168 24.0045 80.6976C24.1287 80.8545 24.2464 80.9983 24.3511 81.1291C24.8676 81.7895 25.1095 82.0903 25.5018 82.0445C25.698 82.0183 25.8614 81.9006 25.953 81.7045L26.0118 81.5083C26.0314 81.3253 26.038 81.0703 26.0511 80.776C26.0968 79.6383 26.1818 77.5133 26.9861 76.8464L27.0449 76.7876C27.5745 76.1795 28.4834 75.8395 29.3661 75.931C29.7845 75.9703 30.543 76.1599 30.9615 76.9053Z" fill="#FF84ED"/>
<path d="M78.3587 33.3722C69.9503 42.8398 71.6045 58.3033 71.6045 58.3033C71.6045 58.3033 62.2283 60.6768 58.266 70.4845C53.591 82.0249 59.7503 92.4929 65.6153 97.8414C62.9672 96.8737 60.3779 96.0825 58.2922 95.7491C57.8606 95.6837 57.4291 95.6575 56.9976 95.6772C51.381 90.5706 48.3864 84.3002 48.0922 77.0164C47.5429 63.3183 54.9706 54.426 59.6129 50.2414L61.9406 51.1698C61.9145 51.4379 61.8883 51.706 61.8753 51.9675C61.8556 52.4056 61.8491 52.8633 61.8622 53.3537L62.8429 53.3275C62.8299 52.8568 62.843 52.4318 62.856 52.0198C62.8756 51.6602 62.9018 51.2875 62.9476 50.9018C63.0783 49.6791 63.3268 48.3518 63.693 46.9591C64.6083 43.4675 66.1383 39.9433 68.126 36.7591C68.3156 36.4518 68.5183 36.1445 68.7341 35.8306C71.8268 31.1883 78.666 23.401 89.7487 23.401H89.7618C93.7568 23.4075 97.3137 24.2379 100.334 25.8725C101.544 26.5264 88.5456 21.9037 78.3587 33.3656V33.3722Z" fill="#FDFF92"/>
<path d="M126.979 25.1925C111.98 23.7933 108.756 32.9537 108.756 32.9537C108.534 32.5548 108.285 32.1364 108.011 31.7179C107.102 30.3252 106.036 29.0633 104.846 27.9452C106.795 26.716 114.314 22.4791 123.389 24.1987H123.441C124.102 24.3294 124.762 24.4798 125.403 24.6629C125.952 24.8198 126.475 24.9964 126.979 25.1925Z" fill="#FDFF92"/>
<path d="M107.586 39.2109C107.154 39.2305 106.271 39.2959 106.271 39.2959C100.348 34.4967 89.0099 36.5498 78.4961 39.2698C78.6203 39.2044 79.1892 38.9494 80.0784 38.5832L80.3857 38.459C85.5707 36.3863 101.472 30.9398 109.802 37.9948L109.887 38.0732C110.299 38.4263 110.685 38.8251 111.051 39.2371C109.972 39.1586 108.815 39.1455 107.586 39.2109Z" fill="#FDFF92"/>
<path d="M143.861 38.9689C142.122 38.7662 140.396 38.6747 138.702 38.6747C138.702 38.6747 136.715 37.1774 133.792 36.5235C129.326 35.5297 125.756 35.5428 115.321 36.8766C115.412 36.8374 115.785 36.7001 116.4 36.5039L117.08 36.2947C120.061 35.4316 126.24 34.1239 134.08 35.0132C135.276 35.157 136.316 35.3139 137.257 35.5035C142.442 36.5301 144.731 38.2105 145.692 39.2566C145.116 39.1389 144.508 39.0474 143.861 38.9689Z" fill="#FDFF92"/>
<path d="M148.484 95.1998C146.888 97.3902 144.77 99.6656 140.795 101.915C136.564 104.301 127.45 107.361 123.232 107.479C122.951 107.021 122.663 106.564 122.369 106.099C136.061 103.216 141.285 96.3833 141.285 96.3833C144.077 96.1544 146.326 95.8079 148.026 95.3371C148.19 95.2914 148.34 95.2456 148.484 95.1998Z" fill="#FDFF92"/>
</svg>
