<svg width="170" height="170" viewBox="0 0 170 170" fill="none" xmlns="http://www.w3.org/2000/svg">
<path d="M95.4323 117.862C95.21 118.837 94.4254 120.55 91.6596 121.798C85.3892 124.617 62.8708 126.009 49.2969 123.518C43.8177 122.505 41.0454 120.582 39.6854 119.15C38.9858 118.412 38.5869 117.732 38.3516 117.215C39.8554 117.673 41.3658 118.072 42.7715 118.372C47.5838 119.405 58.2415 120.955 70.0892 120.955C78.4977 120.955 87.4946 120.17 95.4323 117.862Z" fill="#FFD934"/>
<path d="M118.173 92.3165C118.225 93.6569 117.748 95.3831 116.264 96.2461C111.706 97.6454 82.8588 97.4885 56.6853 95.3046L56.6068 96.2788C71.8545 97.5538 87.6645 98.1423 99.3226 98.1423C107.744 98.1423 113.988 97.835 116.283 97.2531C116.846 97.9854 117.075 98.9596 116.898 99.9142C116.636 101.333 115.525 102.588 113.766 103.465C107.607 105.341 76.281 104.491 62.1907 102.942C55.7699 102.242 51.4741 100.3 50.0945 97.4819C49.2837 95.8277 49.4995 93.8988 50.7222 91.9177C52.723 88.6615 55.9203 88.8773 65.4011 89.5311C67.4672 89.675 69.8015 89.8385 72.4691 89.9823C92.418 91.0808 112.805 90.2896 116.806 89.4331C117.591 89.8842 118.127 90.9892 118.173 92.3165Z" fill="#FF84ED"/>
<path d="M156.188 81.5673C158.018 86.3992 160.523 93.0096 157.979 97.0569C156.279 100.32 153.075 102.673 149.205 103.484C148.257 103.68 147.308 103.778 146.373 103.778C143.47 103.778 140.705 102.843 138.508 101.065C135.82 98.8942 133.565 92.5127 132.447 88.8577C130.093 86.9092 127.569 84.0192 125.084 80.7107C124.064 80.8415 120.331 81.2861 115.571 81.6261C116.466 83.7315 117.042 86.3142 117.231 87.7004L117.277 88.0665C117.297 88.243 117.323 88.4196 117.343 88.6027C118.408 89.2369 119.095 90.6165 119.154 92.2773C119.213 93.7746 118.709 95.6838 117.186 96.815C117.826 97.7434 118.075 98.9334 117.859 100.097C117.545 101.797 116.277 103.288 114.289 104.302C114.008 104.713 113.746 105.125 113.478 105.531C111.994 107.826 110.464 110.193 107.103 112.671C104.606 114.515 101.559 115.757 98.9107 116.731C98.1065 117.025 97.2892 117.3 96.4719 117.548C96.3673 118.549 95.733 121.033 92.0649 122.694C87.9784 124.532 77.1442 125.78 66.2838 125.78C60.1769 125.78 54.0569 125.388 49.1138 124.479C39.5546 122.72 37.5604 118.261 37.1615 116.842C37.0569 116.81 36.9457 116.77 36.8411 116.738C27.55 113.632 11.8511 105.799 11.1449 88.1777C10.5957 74.4207 17.8469 65.3846 22.633 60.958L21.5542 60.5265C20.8742 60.265 20.3381 59.7419 20.0438 59.0684C19.7496 58.395 19.743 57.6561 20.0176 56.9761L21.3384 53.6219L20.2857 53.1838C17.8207 52.1442 16.2253 49.7446 16.2253 47.0704V21.4788C15.8788 21.0603 15.6761 20.5438 15.6761 19.9946C15.6761 18.7 16.7288 17.6538 18.0169 17.6538C19.305 17.6538 20.3642 18.7 20.3642 19.9946C20.3642 20.5373 20.168 21.0538 19.8215 21.4723V47.0704C19.8215 48.293 20.5538 49.3915 21.6784 49.8623L22.6592 50.2742L23.9669 46.9527C24.235 46.2727 24.7515 45.7365 25.425 45.4423C26.0984 45.148 26.8438 45.1415 27.5238 45.4096L31.3096 46.9134C33.2384 43.1473 35.213 39.4792 36.5796 37.1384C36.8215 36.7592 37.0634 36.3473 37.2857 35.955C38.0181 34.6996 38.3188 34.183 38.8288 34.255C38.9138 34.268 39.2211 34.3465 39.3127 34.7453C39.3715 35.0527 39.6592 36.3603 40.0907 38.1977C41.235 36.9684 43.7261 34.4838 45.9884 33.4507C48.8784 32.143 52.6315 32.3261 57.823 32.5811C59.6342 32.6661 61.2165 32.725 62.6223 32.7773C68.6573 32.9865 71.2988 33.0846 73.195 35.1246C76.438 33.8561 83.8069 32.3 90.6919 34.8042L90.6788 34.8369C95.55 33.078 102.2 31.718 104.763 31.718C110.203 31.718 113.053 34.1961 113.688 34.8238C113.864 34.8369 114.041 34.8565 114.211 34.8761V21.4723C113.871 21.0538 113.675 20.5373 113.675 19.9946C113.675 18.7 114.727 17.6538 116.015 17.6538C117.303 17.6538 118.356 18.7 118.356 19.9946C118.356 20.5438 118.16 21.0603 117.807 21.4788V35.9353C123.345 38.3938 129.171 44.5073 134.343 51.3073C134.617 51.2942 134.885 51.2811 135.16 51.268C136.108 51.2157 137.004 51.17 137.945 51.2092C139.142 51.2615 139.475 51.6603 139.966 52.36C140.025 52.4515 140.097 52.543 140.175 52.6542C143.222 56.9761 145.752 60.7161 148.989 66.045C149.433 66.8557 149.917 67.6992 150.427 68.5688C152.33 71.8642 154.566 75.7415 155.416 79.488C155.645 80.1288 155.906 80.8219 156.188 81.5673ZM157.129 96.573C159.235 93.2188 157.41 87.635 155.736 83.1561C155.723 83.3261 155.717 83.4896 155.697 83.6596C155.351 86.5038 153.415 88.91 150.257 90.4269C147.949 91.5319 145.197 92.0746 142.47 92.0746C139.305 92.0746 136.167 91.3357 133.8 89.8907C135.526 95.1804 137.442 98.94 139.122 100.3C141.803 102.464 145.399 103.275 149.002 102.523C152.585 101.778 155.547 99.6069 157.129 96.573ZM154.723 83.5353C154.88 82.3388 154.769 81.0769 154.481 79.7823C154.442 79.6777 154.403 79.56 154.363 79.4619L154.403 79.4488C153.54 75.9246 151.402 72.2173 149.577 69.0657C149.067 68.183 148.577 67.3396 148.139 66.5353C144.928 61.2523 142.405 57.5254 139.377 53.223C139.299 53.1184 139.227 53.0138 139.162 52.9223C138.756 52.3403 138.671 52.2227 137.9 52.19C137.01 52.1507 136.134 52.19 135.212 52.2488C135.16 52.2488 135.108 52.2488 135.055 52.2488C143.425 63.495 149.891 76.2253 150.225 77.3565C150.78 79.4357 150.094 81.4038 148.479 82.3846C147.067 83.2411 144.7 83.3719 142.28 81.1619C138.821 78.0038 135.48 73.6165 131.95 68.9677L131.041 67.7777C129.118 65.2473 127.059 62.4815 124.921 59.5523C124.672 59.2646 124.47 58.9573 124.293 58.6957C123.973 58.2053 123.737 57.8457 123.247 57.6234C119.997 56.9434 114.577 55.9757 111.275 55.5377C113.426 60.8207 125.725 83.13 134.277 89.0277C138.396 91.5842 145.092 91.8065 149.832 89.5377C151.846 88.57 154.331 86.7457 154.723 83.5288V83.5353ZM147.969 81.5542C149.198 80.8023 149.715 79.2657 149.283 77.6311C149.021 76.755 143.673 66.3327 136.683 56.2896C134.898 53.72 132.891 51.013 130.753 48.4303C125.28 41.833 118.977 36.0857 113.433 35.785C110.105 35.8765 105.403 37.0142 102.167 37.8642L101.238 38.1388C96.8773 39.4334 91.9408 40.898 88.7827 42.6896C88.0438 43.1407 87.5469 43.8077 87.403 44.5596C87.2526 45.3246 87.4815 46.1354 88.0569 46.9069C88.8349 47.8746 90.0773 48.4173 91.2346 48.8684C91.9669 46.593 94.8961 44.9977 99.375 43.1734C99.9896 42.9184 100.67 42.6307 101.395 42.3169C105.469 40.5711 111.04 38.1846 115.329 38.6161C119.768 39.0673 125.307 44.7623 129.06 49.2803C131.466 52.1834 133.126 54.5961 133.296 54.8446L132.486 55.4003C132.388 55.25 122.063 40.2834 115.231 39.5903C111.19 39.185 105.756 41.5192 101.781 43.2192C101.049 43.533 100.369 43.8273 99.7477 44.0823C95.6088 45.7627 92.7319 47.2861 92.15 49.215C91.8819 50.1042 92.1173 51.0653 92.8692 52.1703C94.4646 54.5177 99.715 52.4123 104.795 50.3723C107.895 49.13 111.098 47.8419 113.511 47.5934C116.767 47.26 123.574 56.0804 124.666 57.5319C124.829 57.728 124.966 57.9438 125.117 58.1596C125.28 58.4146 125.457 58.6827 125.692 58.9573C127.843 61.9061 129.903 64.6653 131.819 67.1892L132.728 68.3857C136.232 72.9888 139.547 77.3434 142.941 80.4427C144.961 82.2865 146.864 82.2277 147.969 81.5542ZM109.843 80.9723C116.375 80.7107 122.292 80.0569 124.411 79.8084C121.887 76.3561 119.435 72.5442 117.29 68.9546C116.297 69.4842 111.896 71.6092 103.815 72.1715C97.0015 72.6488 95.4846 73.4923 95.6938 76.683C95.9161 79.9784 100.415 81.345 109.843 80.9723ZM116.264 96.2461C117.748 95.383 118.225 93.6569 118.173 92.3165C118.127 90.9892 117.591 89.8842 116.807 89.433C112.805 90.2896 92.418 91.0807 72.4692 89.9823C69.8015 89.8384 67.4673 89.675 65.4011 89.5311C55.9204 88.8773 52.723 88.6615 50.7223 91.9177C49.4996 93.8988 49.2838 95.8277 50.0946 97.4819C51.4742 100.3 55.77 102.242 62.1907 102.942C76.2811 104.491 107.607 105.341 113.766 103.465C115.525 102.588 116.637 101.333 116.898 99.9142C117.075 98.9596 116.846 97.9854 116.283 97.2531C113.988 97.835 107.744 98.1423 99.3227 98.1423C87.6646 98.1423 71.8546 97.5538 56.6069 96.2788L56.6853 95.3046C82.8588 97.4884 111.706 97.6453 116.264 96.2461ZM110.595 54.4719C113.537 54.8184 119.003 55.7665 122.613 56.4988C119.631 52.8111 115.42 48.3846 113.609 48.5742C111.87 48.7507 109.621 49.5288 107.3 50.4377L110.458 54.4523L110.595 54.4719ZM116.977 20.9557C117.238 20.7007 117.375 20.3607 117.375 19.9946C117.375 19.2427 116.767 18.6346 116.015 18.6346C115.263 18.6346 114.655 19.2427 114.655 19.9946C114.655 20.3542 114.793 20.6942 115.048 20.9557C115.571 21.4592 116.453 21.4723 116.977 20.9557ZM116.826 35.543V22.1784C116.571 22.2765 116.296 22.3353 116.015 22.3353C115.734 22.3353 115.453 22.2765 115.191 22.1784V35.0527C115.734 35.1769 116.283 35.3403 116.826 35.543ZM116.342 88.5307C116.329 88.413 116.316 88.3019 116.303 88.1907L116.257 87.8246C116.068 86.4254 115.46 83.7577 114.531 81.7046C113.047 81.8027 111.484 81.8877 109.882 81.953C108.869 81.9923 107.908 82.0119 106.999 82.0119C98.78 82.0119 94.9615 80.3511 94.7196 76.7484C94.6803 76.1927 94.6934 75.6957 94.7588 75.2511C91.1365 74.885 88.168 74.1265 88.1419 74.12L88.3838 73.1653C88.3838 73.1653 91.4046 73.9434 95.0269 74.2965C95.9423 72.0407 98.8257 71.5373 103.749 71.1907C111.451 70.6546 115.793 68.6211 116.787 68.1046C116.022 66.81 115.303 65.548 114.636 64.3515C114.512 65.9338 112.988 66.8492 109.582 67.3853C108.097 67.6207 106.221 67.7907 103.841 67.9019C102.925 67.9477 101.964 67.9738 100.957 67.9738C99.1527 67.9738 97.2042 67.9019 95.1184 67.758C90.4957 67.4638 86.4092 66.895 84.7288 66.6465C85.1342 68.1046 84.8923 69.5823 83.9965 70.9684C82.1984 73.7603 78.1249 75.7284 75.4703 76.1992C76.0196 76.9577 76.2484 77.9777 76.1569 79.3638C75.9149 82.96 72.0965 84.6207 63.8711 84.6207C62.9623 84.6207 62.0011 84.6011 60.9877 84.5619C54.0765 84.2873 49.5127 83.8296 48.2311 83.6857C46.5507 86.955 44.7788 89.5377 42.2354 91.2442C40.385 94.7161 37.8611 98.9007 34.8011 100.516C33.0161 101.464 31.0284 101.935 29.0015 101.935C27.2165 101.935 25.3988 101.568 23.6596 100.836C19.9588 99.2669 17.2192 96.2919 16.1534 92.6696C14.2507 87.7003 17.86 81.5346 20.495 77.0296L20.9134 76.3169C20.9069 71.0273 22.5023 65.9861 24.3265 61.6315L23.6465 61.3634C19.0042 65.548 11.5765 74.4338 12.1257 88.1384C12.8057 105.171 28.0992 112.782 37.155 115.809C37.3773 115.888 37.5996 115.953 37.8154 116.025C39.5611 116.587 41.3396 117.065 42.9742 117.411C51.2257 119.177 76.7846 122.498 95.7657 116.744C96.7007 116.463 97.6488 116.149 98.5707 115.809C101.284 114.815 104.128 113.652 106.521 111.88C109.738 109.513 111.157 107.322 112.655 105.001C112.726 104.897 112.798 104.785 112.864 104.681C109.693 105.289 103.769 105.531 96.9034 105.531C84.8661 105.531 69.9584 104.785 62.0861 103.916C53.4161 102.968 50.3038 100.13 49.2184 97.9134C48.2507 95.9388 48.4796 93.6896 49.8853 91.4077C52.1999 87.6415 55.8092 87.89 65.473 88.5569C67.5261 88.6942 69.8603 88.8577 72.528 89.008C92.0126 90.0804 111.87 89.3546 116.342 88.5307ZM113.668 64.188C113.714 62.9915 113.289 61.808 110.039 61.2523C110.222 61.9192 110.32 62.6253 110.32 63.3577C110.32 64.4169 110.105 65.4304 109.732 66.3654C113.165 65.7769 113.648 64.9007 113.668 64.188ZM112.883 61.115C111.713 58.8919 110.85 57.0807 110.386 55.9496L106.345 50.8103C105.946 50.9673 105.554 51.1242 105.155 51.2811C99.7215 53.465 94.0984 55.7207 92.0584 52.7196C91.8949 52.4842 91.7577 52.2423 91.6334 52.0069C88.1419 52.7915 85.8077 53.8965 83.9834 54.91C84.2907 55.3284 84.5327 55.76 84.6896 56.1915C85.2584 57.7607 85.18 59.2123 84.9773 60.2519C86.2523 60.1538 89.3711 59.9707 94.7 59.8857C96.3477 59.8596 98.2373 59.8465 100.323 59.8465C104.344 59.8465 107.607 59.8727 109.961 60.2388C110.961 60.3957 112.02 60.6377 112.883 61.115ZM112.21 34.8761C111.007 34.013 108.555 32.6988 104.763 32.6988C100.258 32.6988 87.1088 36.2492 86.0431 38.4853C85.6246 39.355 85.5461 40.1527 85.8076 40.8588C86.1607 41.8134 87.0434 42.3692 87.3965 42.5588C87.6515 42.2907 87.9457 42.0488 88.2857 41.8461C91.555 39.9892 96.5504 38.505 100.957 37.1973L101.899 36.9227C104.828 36.1511 108.901 35.1638 112.21 34.8761ZM91.6596 121.798C94.4253 120.55 95.21 118.837 95.4323 117.862C87.4946 120.17 78.4977 120.955 70.0892 120.955C58.2415 120.955 47.5838 119.405 42.7715 118.372C41.3657 118.072 39.8554 117.673 38.3515 117.215C38.5869 117.732 38.9857 118.412 39.6853 119.15C41.0453 120.582 43.8177 122.505 49.2969 123.518C62.8707 126.009 85.3892 124.617 91.6596 121.798ZM94.9092 66.7642C94.4188 65.7246 94.1376 64.5738 94.1376 63.3577C94.1376 62.488 94.2815 61.6511 94.5365 60.8665C88.7827 60.9646 85.6703 61.1738 84.7157 61.2523C84.6896 61.3242 84.67 61.383 84.6504 61.4419C85.0557 61.8604 85.3434 62.3965 85.4677 63.0111C85.6507 63.9265 85.448 64.8942 84.9315 65.6854C86.5923 65.9338 90.4827 66.4634 94.9092 66.7642ZM91.2542 51.0915C91.1234 50.6665 91.058 50.2611 91.0646 49.8557C89.7438 49.3392 88.2726 48.7442 87.2788 47.5084C87.0238 47.1619 86.8277 46.8088 86.6773 46.4557C84.8203 46.5734 82.7934 46.92 81.113 47.4103L80.433 47.613C80.2565 47.6719 80.1061 47.7177 79.9753 47.7634C80.3611 48.8096 80.3219 49.908 79.8511 50.9804C79.7792 51.183 79.6811 51.3792 79.57 51.5688C81.028 52.1638 82.3749 53.0988 83.3492 54.1384C85.9711 52.6738 88.3707 51.7519 91.2542 51.0915ZM85.1538 38.0669C85.5853 37.1711 87.1677 36.2361 89.2731 35.373C83.1792 33.5488 76.8826 34.8042 73.8292 35.9288C74.6465 37.2234 74.5942 38.4723 74.4569 39.1784C76.2942 39.7473 77.7327 40.6888 78.5565 41.918C79.3869 43.1669 79.5503 44.6446 79.0273 46.1942H79.0077C79.2038 46.4034 79.3738 46.6388 79.5242 46.8807C79.6942 46.8219 79.8969 46.7565 80.1388 46.678L80.8319 46.4688C82.5253 45.9784 84.5457 45.6319 86.4092 45.4946C86.3634 45.1219 86.37 44.7427 86.4419 44.37C86.5073 44.0169 86.638 43.6769 86.8146 43.3565C86.2915 43.0492 85.3238 42.3627 84.8923 41.2053C84.5327 40.2442 84.6176 39.185 85.1538 38.0669ZM83.663 65.6723C84.3627 65.0315 84.683 64.0834 84.5065 63.2007C84.3561 62.4488 83.8592 61.8734 83.1465 61.6119C81.7865 61.1215 79.9427 60.8665 77.53 60.8273C78.0988 61.9388 78.4257 63.2007 78.4257 64.5346C78.4257 65.4696 78.2557 66.3719 77.9615 67.2088C82.1199 66.6007 83.323 65.9861 83.663 65.6723ZM83.8134 60.8338C84.075 60.0165 84.4215 58.3427 83.7676 56.525C83.1857 54.9296 81.185 53.223 78.9488 52.3796C77.6215 53.72 75.3134 54.3084 73.2865 54.158C71.7957 54.158 70.2657 54.0992 68.788 54.0534C66.8069 53.988 64.7538 53.9292 62.6484 53.9553C61.0727 53.9815 59.6473 54.6092 58.405 55.8254C56.5023 57.6234 55.175 59.9119 53.985 62.233C56.4565 61.7688 59.5426 61.3111 62.8119 60.9253C63.5442 60.8403 64.3026 60.7553 65.0873 60.6703C70.0042 60.1473 73.9534 59.8073 77.2554 59.8465C79.923 59.8661 81.963 60.1407 83.4799 60.69C83.5976 60.7292 83.7088 60.7815 83.8134 60.8338ZM83.1727 70.4388C83.9507 69.2423 84.1404 68.0065 83.7546 66.7707C82.715 67.3265 80.773 67.8038 77.8372 68.2223C73.4173 68.8434 68.1146 69.1377 67.2515 69.1638C66.3557 69.203 65.4403 69.2227 64.5184 69.2227C64.1523 69.2227 63.7796 69.2161 63.4134 69.2161C59.6211 69.1704 56.1884 68.9153 52.9584 68.438C53.3115 69.1703 53.5992 69.9354 53.6842 70.72C55.1096 71.3804 59.8172 73.2961 67.1273 73.8061C70.5926 74.048 73.0446 74.3684 74.5157 75.323C76.5427 75.238 81.2896 73.355 83.1727 70.4388ZM78.9423 50.6142C79.3803 49.6073 79.3542 48.6069 78.8638 47.6784C78.1707 46.3511 76.5949 45.2788 74.8557 44.9519C72.9988 44.5727 71.3642 44.3765 69.638 44.1803C68.7227 44.0692 67.7942 43.9646 66.8069 43.8273C60.3011 42.9838 56.2342 42.8596 53.4227 44.6054C50.2057 46.3838 46.2434 50.6207 44.1707 53.7723C44.4584 54.6877 44.733 55.4854 44.9815 56.1261C45.0338 56.2961 45.0861 56.4465 45.1449 56.5969C45.3803 57.218 45.6746 57.9961 45.243 58.6696L41.4638 66.1627C40.3523 68.5034 39.2538 70.5957 38.1946 72.6161C36.4684 75.9115 34.9777 78.7557 33.8465 81.8484C33.3561 83.6596 33.7092 85.4053 34.775 86.3796C35.468 87.04 36.2853 87.2884 37.2269 87.1184C39.28 86.7523 41.3461 84.5684 42.255 82.705C43.5953 80.2007 47.8715 72.0015 50.8138 66.3C50.8007 66.2738 50.7877 66.2411 50.7746 66.215L50.8726 66.1757C51.35 65.2604 51.7815 64.4103 52.1673 63.665L52.2653 63.4623C53.6646 60.6507 55.2469 57.46 57.725 55.1192C59.1242 53.7461 60.8242 53.0007 62.6353 52.9746C64.7603 52.9419 66.8265 53.0073 68.8207 53.0727C70.2919 53.1184 71.8154 53.1707 73.3257 53.1773C75.5684 53.3407 78.2753 52.4973 78.9423 50.6142ZM78.223 45.4423C78.4911 44.3438 78.3277 43.3434 77.7392 42.4607C76.6734 40.8653 74.228 39.7865 71.2138 39.5773C70.0696 39.4988 69.0169 39.4203 68.0165 39.3484C65.8392 39.185 63.8842 39.0411 61.6742 38.9365C59.4642 38.8319 56.9861 38.7665 53.7626 38.7665C48.7346 38.7665 43.5496 44.8603 42.1634 46.6127C42.7061 48.705 43.275 50.7842 43.8046 52.5692C46.0015 49.4438 49.7088 45.5403 52.9257 43.7553C55.9727 41.8723 60.203 41.9834 66.9376 42.853C67.9184 42.9903 68.8403 43.1015 69.7492 43.2061C71.5015 43.4088 73.1557 43.5984 75.0454 43.9842C76.2419 44.213 77.3403 44.7361 78.223 45.4423ZM75.1761 79.2984C75.3919 76.1011 73.8684 75.2577 67.0553 74.7803C60.0853 74.2965 55.4953 72.5965 53.658 71.7923C53.5861 72.2107 53.4488 72.6357 53.2134 73.0607C52.3569 74.8392 51.5919 76.5261 50.8531 78.1542C50.1077 79.7954 49.408 81.3319 48.7084 82.7507C50.343 82.9207 54.6911 83.3327 61.0269 83.5811C70.4619 83.9538 74.9538 82.5938 75.1761 79.2984ZM73.5088 38.9234C73.6199 38.3023 73.6265 37.1515 72.6849 36.0203C71.0503 34.0523 68.5723 33.9673 62.583 33.7515C61.1773 33.7057 59.5884 33.6469 57.7773 33.5619C52.723 33.3134 49.068 33.1303 46.3938 34.3465C43.955 35.458 41.0715 38.5638 40.3653 39.3484C40.7903 41.1334 41.3069 43.2584 41.8561 45.4227C42.8238 44.2523 44.5369 42.343 46.6423 40.728C48.7477 39.113 51.2388 37.7857 53.7626 37.7857C60.2488 37.7857 63.7077 38.0473 68.0884 38.3677C69.0888 38.4461 70.135 38.518 71.2792 38.5965C72.0638 38.6553 72.8092 38.7665 73.5088 38.9234ZM63.1453 68.2288C62.5765 67.1173 62.2496 65.8619 62.2496 64.5346C62.2496 63.6192 62.4065 62.7496 62.6876 61.9323C59.183 62.3442 55.9204 62.8411 53.4227 63.3446C53.3311 63.5277 53.233 63.7173 53.1415 63.9003L53.0434 64.103C52.6969 64.7765 52.3111 65.5219 51.8992 66.3327C52.0496 66.6596 52.2326 66.9996 52.4157 67.3527C55.7242 67.8888 59.2419 68.17 63.1453 68.2288ZM52.3438 72.603C53.2265 71.0207 52.37 69.3861 51.5461 67.8104C51.4742 67.673 51.4088 67.5423 51.3369 67.4115C48.4142 73.0804 44.4061 80.7565 43.1311 83.1496C42.0981 85.268 39.7965 87.6546 37.3969 88.0861C36.1546 88.3084 35.0169 87.9684 34.108 87.0923C32.7742 85.8827 32.3165 83.7577 32.9115 81.5542C34.0754 78.3569 35.6577 75.3492 37.325 72.1584C38.3842 70.1446 39.4761 68.0653 40.5811 65.7311L44.393 58.1792C44.5827 57.8784 44.393 57.3815 44.2296 56.9434C44.1642 56.7734 44.0988 56.6034 44.053 56.4465C43.2227 54.3084 42.1373 50.4573 41.1369 46.593L41.0126 46.5015C41.0126 46.5015 41.0519 46.4427 41.0911 46.3969C39.9534 41.9965 38.94 37.6223 38.528 35.7784C38.3973 35.9942 38.26 36.2361 38.1357 36.4453C37.9004 36.8507 37.6519 37.2823 37.4165 37.6484C35.1149 41.6107 31.0153 49.4046 28.4326 55.0473C28.2038 55.5246 27.9749 56.015 27.733 56.5184C25.1569 61.9257 21.6326 69.3273 21.8942 77.1538C21.8615 81.43 24.4769 86.1442 28.5569 89.1911C32.0419 91.7934 35.965 92.6892 39.3257 91.6627C44.5369 89.7011 46.8123 84.6861 49.9573 77.7488C50.6961 76.1142 51.4676 74.4207 52.3438 72.603ZM40.6073 92.1792C40.2934 92.323 39.9796 92.4604 39.6461 92.5846C38.6261 92.8984 37.5669 93.0554 36.4815 93.0554C33.6503 93.0554 30.6754 91.9961 27.975 89.9757C23.9669 86.9877 21.2992 82.4565 20.9592 78.1869C18.4746 82.45 15.4211 88.0207 17.0819 92.3557C18.0757 95.7361 20.6127 98.4823 24.0388 99.9273C27.4911 101.385 31.2442 101.287 34.3434 99.6527C36.7888 98.3646 38.9203 95.1804 40.6073 92.1792ZM30.8584 47.7961L27.1577 46.3184C26.7261 46.1484 26.2488 46.155 25.8173 46.3446C25.3857 46.5277 25.0523 46.8742 24.8823 47.3123L20.9265 57.3357C20.75 57.7738 20.7565 58.2511 20.9461 58.6761C21.1292 59.1142 21.4757 59.4411 21.9138 59.6177L24.7123 60.7292C25.4315 59.0684 26.1703 57.5123 26.8503 56.0934C27.0857 55.5965 27.3211 55.1061 27.5434 54.6353C28.498 52.5496 29.6553 50.1696 30.8584 47.7961ZM21.698 52.713L22.2996 51.1896L21.2992 50.7711C19.8084 50.1434 18.8407 48.6919 18.8407 47.0704V22.1784C18.5792 22.2765 18.3046 22.3353 18.0169 22.3353C17.7292 22.3353 17.4677 22.2765 17.2061 22.1784V47.0704C17.2061 49.3523 18.5661 51.3923 20.6649 52.275L21.698 52.713ZM18.9911 20.9492C19.2461 20.6942 19.3834 20.3542 19.3834 19.9946C19.3834 19.2427 18.7688 18.6346 18.0169 18.6346C17.265 18.6346 16.6569 19.2427 16.6569 19.9946C16.6569 20.3607 16.8007 20.7007 17.0623 20.9557C17.5854 21.4723 18.4615 21.4657 18.9911 20.9492Z" fill="#062733"/>
<path d="M155.737 83.1562C157.41 87.6351 159.235 93.2189 157.129 96.5732C155.547 99.607 152.585 101.778 149.002 102.523C145.399 103.275 141.803 102.464 139.122 100.3C137.442 98.9401 135.526 95.1805 133.8 89.8909C136.167 91.3359 139.305 92.0747 142.47 92.0747C145.197 92.0747 147.949 91.532 150.257 90.427C153.415 88.9101 155.351 86.5039 155.697 83.6597C155.717 83.4897 155.724 83.3262 155.737 83.1562Z" fill="#134577"/>
<path d="M154.723 83.5353C154.331 86.7522 151.846 88.5765 149.832 89.5441C145.693 91.5253 140.07 91.6038 135.971 89.8907C135.369 89.6488 134.8 89.3611 134.277 89.0341C125.725 83.1365 113.426 60.8272 111.275 55.5441C114.577 55.9822 119.997 56.9499 123.247 57.6299C123.737 57.8522 123.973 58.2118 124.293 58.7022C124.47 58.9638 124.672 59.2711 124.921 59.5588C127.059 62.488 129.118 65.2538 131.041 67.7841L131.95 68.9741C135.48 73.623 138.821 78.0103 142.28 81.1684C143.189 81.9988 144.085 82.4957 144.922 82.7507C146.334 83.1822 147.596 82.9272 148.479 82.3911C150.094 81.4103 150.78 79.4422 150.225 77.363C150.166 77.1799 149.95 76.683 149.584 75.9311V75.918C147.707 72.0799 142.045 61.6511 135.055 52.2553C135.108 52.2553 135.16 52.2488 135.212 52.2488C136.134 52.1965 137.01 52.1507 137.9 52.1899C138.671 52.2226 138.756 52.3403 139.161 52.9222C139.227 53.0138 139.299 53.1184 139.377 53.223C142.405 57.5253 144.928 61.2522 148.139 66.5353C148.577 67.3395 149.067 68.183 149.577 69.0657C151.401 72.2172 153.54 75.9245 154.403 79.4488L154.363 79.4618C154.403 79.5599 154.442 79.6776 154.481 79.7822C154.769 81.0768 154.88 82.3388 154.723 83.5353Z" fill="#7356FB"/>
<path d="M149.283 77.6312C149.715 79.2658 149.198 80.8023 147.969 81.5543C146.864 82.2277 144.961 82.2866 142.941 80.4427C139.547 77.3435 136.232 72.9889 132.728 68.3858L131.819 67.1893C129.903 64.6654 127.843 61.9062 125.692 58.9573C125.457 58.6827 125.28 58.4146 125.117 58.1596C124.967 57.9439 124.829 57.7281 124.666 57.5319C123.574 56.0804 116.767 47.26 113.511 47.5935C111.098 47.8419 107.895 49.13 104.795 50.3723C99.715 52.4123 94.4647 54.5177 92.8693 52.1704C92.1174 51.0654 91.8819 50.1043 92.15 49.215C92.7319 47.2862 95.6089 45.7627 99.7477 44.0823C100.369 43.8273 101.049 43.5331 101.781 43.2192C105.757 41.5192 111.19 39.185 115.231 39.5904C122.063 40.2835 132.388 55.25 132.486 55.4004L133.297 54.8446C133.127 54.5962 131.466 52.1835 129.06 49.2804L130.753 48.4304C132.891 51.0131 134.898 53.72 136.683 56.2896C143.673 66.3327 149.022 76.755 149.283 77.6312Z" fill="#FFD934"/>
<path d="M130.753 48.4304L129.06 49.2804C125.307 44.7623 119.769 39.0673 115.329 38.6162C111.04 38.1847 105.469 40.5712 101.395 42.317C100.67 42.6308 99.9897 42.9185 99.3751 43.1735C94.8962 44.9977 91.967 46.5931 91.2347 48.8685C90.0774 48.4173 88.8351 47.8747 88.057 46.907C87.4816 46.1354 87.2528 45.3247 87.4031 44.5597C87.547 43.8077 88.0439 43.1408 88.7828 42.6897C91.9409 40.8981 96.8774 39.4335 101.239 38.1389L102.167 37.8643C105.404 37.0143 110.105 35.8766 113.433 35.785C118.977 36.0858 125.28 41.8331 130.753 48.4304Z" fill="#FFD934"/>
<path d="M124.411 79.8084C122.292 80.0569 116.375 80.7107 109.843 80.9723C100.415 81.345 95.9161 79.9784 95.6938 76.6831C95.4846 73.4923 97.0016 72.6488 103.815 72.1715C111.896 71.6092 116.297 69.4842 117.29 68.9546C119.435 72.5442 121.887 76.3561 124.411 79.8084Z" fill="#FFD934"/>
<path d="M122.613 56.4989C119.003 55.7666 113.537 54.8185 110.595 54.4719L110.458 54.4523L107.3 50.4377C109.621 49.5289 111.87 48.7508 113.609 48.5742C115.42 48.3846 119.631 52.8112 122.613 56.4989Z" fill="#CC9F11"/>
<path d="M117.375 19.9946C117.375 20.3608 117.238 20.7008 116.976 20.9558C116.453 21.4723 115.571 21.4593 115.048 20.9558C114.793 20.6943 114.655 20.3543 114.655 19.9946C114.655 19.2427 115.263 18.6346 116.015 18.6346C116.767 18.6346 117.375 19.2427 117.375 19.9946Z" fill="#7356FB"/>
<path d="M116.826 22.1785V35.5431C116.283 35.3404 115.734 35.1769 115.191 35.0527V22.1785C115.453 22.2765 115.734 22.3354 116.015 22.3354C116.296 22.3354 116.571 22.2765 116.826 22.1785Z" fill="#2CCCFF"/>
<path d="M65.4731 88.557C67.5261 88.6943 69.8604 88.8578 72.5281 89.0081C92.0127 90.0804 111.87 89.3547 116.342 88.5308C116.329 88.4131 116.316 88.302 116.303 88.1908L116.257 87.8247C116.068 86.4254 115.46 83.7578 114.531 81.7047C113.047 81.8028 111.484 81.8878 109.882 81.9531C108.869 81.9924 107.908 82.012 106.999 82.012C98.78 82.012 94.9615 80.3512 94.7196 76.7485C94.6804 76.1928 94.6934 75.6958 94.7588 75.2512C91.1365 74.8851 88.1681 74.1266 88.1419 74.1201L88.3838 73.1654C88.3838 73.1654 91.4046 73.9435 95.0269 74.2966C95.9423 72.0408 98.8257 71.5374 103.749 71.1908C111.452 70.6547 115.793 68.6212 116.787 68.1047C116.022 66.8101 115.303 65.5481 114.636 64.3516C114.512 65.9339 112.988 66.8493 109.582 67.3854C108.097 67.6208 106.221 67.7908 103.841 67.902C102.925 67.9478 101.964 67.9739 100.957 67.9739C99.1527 67.9739 97.2042 67.902 95.1184 67.7581C90.4957 67.4639 86.4092 66.8951 84.7288 66.6466C85.1342 68.1047 84.8923 69.5824 83.9965 70.9685C82.1985 73.7604 78.125 75.7285 75.4704 76.1993C76.0196 76.9578 76.2484 77.9778 76.1569 79.3639C75.915 82.9601 72.0965 84.6208 63.8711 84.6208C62.9623 84.6208 62.0012 84.6012 60.9877 84.562C54.0765 84.2874 49.5127 83.8297 48.2311 83.6858C46.5508 86.9551 44.7789 89.5378 42.2354 91.2443C40.385 94.7162 37.8611 98.9008 34.8011 100.516C33.0161 101.464 31.0284 101.935 29.0015 101.935C27.6873 101.935 26.3534 101.739 25.0457 101.34C24.5815 101.196 24.1173 101.032 23.6596 100.836C19.9588 99.267 17.2192 96.292 16.1535 92.6697C14.2508 87.7004 17.86 81.5347 20.495 77.0297L20.9134 76.317C20.9134 71.0274 22.5023 65.9862 24.3265 61.6316L23.6465 61.3635C19.0042 65.5481 11.5765 74.4339 12.1257 88.1385C12.76 104.105 26.2357 111.788 35.3831 115.182C35.3831 115.188 35.3831 115.188 35.3831 115.188C35.9911 115.41 36.5796 115.62 37.1484 115.809C37.3708 115.888 37.5931 115.953 37.8088 116.025C39.5546 116.587 41.3331 117.065 42.9677 117.411C49.5846 118.824 67.33 121.243 83.8854 119.177C83.8854 119.177 83.9638 119.164 84.1077 119.144C88.1223 118.64 92.065 117.862 95.7592 116.744C96.6942 116.463 97.6423 116.149 98.5642 115.809C101.278 114.815 104.122 113.652 106.515 111.88C109.732 109.513 111.151 107.322 112.648 105.001C112.72 104.897 112.792 104.785 112.857 104.681C110.719 105.093 107.332 105.335 103.246 105.452C101.271 105.505 99.1331 105.531 96.8969 105.531C84.8596 105.531 69.9519 104.785 62.0796 103.916C53.4096 102.968 50.2973 100.13 49.2119 97.9135C48.2442 95.9389 48.4731 93.6897 49.8789 91.4078C52.1935 87.6416 55.8027 87.8901 65.4665 88.557H65.4731ZM92.8431 78.4289C93.9677 79.7889 95.5761 82.7508 96.2823 84.7647L95.3538 85.0851C94.6935 83.1954 93.1373 80.3185 92.0846 79.0566L92.8431 78.4289Z" fill="#FFD934"/>
<path d="M110.039 61.2524C113.289 61.8082 113.714 62.9917 113.668 64.1882C113.648 64.9009 113.165 65.7771 109.732 66.3655C110.105 65.4305 110.32 64.4171 110.32 63.3578C110.32 62.6255 110.222 61.9194 110.039 61.2524Z" fill="white"/>
<path d="M110.386 55.9495C110.85 57.0807 111.713 58.8918 112.883 61.1149C112.02 60.6376 110.961 60.3957 109.961 60.2388C107.607 59.8726 104.344 59.8465 100.323 59.8465C98.2372 59.8465 96.3476 59.8595 94.6999 59.8857C89.3711 59.9707 86.2523 60.1538 84.9773 60.2518C85.1799 59.2122 85.2584 57.7607 84.6896 56.1915C84.5326 55.7599 84.2907 55.3284 83.9834 54.9099C85.8076 53.8965 88.1419 52.7915 91.6334 52.0068C91.7576 52.2422 91.8949 52.4842 92.0584 52.7195C94.0984 55.7207 99.7215 53.4649 105.155 51.2811C105.554 51.1241 105.946 50.9672 106.345 50.8103L110.386 55.9495Z" fill="#FFD934"/>
<path d="M104.763 32.6989C108.555 32.6989 111.007 34.0131 112.21 34.8762C108.901 35.1639 104.828 36.1512 101.899 36.9227L100.957 37.1973C96.5503 38.505 91.5549 39.9892 88.2857 41.8462C87.9457 42.0489 87.6515 42.2908 87.3965 42.5589C87.0434 42.3692 86.1607 41.8135 85.8076 40.8589C85.5461 40.1527 85.6246 39.355 86.043 38.4854C87.1088 36.2492 100.258 32.6989 104.763 32.6989Z" fill="#FFD934"/>
<path d="M96.2822 84.7647L95.3537 85.0851C94.6933 83.1955 93.1372 80.3186 92.0845 79.0566L92.8429 78.429C93.9675 79.789 95.576 82.7509 96.2822 84.7647Z" fill="#062733"/>
<path d="M94.1377 63.3576C94.1377 64.5738 94.4189 65.7245 94.9092 66.7641C90.4827 66.4634 86.5923 65.9338 84.9315 65.6853C85.4481 64.8941 85.6508 63.9265 85.4677 63.0111C85.3435 62.3965 85.0558 61.8603 84.6504 61.4418C84.67 61.383 84.6896 61.3241 84.7158 61.2522C85.6704 61.1738 88.7827 60.9645 94.5365 60.8665C94.2815 61.6511 94.1377 62.488 94.1377 63.3576Z" fill="white"/>
<path d="M91.0647 49.8558C91.0582 50.2612 91.1235 50.6666 91.2543 51.0916C88.3708 51.752 85.9712 52.6739 83.3493 54.1385C82.375 53.0989 81.0281 52.1639 79.5701 51.5689C79.6812 51.3793 79.7793 51.1831 79.8512 50.9804C80.322 49.9081 80.3612 48.8097 79.9754 47.7635C80.1062 47.7177 80.2566 47.672 80.4332 47.6131L81.1131 47.4104C82.7935 46.92 84.8204 46.5735 86.6774 46.4558C86.8278 46.8089 87.0239 47.162 87.2789 47.5085C88.2727 48.7443 89.7439 49.3393 91.0647 49.8558Z" fill="#FFD934"/>
<path d="M86.8145 43.3566C86.638 43.677 86.5072 44.017 86.4418 44.37C86.3699 44.7427 86.3634 45.122 86.4091 45.4947C84.5457 45.632 82.5253 45.9785 80.8318 46.4689L80.1387 46.6781C79.8968 46.7566 79.6941 46.822 79.5241 46.8808C79.3737 46.6389 79.2037 46.4035 79.0076 46.1877H79.0272C79.5503 44.6447 79.3868 43.167 78.5564 41.9181C77.9941 41.0812 77.1506 40.375 76.0849 39.8389C75.588 39.5774 75.0387 39.3616 74.4568 39.1785C74.5941 38.4724 74.6464 37.2235 73.8291 35.9289C76.8826 34.8043 83.1791 33.5489 89.273 35.3731C87.1676 36.2362 85.5853 37.1712 85.1537 38.067C84.6176 39.185 84.5326 40.2443 84.8922 41.2054C85.3237 42.3627 86.2914 43.0493 86.8145 43.3566Z" fill="#FFD934"/>
<path d="M84.5066 63.2007C84.6831 64.0834 84.3627 65.0315 83.6631 65.6723C83.3231 65.9861 82.12 66.6007 77.9616 67.2088C78.2558 66.3719 78.4258 65.4696 78.4258 64.5346C78.4258 63.2007 78.0989 61.9388 77.53 60.8273C79.9427 60.8665 81.7865 61.1215 83.1465 61.6119C83.8592 61.8734 84.3562 62.4488 84.5066 63.2007Z" fill="white"/>
<path d="M83.8136 60.8337C83.709 60.7814 83.5978 60.7291 83.4801 60.6899C81.9632 60.1407 79.9232 59.8661 77.2555 59.8464C73.9536 59.8072 70.0043 60.1472 65.0874 60.6703C64.3028 60.7553 63.5443 60.8403 62.812 60.9253C61.9293 61.0299 61.0597 61.1411 60.2163 61.2522C57.9213 61.5595 55.7897 61.893 53.9851 62.233C55.1751 59.9118 56.5024 57.6234 58.4051 55.8253C59.6474 54.6091 61.0728 53.9814 62.6486 53.9553C64.754 53.9291 66.807 53.988 68.7882 54.0534C70.2659 54.0991 71.7959 54.1514 73.2867 54.158C75.3136 54.3084 77.6216 53.7199 78.9489 52.3795C79.6486 52.6476 80.3286 52.9941 80.9432 53.393C82.3032 54.2822 83.3689 55.433 83.7678 56.5249C84.4216 58.3426 84.0751 60.0164 83.8136 60.8337Z" fill="#FFD934"/>
<path d="M83.1727 70.4388C81.9762 72.2957 79.6093 73.7342 77.53 74.558C76.3466 75.0222 75.2547 75.2969 74.5158 75.323C73.0447 74.3684 70.5927 74.048 67.1273 73.8061C64.0477 73.5903 61.4258 73.1261 59.3204 72.6095C56.4304 71.9034 54.5081 71.0992 53.6843 70.7199C53.5993 69.9353 53.3116 69.1703 52.9585 68.438C55.0835 68.7519 57.2935 68.9676 59.6408 69.0984C60.857 69.1572 62.1189 69.203 63.4135 69.2161C63.7796 69.2161 64.1523 69.2161 64.5185 69.2161C65.4404 69.2161 66.3558 69.1965 67.2516 69.1572C68.1146 69.1311 73.4173 68.8369 77.8373 68.2157C80.7731 67.7972 82.7151 67.3199 83.7547 66.7642C84.1404 67.9999 83.9508 69.2357 83.1727 70.4322V70.4388Z" fill="#FFD934"/>
<path d="M78.8638 47.6783C79.3542 48.6068 79.3804 49.6072 78.9423 50.6141C78.2754 52.4972 75.5685 53.3407 73.3258 53.1772C71.8154 53.1772 70.2919 53.1184 68.8208 53.0726C66.8265 53.0072 64.7604 52.9418 62.6354 52.9745C60.8242 53.0007 59.1243 53.746 57.725 55.1191C55.247 57.4599 53.6646 60.6507 52.2654 63.4622L52.1673 63.6649C51.7816 64.4103 51.35 65.2603 50.8727 66.1757L50.7746 66.2149C50.7746 66.2149 50.8008 66.2737 50.8139 66.2999C47.8716 72.0014 43.5954 80.2007 42.255 82.7049C41.3462 84.5684 39.28 86.7522 37.2269 87.1184C36.2854 87.2883 35.4681 87.0399 34.775 86.3795C33.7092 85.4053 33.3562 83.6595 33.8466 81.8483C34.9777 78.7557 36.4685 75.9114 38.1946 72.616C39.2538 70.5957 40.3523 68.5033 41.4638 66.1626L45.2431 58.6695C45.6746 57.996 45.3804 57.218 45.145 56.5968C45.0861 56.4464 45.0338 56.296 44.9815 56.126C44.7331 55.4853 44.4585 54.6876 44.1708 53.7722C46.2435 50.6207 50.2058 46.3837 53.4227 44.6053C56.2342 42.8595 60.3012 42.9837 66.8069 43.8272C67.7942 43.9645 68.7227 44.0691 69.6381 44.1803C71.3642 44.3764 72.9988 44.5726 74.8558 44.9518C76.595 45.2787 78.1708 46.351 78.8638 47.6783Z" fill="#FFD934"/>
<path d="M77.7394 42.4608C78.3278 43.3435 78.4913 44.3439 78.2232 45.4424C77.3405 44.7362 76.2421 44.2131 75.0455 43.9843C73.1559 43.5985 71.5017 43.4089 69.7493 43.2062C68.8405 43.1016 67.9186 42.9904 66.9378 42.8531C60.2032 41.9835 55.9728 41.8724 52.9259 43.7554C49.709 45.5404 46.0017 49.4439 43.8047 52.5693C43.2751 50.7843 42.7063 48.7051 42.1636 46.6128C43.5497 44.8604 48.7347 38.7666 53.7628 38.7666C56.9863 38.7666 59.4644 38.832 61.6744 38.9366C63.8844 39.0412 65.8394 39.1851 68.0167 39.3485C69.0171 39.4204 70.0697 39.4989 71.214 39.5774C74.2282 39.7866 76.6736 40.8654 77.7394 42.4608Z" fill="#FFD934"/>
<path d="M67.0554 74.7804C73.8685 75.2577 75.3919 76.1012 75.1762 79.2985C74.9539 82.5939 70.462 83.9539 61.027 83.5812C54.6912 83.3327 50.3431 82.9208 48.7085 82.7508C49.4081 81.332 50.1077 79.7954 50.8531 78.1543C51.592 76.5262 52.357 74.8393 53.2135 73.0608C53.4489 72.6358 53.5862 72.2108 53.6581 71.7924C55.4954 72.5966 60.0854 74.2966 67.0554 74.7804Z" fill="#FFD934"/>
<path d="M72.6851 36.0204C73.6266 37.1515 73.6201 38.3023 73.5089 38.9234C72.8093 38.7665 72.064 38.6554 71.2793 38.5965C70.1351 38.5181 69.089 38.4461 68.0886 38.3677C63.7078 38.0473 60.2489 37.7858 53.7628 37.7858C51.2389 37.7858 48.7478 39.1131 46.6424 40.7281C44.537 42.3431 42.824 44.2523 41.8563 45.4227C41.307 43.2584 40.7905 41.1334 40.3655 39.3484C41.0716 38.5638 43.9551 35.4581 46.394 34.3465C49.0682 33.1304 52.7232 33.3134 57.7774 33.5619C59.5886 33.6469 61.1774 33.7058 62.5832 33.7515C68.5724 33.9673 71.0505 34.0523 72.6851 36.0204Z" fill="#FFD934"/>
<path d="M62.2496 64.5348C62.2496 65.8621 62.5765 67.1175 63.1453 68.229C59.2419 68.1702 55.7242 67.889 52.4157 67.3594C52.2326 66.9998 52.0496 66.6598 51.8992 66.3329C52.3111 65.5221 52.6969 64.7767 53.0434 64.1033L53.1415 63.9006C53.233 63.7175 53.3311 63.5279 53.4226 63.3448C55.9203 62.8413 59.183 62.3444 62.6876 61.9325C62.4065 62.7498 62.2496 63.6194 62.2496 64.5348Z" fill="white"/>
<path d="M51.5462 67.8105C51.4742 67.6732 51.4089 67.5424 51.3369 67.4116C48.4142 73.0805 44.4062 80.7566 43.1312 83.1497C42.0981 85.2682 39.7965 87.6547 37.3969 88.0863C36.1546 88.3086 35.0169 87.9686 34.1081 87.0924C32.7742 85.8828 32.3166 83.7578 32.9116 81.5543C34.0754 78.357 35.6577 75.3493 37.325 72.1586C38.3842 70.1447 39.4762 68.0655 40.5812 65.7313L44.3931 58.1793C44.5827 57.8786 44.3931 57.3816 44.2296 56.9436C44.1642 56.7736 44.0988 56.6036 44.0531 56.4466C43.7131 55.577 43.3273 54.4132 42.9285 53.0793C42.3531 51.157 41.7254 48.8816 41.1369 46.5932L41.0127 46.5016C41.0127 46.5016 41.0519 46.4428 41.0912 46.397C39.9535 41.9966 38.94 37.6224 38.5281 35.7786C38.3973 35.9943 38.26 36.2363 38.1358 36.4455C37.9004 36.8509 37.6519 37.2824 37.4165 37.6486C35.115 41.6109 31.0154 49.4047 28.4327 55.0474C28.2038 55.5247 27.975 56.0151 27.7331 56.5186C25.2877 61.6578 21.9858 68.582 21.8877 75.9705C21.8746 76.3693 21.8811 76.7616 21.8877 77.1539C21.855 81.4301 24.4704 86.1443 28.5504 89.1913C32.0354 91.7936 35.9585 92.6893 39.3192 91.6628C44.5304 89.7013 46.8058 84.6863 49.9508 77.749C50.6896 76.1143 51.4611 74.4209 52.3373 72.6032C53.22 71.0209 52.3635 69.3863 51.5396 67.8105H51.5462ZM24.2219 73.0739C24.5554 72.4789 25.0589 72.1259 25.595 72.1193C26.1377 72.1193 26.6477 72.4528 27.0008 73.0413C27.3015 73.5578 27.4781 74.2313 27.4846 74.9505C27.5043 76.5459 26.7065 77.8078 25.6669 77.8209H25.6538C25.1177 77.8209 24.6142 77.4874 24.2677 76.9055C23.9604 76.3889 23.7904 75.709 23.7838 74.9963C23.7708 74.2836 23.9277 73.597 24.2219 73.0739Z" fill="#7356FB"/>
<path d="M39.6462 92.5847C39.9796 92.4605 40.2935 92.3232 40.6073 92.1793C38.9204 95.1805 36.7889 98.3647 34.3435 99.6528C31.2443 101.287 27.4912 101.385 24.0389 99.9274C20.6127 98.4824 18.0758 95.7362 17.0819 92.3559C15.4212 88.0209 18.4746 82.4501 20.9592 78.187C21.2992 82.4566 23.967 86.9878 27.975 89.9759C30.6754 91.9962 33.6504 93.0555 36.4815 93.0555C37.5669 93.0555 38.6262 92.8986 39.6462 92.5847Z" fill="#134577"/>
<path d="M27.1577 46.3185L30.8584 47.7962C29.6553 50.1696 28.498 52.5496 27.5434 54.6354C27.3211 55.1062 27.0857 55.5965 26.8503 56.0935C26.1703 57.5123 25.4315 59.0685 24.7122 60.7292L21.9138 59.6177C21.4757 59.4412 21.1292 59.1142 20.9461 58.6762C20.7565 58.2512 20.75 57.7739 20.9265 57.3358L24.8823 47.3123C25.0523 46.8742 25.3857 46.5277 25.8173 46.3446C26.2488 46.155 26.7261 46.1485 27.1577 46.3185Z" fill="#7356FB"/>
<path d="M27.4848 74.9504C27.5044 76.5458 26.7067 77.8077 25.667 77.8208H25.6539C25.1178 77.8208 24.6143 77.4873 24.2678 76.9054C23.9605 76.3889 23.7905 75.7089 23.784 74.9962C23.7709 74.2835 23.9278 73.597 24.222 73.0739C24.5555 72.4789 25.059 72.1258 25.5951 72.1193C26.1378 72.1193 26.6478 72.4527 27.0009 73.0412C27.3016 73.5577 27.4782 74.2312 27.4848 74.9504ZM25.6605 76.84C26.0593 76.8335 26.5171 76.0162 26.504 74.9635C26.504 74.4208 26.3732 73.9043 26.1574 73.5446C25.994 73.2635 25.7913 73.1 25.6147 73.1H25.6082C25.4316 73.1066 25.2355 73.2766 25.0786 73.5577C24.8693 73.9239 24.7517 74.447 24.7647 74.9831C24.7713 75.5193 24.8955 76.0358 25.1113 76.402C25.2747 76.6766 25.4513 76.8531 25.6605 76.84Z" fill="#062733"/>
<path d="M26.5039 74.9634C26.517 76.0161 26.0593 76.8334 25.6604 76.84C25.4512 76.8531 25.2747 76.6765 25.1112 76.4019C24.8954 76.0357 24.7712 75.5192 24.7647 74.9831C24.7516 74.4469 24.8693 73.9238 25.0785 73.5577C25.2354 73.2765 25.4316 73.1065 25.6081 73.1H25.6146C25.7912 73.1 25.9939 73.2634 26.1574 73.5446C26.3731 73.9042 26.4974 74.4207 26.5039 74.9634Z" fill="#7356FB"/>
<path d="M22.2995 51.1896L21.698 52.7131L20.6649 52.275C18.566 51.3923 17.2061 49.3523 17.2061 47.0704V22.1785C17.4676 22.2765 17.7357 22.3354 18.0168 22.3354C18.298 22.3354 18.5791 22.2765 18.8407 22.1785V47.0704C18.8407 48.6919 19.8084 50.1435 21.2991 50.7712L22.2995 51.1896Z" fill="#2CCCFF"/>
<path d="M19.3835 19.9946C19.3835 20.3543 19.2462 20.6943 18.9912 20.9493C18.4616 21.4658 17.5855 21.4723 17.0624 20.9558C16.8009 20.7008 16.657 20.3608 16.657 19.9946C16.657 19.2427 17.2651 18.6346 18.017 18.6346C18.7689 18.6346 19.3835 19.2427 19.3835 19.9946Z" fill="#7356FB"/>
<path d="M35.3831 115.182C26.2357 111.788 12.76 104.105 12.1257 88.1385C11.5765 74.4339 19.0042 65.5481 23.6465 61.3635L24.3265 61.6316C22.5023 65.9862 20.9069 71.0274 20.9134 76.317L20.495 77.0297C17.86 81.5347 14.2508 87.7004 16.1535 92.6697C17.2192 96.292 19.9588 99.267 23.6596 100.836C24.1173 101.032 24.5815 101.196 25.0457 101.34C28.6092 111.435 35.1019 114.94 35.3831 115.182Z" fill="#FDFF92"/>
<path d="M112.864 104.681C112.798 104.785 112.727 104.897 112.655 105.001C111.157 107.322 109.738 109.513 106.522 111.88C104.128 113.652 101.284 114.815 98.5708 115.809C97.6489 116.149 96.7008 116.463 95.7658 116.744C92.0716 117.862 88.1289 118.64 84.1143 119.144C85.8208 118.856 103.906 113.514 107.195 105.282C107.195 105.282 111.465 104.949 112.864 104.681Z" fill="#FDFF92"/>
<path d="M52.3438 72.6032C51.4677 74.4209 50.6962 76.1143 49.9573 77.749C46.8123 84.6863 44.5369 89.7013 39.3258 91.6628C35.965 92.6893 32.0419 91.7936 28.5569 89.1913C24.4769 86.1443 21.8615 81.4301 21.8942 77.154C21.8811 76.7617 21.8746 76.3693 21.8942 75.9705C21.9988 78.5859 25.4839 83.4505 28.6158 79.7563C31.5385 76.304 39.9207 59.2843 42.935 53.0793C43.3338 54.4132 43.7196 55.577 44.0596 56.4467C44.1054 56.6036 44.1708 56.7736 44.2362 56.9436C44.3996 57.3817 44.5892 57.8786 44.3996 58.1793L40.5877 65.7313C39.4827 68.0655 38.3908 70.1447 37.3316 72.1586C35.6642 75.3493 34.0819 78.357 32.9181 81.5543C32.3231 83.7578 32.7808 85.8828 34.1146 87.0924C35.0234 87.9686 36.1612 88.3086 37.4035 88.0863C39.8031 87.6547 42.1046 85.2682 43.1377 83.1497C44.4127 80.7567 48.4208 73.0805 51.3435 67.4117C51.4154 67.5424 51.4808 67.6732 51.5527 67.8105C52.3766 69.3863 53.2331 71.0209 52.3504 72.6032H52.3438Z" fill="#4B2298"/>
<path d="M80.9432 53.393C78.6809 57.0937 72.3974 55.7795 66.892 55.9626C61.3866 56.1457 60.2163 61.2522 60.2163 61.2522C57.9213 61.5595 55.7897 61.893 53.9851 62.233C55.1751 59.9118 56.5024 57.6234 58.4051 55.8253C59.6474 54.6091 61.0728 53.9814 62.6486 53.9553C64.754 53.9291 66.807 53.988 68.7882 54.0534C70.2659 54.0991 71.7959 54.1514 73.2867 54.158C75.3136 54.3084 77.6216 53.7199 78.9489 52.3795C79.6486 52.6476 80.3286 52.9941 80.9432 53.393Z" fill="#CC9F11"/>
<path d="M59.6408 69.0984C59.6408 69.0984 59.3139 70.733 59.3204 72.6095C56.4304 71.9034 54.5081 71.0991 53.6843 70.7199C53.5993 69.9353 53.3116 69.1703 52.9585 68.438C55.0835 68.7518 57.2935 68.9676 59.6408 69.0984Z" fill="#CC9F11"/>
<path d="M154.723 83.5353C154.331 86.7522 151.846 88.5765 149.832 89.5441C145.693 91.5253 140.07 91.6038 135.971 89.8907C136.664 89.9953 145.791 91.1068 144.922 82.7507C146.334 83.1822 147.596 82.9272 148.479 82.3911C150.094 81.4103 150.78 79.4422 150.224 77.363C150.166 77.1799 149.95 76.683 149.584 75.9311V75.918C147.707 72.0799 142.045 61.6511 135.055 52.2553C135.107 52.2553 135.16 52.2488 135.212 52.2488C136.134 52.1965 137.01 52.1507 137.899 52.1899C138.671 52.2226 138.756 52.3403 139.161 52.9222C139.227 53.0138 139.299 53.1184 139.377 53.223C142.404 57.5253 144.928 61.2522 148.139 66.5353C148.577 67.3395 149.067 68.183 149.577 69.0657C151.401 72.2172 153.539 75.9245 154.403 79.4488L154.363 79.4618C154.403 79.5599 154.442 79.6776 154.481 79.7822C154.769 81.0768 154.88 82.3388 154.723 83.5353Z" fill="#4B2298"/>
<path d="M89.273 35.3731C81.0084 36.4127 77.5168 38.2762 76.0849 39.8389C75.588 39.5774 75.0387 39.3616 74.4568 39.1785C74.5941 38.4724 74.6464 37.2235 73.8291 35.9289C76.8826 34.8043 83.1791 33.5489 89.273 35.3731Z" fill="#FDFF92"/>
</svg>
