<svg width="170" height="170" viewBox="0 0 170 170" fill="none" xmlns="http://www.w3.org/2000/svg">
<path d="M143.826 84.5553C144.041 86.3077 143.885 88.5046 143.074 89.5507C140.001 101.163 135.587 106.492 128.539 112.246C126.198 114.155 123.393 115.737 120.274 117.038C120.052 118.536 118.914 122.217 115.442 123.793C111.33 125.656 100.973 127.173 89.9423 127.173C83.8746 127.173 77.6107 126.709 72.0661 125.597C71.6869 133.437 70.6407 145.768 65.763 149.351C65.593 149.469 65.423 149.58 65.253 149.691L65.3838 149.724C64.8738 153.052 64.3507 156.492 62.0557 158.976C59.813 161.395 56.5961 162.742 53.1242 162.742C52.8561 162.742 52.5815 162.736 52.3069 162.723C48.5473 162.494 45.1996 160.715 43.1334 157.838C39.7792 153.902 40.8384 148.338 41.6884 143.872L41.708 143.768C39.4915 140.884 38.3603 137.386 37.4777 134.306C36.1046 129.435 35.928 124.041 35.758 118.823C35.7319 118.071 35.7123 117.326 35.6796 116.587C35.66 115.41 35.6403 114.384 35.6142 113.462C35.5619 111.16 35.5227 109.5 35.5946 107.78L35.6077 107.695C35.6796 107.348 35.8757 107.191 36.0261 107.12C36.4053 106.943 36.7846 107.133 37.0984 107.29C37.1703 107.329 37.2357 107.361 37.3011 107.388L37.6738 107.577C37.7 106.368 37.7653 103.922 37.9026 101.124C35.1303 96.7169 34.9996 90.5511 34.993 90.2896C34.9734 81.3319 38.4846 74.3423 41.623 69.883L40.4788 69.6869C39.7596 69.5692 39.1253 69.1769 38.6938 68.5819C38.2688 67.9869 38.1053 67.2611 38.223 66.5353L38.8115 62.985L37.6934 62.7757C35.065 62.2788 32.9988 60.2715 32.4365 57.6496L27.0553 32.6465C26.6238 32.3196 26.3296 31.8423 26.2053 31.293C25.9373 30.0311 26.7415 28.7888 28.0034 28.5142C29.2653 28.2461 30.5207 29.0503 30.7888 30.3123C30.9065 30.8484 30.828 31.4042 30.573 31.888L35.9542 56.8911C36.2157 58.0942 37.1573 59.0161 38.3603 59.2384L39.4 59.4346L39.9819 55.9103C40.0996 55.1911 40.4919 54.5569 41.0869 54.1253C41.6884 53.7003 42.4142 53.5303 43.1334 53.6546L47.4096 54.3738C47.4946 54.145 47.573 53.9161 47.6711 53.6873C49.7896 48.3192 55.0269 38.943 66.3188 36.5238C70.3857 35.6542 74.1976 35.7261 77.6565 36.733C78.925 37.1057 80.1673 37.6157 81.3507 38.2434C82.7369 36.8377 89.5761 30.4627 99.5015 30.2011H99.5473C100.26 30.175 100.986 30.188 101.698 30.2338C110.225 30.7765 114.795 36.8965 115.763 38.3415C122.223 38.2827 124.877 40.0611 125.812 40.9961L127.009 40.1657C128.009 39.4661 128.493 38.2369 128.231 37.0403L122.85 12.0242C122.419 11.6842 122.125 11.22 122.007 10.6838C121.739 9.42188 122.543 8.17304 123.811 7.89842C124.42 7.76765 125.047 7.88535 125.57 8.21881C126.1 8.55881 126.46 9.08188 126.59 9.6965C126.708 10.2457 126.63 10.795 126.368 11.2788L131.749 36.2819C132.226 38.4984 131.533 40.7673 129.958 42.3496C130.448 42.6503 130.866 43.01 131.2 43.4284C132.043 44.5138 132.109 45.6711 132.076 46.2465C132.684 46.6127 133.966 47.5607 134.535 49.2803C135.058 50.83 134.848 52.5953 133.94 54.5307C134.253 54.9296 134.842 55.9757 134.208 57.7346C133.756 58.9834 132.743 60.1146 131.154 61.1673C131.226 61.5334 131.448 63.3315 129.421 65.11C129.363 65.1623 129.297 65.2146 129.232 65.2669C132.547 66.6792 136.261 70.5761 137.765 73.1523C139.268 73.6165 140.609 75.2773 141.38 76.7288C142.191 78.2457 142.518 79.7104 142.302 80.7303C143.368 81.7438 143.721 83.7119 143.826 84.5553ZM142.263 88.995C142.819 88.3477 143.074 86.4973 142.851 84.6796C142.681 83.2738 142.276 82.1557 141.74 81.5673C137.529 85.3073 127.342 91.4142 115.344 93.7484C109.636 94.8534 103.921 95.2523 98.658 95.2523C85.215 95.2523 74.675 92.65 74.5311 92.6173L74.7665 91.6627C74.9692 91.715 95.1011 96.6776 115.155 92.7807C127.192 90.4465 137.333 84.2742 141.308 80.6323C141.537 79.8738 141.236 78.5465 140.517 77.1865C139.693 75.6369 138.556 74.4796 137.562 74.1265C133.606 77.7684 122.746 85.8434 103.431 87.0269C96.9253 87.4257 90.5569 86.5561 84.9403 85.7846C77.6303 84.7842 71.8503 83.993 69.065 86.3861C66.5738 88.5307 66.3907 90.8388 66.6719 92.395C67.1427 94.9646 69.2742 97.3511 71.9811 98.345C72.0661 98.3776 72.1576 98.4103 72.2557 98.4496C72.3669 98.4888 72.4715 98.528 72.5892 98.5673C72.7526 98.6327 72.903 98.6915 73.06 98.7503C89.8246 105.099 106.406 102.32 111.859 101.405C126.832 98.8876 138.105 93.2123 142.263 88.995ZM127.918 111.487C134.639 105.995 138.719 101.17 141.701 90.8323C136.692 94.9842 125.904 100.038 112.023 102.373C106.073 103.367 100.796 103.759 96.1865 103.759C83.5084 103.759 75.8061 100.836 72.7265 99.6723C72.5696 99.6134 72.4061 99.5546 72.2492 99.4892C72.1446 99.45 72.0269 99.4107 71.9092 99.365L71.6477 99.2669C68.5746 98.1423 66.2469 95.5138 65.7107 92.5715C65.2465 90.015 66.2076 87.55 68.4242 85.6407C71.5496 82.96 77.5192 83.7773 85.0777 84.8103C90.6484 85.5753 96.958 86.4384 103.372 86.0461C122.242 84.8953 132.874 77.0819 136.816 73.4792C135.077 70.5892 131.233 66.9277 128.277 65.9534C127.774 66.2673 127.211 66.5615 126.584 66.823C125.27 67.3723 123.556 67.9411 121.484 68.51L121.222 67.5619C123.256 67.0061 124.93 66.4503 126.205 65.9142C127.251 65.4761 128.114 64.9596 128.774 64.3777C129.997 63.3053 130.206 62.2788 130.219 61.7427C130.049 61.8342 129.892 61.9323 129.716 62.0238C128.813 62.4946 127.78 62.9588 126.558 63.4361C120.621 65.7834 109.159 67.7842 109.048 67.8038L108.878 66.8427C108.989 66.823 120.353 64.8288 126.198 62.5273C127.388 62.0565 128.388 61.6119 129.258 61.1542C131.475 59.9838 132.795 58.7546 133.286 57.4011C133.665 56.355 133.488 55.6946 133.312 55.3546C131.533 56.95 129.35 58.2903 126.649 59.4346L126.551 59.4738C126.473 59.5065 126.394 59.5392 126.316 59.5653C123.367 60.7815 120.209 61.5596 118.09 62.0369C116.436 62.403 114.991 62.6842 113.683 62.9065C113.036 63.0242 112.382 63.1353 111.735 63.2269C109.021 63.6388 106.583 63.8415 104.451 63.8415C103.948 63.8415 103.464 63.8284 102.993 63.8088C103.588 64.7569 103.869 66.1888 102.731 67.8496C101.195 70.0988 94.9246 74.0873 87.1242 75.748C83.273 76.5719 79.4677 76.9838 75.8519 76.9838C73.3019 76.9838 70.8434 76.7811 68.5288 76.3692L68.6988 75.4015C74.1715 76.3757 80.4746 76.1665 86.9215 74.7934C94.9965 73.0738 100.757 69.0003 101.921 67.3003C103.071 65.62 102.326 64.43 101.842 63.9134C101.692 64.1815 101.509 64.4365 101.3 64.6784C100.482 65.633 99.495 66.4961 98.3115 67.3003C97.1215 68.098 95.7484 68.8303 94.1596 69.5038C93.6953 69.7065 93.218 69.8961 92.7211 70.0857C91.6292 70.4977 90.4653 70.8834 89.2557 71.23C86.0453 72.1715 83.3973 72.7796 80.9453 73.1588C80.1869 73.27 79.4742 73.3615 78.7746 73.4334C77.2969 73.5773 75.8126 73.6557 74.2042 73.6557C72.9423 73.6557 71.615 73.61 70.1503 73.5184C66.2992 73.2896 64.5796 72.76 64.2134 71.6877C63.7753 70.3996 65.423 68.9611 67.9207 66.7773L68.6334 66.1561C73.6353 61.7492 80.6642 57.7607 87.4315 55.4853C90.2823 54.5307 92.61 54.1646 94.493 54.1646C97.71 54.1646 99.6519 55.2238 100.776 56.2503C100.835 55.0996 100.659 53.138 99.0569 51.68C98.318 51.013 97.4746 50.5096 96.4742 50.1369C95.1861 49.653 93.5646 49.4896 91.6553 49.64C90.3084 49.7511 88.8176 50.0192 87.2353 50.4507C82.75 51.6342 77.323 54.2561 72.3342 57.643C67.9338 60.6246 59.3423 68.3203 59.2573 68.3988L58.6034 67.673C58.6884 67.5946 67.3323 59.853 71.785 56.8257C76.8588 53.3865 82.3969 50.7123 86.9803 49.5027C88.3992 49.1169 89.7396 48.8619 90.9884 48.7246C90.4457 48.2996 89.8769 47.9073 89.2819 47.5869L89.1838 47.528C79.5527 42.3823 65.1484 51.0588 60.5192 54.1711L60.2511 54.3607C59.3488 54.9688 58.8323 55.3677 58.8257 55.3677L58.2307 54.5896C58.2307 54.5896 58.6753 54.2496 59.4338 53.7265L59.7019 53.5434C63.9453 50.6534 78.0815 41.9311 88.3273 46.0569C87.7453 45.135 86.7973 43.8207 85.4242 42.4673C84.1492 41.2053 82.7303 40.1265 81.2069 39.2765C79.9907 38.5965 78.7026 38.0603 77.3819 37.6746C74.0865 36.7134 70.4315 36.648 66.528 37.485C55.6807 39.8061 50.6265 48.8619 48.58 54.0534C48.4361 54.4065 48.3053 54.753 48.1811 55.093C46.9126 58.6238 46.1542 62.39 45.9973 65.9992C45.9319 67.4377 45.9646 68.7846 46.0953 70.0073C46.1346 70.393 46.1869 70.7592 46.2392 71.1188C46.3046 71.5307 46.3896 71.9492 46.5073 72.4003L45.5527 72.6357C45.435 72.1519 45.3434 71.7073 45.2715 71.2757C45.2323 71.0207 45.1996 70.7461 45.1669 70.4846L42.7019 70.0661C39.5765 74.3815 35.9542 81.3253 35.9738 90.283C35.9738 90.3288 36.085 95.2457 38.0073 99.2734C38.295 94.6246 38.805 89.5965 39.7138 87.9096C41.27 85.0327 45.1603 81.6588 47.9523 79.3769L48.4361 78.978C51.4046 76.5327 55.4584 73.1915 58.2569 75.4865C59.1592 76.2253 59.643 77.095 59.6953 78.0692C59.7673 79.5142 58.8846 81.1423 57.0015 83.0515C56.413 83.653 55.5696 84.405 54.6803 85.2027C52.7711 86.9157 50.1557 89.263 49.9269 90.27C49.43 92.4211 49.5084 96.1807 49.5673 97.7107C50.6657 97.3577 52.1173 97.2138 54.1638 97.1615C54.1246 97.0111 54.0788 96.8542 54.0526 96.7038C53.2419 92.1596 55.9815 89.4134 56.0992 89.2957L56.7857 89.9953C56.6876 90.1 54.3011 92.5126 55.0138 96.5338C55.053 96.7365 55.1119 96.9392 55.1642 97.1484C56.6942 97.1353 58.525 97.1615 60.7415 97.1876L61.5 97.2007C63.8996 97.2269 65.6127 97.835 66.5869 98.9988C67.2276 99.7703 67.3846 100.594 67.4107 101.124C71.3403 101.745 72.4323 103.517 72.5042 108.009C75.0673 108.878 75.3026 110.513 75.2765 112.651C75.2307 116.005 75.0411 118.614 74.3611 120.353C74.4788 120.367 74.5965 120.386 74.7207 120.406C88.5953 122.42 115.311 121.779 127.918 111.487ZM132.933 54.3738C133.841 52.5757 134.064 50.9673 133.606 49.5942C133.05 47.9203 131.651 47.1161 131.39 46.9788C130.88 46.8807 127.172 46.2465 122.229 47.2534C121.261 47.443 120.222 47.6915 119.13 47.9923C117.567 48.4303 116.063 48.9665 114.638 49.5615C112.003 50.6469 109.636 51.935 107.668 53.1577C104.634 55.0407 102.522 56.7669 101.777 57.4142C102.836 59.0227 103.032 61.0169 102.398 62.7823C103.052 62.8346 103.751 62.8607 104.484 62.8607C106.498 62.8607 108.793 62.6711 111.356 62.2853C110.545 61.03 110.081 59.5392 110.081 57.9307C110.081 54.583 112.114 51.7192 115.017 50.49C115.978 50.0846 117.044 49.8557 118.162 49.8557C122.621 49.8557 126.244 53.4715 126.244 57.9307C126.244 58.14 126.237 58.3427 126.218 58.5453L126.276 58.5257C129.01 57.375 131.193 56.015 132.933 54.3738ZM129.036 41.8788C130.546 40.5319 131.22 38.4788 130.788 36.4911L125.557 12.1615C125.328 12.3119 125.067 12.4165 124.792 12.4753C124.629 12.5146 124.465 12.5277 124.302 12.5277C124.184 12.5277 124.073 12.5211 123.955 12.5015L129.193 36.8311C129.533 38.42 128.898 40.0415 127.565 40.97L127.009 41.3623C127.761 41.4734 128.447 41.6434 129.036 41.8788ZM131.102 45.9392C131.089 45.4619 130.971 44.723 130.415 44.0234C129.565 42.9446 127.99 42.3365 125.74 42.2123C124.864 42.16 123.87 42.1861 122.785 42.2973C113.461 43.1996 104.628 47.5542 100.11 51.353C101.587 52.955 101.816 54.8903 101.77 56.1392C104.144 54.2103 110.689 49.3392 118.868 47.0442C119.986 46.7369 121.052 46.4819 122.04 46.2923C126.433 45.3965 129.827 45.743 131.102 45.9392ZM125.662 10.2C125.662 10.1019 125.649 10.0038 125.629 9.90573C125.557 9.54612 125.348 9.24535 125.041 9.04265C124.818 8.90535 124.563 8.82688 124.308 8.82688C124.21 8.82688 124.112 8.83996 124.014 8.85958C123.661 8.93804 123.354 9.14727 123.151 9.45458C122.955 9.75535 122.89 10.1215 122.968 10.4746C123.04 10.8342 123.256 11.135 123.556 11.3311C123.87 11.5273 124.236 11.5927 124.59 11.5207C124.936 11.4423 125.243 11.233 125.44 10.9323C125.583 10.71 125.662 10.4615 125.662 10.2ZM122.687 41.3165C123.334 41.2511 123.949 41.2184 124.537 41.2119C123.373 40.3946 120.778 39.2307 115.501 39.3223C114.54 39.3288 113.494 39.3942 112.291 39.5119C104.438 40.2834 98.6777 42.8661 95.9446 44.3373L95.3234 44.6773C94.6826 45.05 94.3361 45.2788 94.323 45.2853L93.7803 44.468C93.7803 44.468 94.1465 44.2196 94.8396 43.8273L95.4738 43.4742C98.2788 41.9638 104.17 39.3223 112.199 38.5311C113.062 38.4527 113.847 38.3938 114.579 38.3677C113.16 36.4453 108.937 31.6723 101.633 31.2146C100.966 31.1688 100.286 31.1557 99.6192 31.1753H99.5669C90.3476 31.4107 83.8746 37.1319 82.2269 38.7469C83.6261 39.5903 84.9338 40.5973 86.1173 41.7677C88.4057 44.03 89.5957 46.2269 89.8834 46.7957C90.7007 47.2534 91.4853 47.8027 92.2046 48.4434L92.27 48.4892C92.27 48.4892 92.2896 48.5153 92.2961 48.5219L92.3615 48.5742V48.633C94.0811 48.5677 95.585 48.7573 96.8207 49.215C97.795 49.5811 98.6319 50.065 99.3838 50.6861C103.993 46.7696 113.095 42.2515 122.687 41.3165ZM120.738 56.3484C121.693 56.1457 122.308 55.1911 122.098 54.2365C121.896 53.2753 120.941 52.6607 119.986 52.87C119.032 53.0727 118.424 54.0207 118.633 54.9819C118.836 55.943 119.784 56.5511 120.738 56.3484ZM115.037 122.897C117.711 121.687 118.829 118.974 119.195 117.476C110.074 121.027 98.5927 122.295 88.6084 122.295C83.3188 122.295 78.4542 121.942 74.5769 121.373C74.3153 121.341 74.0538 121.295 73.7923 121.256C73.413 121.57 72.8573 121.785 72.223 121.929L72.1838 122.825C72.1642 123.374 72.138 123.976 72.1119 124.61C88.628 127.964 109.551 125.388 115.037 122.897ZM100.554 64.0442C102.038 62.305 102.195 59.7811 100.927 57.9111C99.7042 56.1 97.4419 55.1715 94.48 55.1715C92.5053 55.1715 90.23 55.5834 87.7388 56.4203C85.2934 57.2442 82.8153 58.2903 80.4223 59.5065C76.29 61.5857 72.3865 64.1619 69.2807 66.895L68.568 67.5161C66.77 69.0853 64.913 70.7069 65.1419 71.3738C65.253 71.7007 66.0638 72.2957 70.2092 72.5442C73.3476 72.7338 75.8715 72.7142 78.343 72.4853C77.2838 71.1188 76.6561 69.4057 76.6561 67.5423C76.6561 64.4757 78.3626 61.808 80.8865 60.4415C82.0307 59.8203 83.3384 59.4673 84.7376 59.4673C89.1969 59.4673 92.8192 63.083 92.8192 67.5423C92.8192 68.0588 92.7669 68.5557 92.6753 69.0461C93.0546 68.9088 93.4207 68.7584 93.7738 68.608C96.8076 67.32 99.0242 65.8227 100.554 64.0442ZM87.3138 65.96C88.2684 65.7507 88.883 64.8027 88.6738 63.848C88.4711 62.8869 87.523 62.2723 86.5619 62.4815C85.6073 62.6842 84.9992 63.6323 85.2084 64.5934C85.4111 65.548 86.3592 66.1627 87.3138 65.96ZM74.2957 112.638C74.3284 110.14 74.3546 108.493 67.535 108.316C61.9511 108.166 60.068 108.336 59.2115 110.918C58.7538 112.285 58.1327 116.561 57.9561 117.797C59.0023 118.326 59.9111 118.791 60.6238 119.157C61.598 119.634 61.6765 120.419 61.683 121.118C61.683 122.407 61.6634 125.466 61.6373 128.723C61.6176 131.416 61.598 134.241 61.5915 136.307V136.883C61.5915 138.838 61.5915 142.46 63.0692 143.29C63.9846 143.31 64.5142 142.035 65.0634 140.498C65.5342 138.962 65.6846 137.38 65.8415 135.712L65.8611 135.483C66.4757 128.428 67.208 118.085 67.463 114.181L68.4438 114.24C68.3457 115.77 68.1692 118.281 67.96 121.197C70.353 121.328 72.9488 121.06 73.2953 120.36C74.0996 118.719 74.25 115.678 74.2957 112.638ZM71.203 122.786L71.2357 122.099C70.5492 122.184 69.8365 122.21 69.2023 122.21C68.6857 122.21 68.2346 122.191 67.888 122.171C67.5742 126.513 67.1884 131.567 66.8353 135.575L66.8157 135.804C66.6588 137.523 66.5019 139.152 65.9984 140.806C65.4426 142.355 64.6907 144.454 62.8861 144.258L62.7226 144.212C60.6173 143.199 60.6107 139.4 60.6107 136.883V136.307C60.6173 134.235 60.6369 131.41 60.6565 128.716C60.6827 125.466 60.7023 122.407 60.7023 121.118C60.6957 120.451 60.5977 120.236 60.1792 120.033C56.3869 118.091 46.9127 113.318 41.2503 110.474L36.8957 108.283C36.8434 108.264 36.7519 108.211 36.6538 108.166C36.6277 108.153 36.595 108.14 36.5623 108.12C36.51 109.709 36.5492 111.298 36.595 113.442C36.6211 114.364 36.6407 115.391 36.6603 116.561C36.693 117.293 36.7127 118.039 36.7388 118.791C36.9088 123.95 37.0788 129.278 38.4192 134.038C39.5307 137.922 40.6946 141.021 42.7607 143.539C47.2853 148.913 58.695 153.399 65.1811 148.56C70.3073 144.801 70.935 129.37 71.203 122.786ZM71.5234 107.741C71.4319 103.216 70.4642 102.007 63.8996 101.83C63.0953 101.81 62.3434 101.778 61.6307 101.745C56.5896 101.529 54.0592 101.418 52.7646 105.661C51.5615 109.604 51.1103 113.213 50.9927 114.279C53.1438 115.365 55.2361 116.424 57.0342 117.333C57.2565 115.763 57.8253 111.958 58.2765 110.611C59.3946 107.27 62.0753 107.191 67.5611 107.335C69.2023 107.381 70.4969 107.518 71.5234 107.741ZM66.4169 101C66.3777 100.627 66.2403 100.11 65.8219 99.6134C65.0373 98.6915 63.5792 98.2076 61.4869 98.1815L60.7284 98.1684C50.4892 98.0311 48.9134 98.0115 47.0892 101.143C46.3111 102.471 45.2519 108.538 44.84 111.18C46.4942 112.017 48.2792 112.913 50.0642 113.808C50.2276 112.39 50.7115 109.016 51.823 105.374C53.3465 100.405 56.655 100.548 61.67 100.764C62.3761 100.797 63.128 100.83 63.9257 100.849C64.8476 100.875 65.6715 100.921 66.4169 101ZM61.3365 158.309C63.2784 156.204 63.8538 153.209 64.3115 150.241C62.52 151.163 60.493 151.575 58.3811 151.575C52.49 151.575 45.9973 148.436 42.5188 144.735C41.708 149.051 40.9888 153.811 43.8984 157.237C45.8273 159.898 48.9003 161.533 52.3657 161.742C55.8507 161.951 59.12 160.702 61.3365 158.309ZM56.3019 82.365C57.9823 80.665 58.7734 79.2723 58.7146 78.1215C58.6753 77.4219 58.3223 76.8073 57.6357 76.245C55.465 74.46 51.7642 77.5069 49.0638 79.73L48.5734 80.1353C45.8469 82.365 42.048 85.6473 40.5769 88.3738C39.2496 90.8323 38.7396 102.15 38.648 108.068L41.6884 109.598C42.3815 109.944 43.1334 110.323 43.9246 110.722C44.258 108.61 45.3303 102.209 46.2392 100.646C46.9453 99.4434 47.6253 98.6392 48.5996 98.1161C48.5407 96.8738 48.3969 92.5453 48.9723 90.0477C49.2469 88.8315 51.2411 86.968 54.0265 84.4703C54.9027 83.6857 55.733 82.9403 56.3019 82.365ZM47.0696 55.3088L42.97 54.6223C42.5123 54.5438 42.0415 54.6484 41.6623 54.923C41.2765 55.1977 41.028 55.603 40.9496 56.0673L39.1907 66.6988C39.1123 67.163 39.2234 67.6273 39.4915 68.013C39.7661 68.3923 40.178 68.6473 40.6423 68.7192L45.0623 69.4711C44.9773 68.3727 44.9577 67.1957 45.0165 65.9534C45.1734 62.4357 45.8861 58.7742 47.0696 55.3088ZM38.975 62.0173L39.243 60.4023L38.1773 60.1996C36.5884 59.9053 35.3396 58.6892 34.993 57.1003L29.7623 32.7707C29.5269 32.9211 29.2653 33.0323 28.9842 33.0911C28.8273 33.1303 28.6573 33.1434 28.4938 33.1434C28.3827 33.1434 28.2715 33.1369 28.1603 33.1173L33.3977 57.4469C33.875 59.6765 35.6338 61.3896 37.8765 61.808L38.975 62.0173ZM29.6446 31.535C29.8407 31.2342 29.9061 30.868 29.8277 30.515C29.7557 30.1619 29.5465 29.8546 29.2392 29.6584C28.9319 29.4623 28.5657 29.3969 28.2061 29.4753C27.4738 29.6323 27.0096 30.358 27.1665 31.0903C27.245 31.45 27.4542 31.7507 27.7615 31.9469C28.0688 32.143 28.435 32.2084 28.7815 32.1365C29.1346 32.058 29.4419 31.8423 29.6446 31.535Z" fill="#062733"/>
<path d="M142.852 84.6795C143.074 86.4972 142.819 88.3476 142.263 88.9949C138.105 93.2122 126.832 98.8876 111.859 101.405C106.406 102.32 89.8246 105.099 73.06 98.7503C72.903 98.6915 72.7527 98.6326 72.5892 98.5672C72.4715 98.528 72.3669 98.4888 72.2557 98.4495C72.1577 98.4103 72.0661 98.3776 71.9811 98.3449C69.2742 97.3511 67.1427 94.9645 66.6719 92.3949C66.3907 90.8388 66.5738 88.5307 69.065 86.3861C71.8504 83.993 77.6304 84.7842 84.9404 85.7845C90.5569 86.5561 96.9254 87.4257 103.431 87.0268C122.746 85.8434 133.606 77.7684 137.562 74.1265C138.556 74.4795 139.693 75.6368 140.517 77.1865C141.237 78.5465 141.537 79.8738 141.308 80.6322C137.333 84.2742 127.192 90.4465 115.155 92.7807C95.1011 96.6776 74.9692 91.7149 74.7665 91.6626L74.5311 92.6172C74.675 92.6499 85.215 95.2522 98.658 95.2522C103.922 95.2522 109.636 94.8534 115.344 93.7484C127.342 91.4142 137.529 85.3072 141.74 81.5672C142.276 82.1557 142.682 83.2738 142.852 84.6795Z" fill="#FF84ED"/>
<path d="M141.537 90.963C139.949 92.2577 137.81 93.6307 135.195 94.9776C135.156 94.9973 135.136 95.0103 135.136 95.0103C134.43 95.3765 133.691 95.7361 132.913 96.0957C127.414 98.6392 120.268 100.987 112.023 102.373C106.073 103.367 100.796 103.759 96.1866 103.759C83.5085 103.759 75.8062 100.836 72.7266 99.6723C72.5697 99.6134 72.4062 99.5546 72.2493 99.4892C72.1447 99.45 72.027 99.4107 71.9093 99.365L71.6477 99.2669C68.5747 98.1423 66.247 95.5138 65.7108 92.5715C65.2466 90.015 66.2077 87.55 68.4243 85.6407C71.5497 82.96 77.5193 83.7773 85.0778 84.8103C90.6485 85.5753 96.9581 86.4384 103.372 86.0461C122.242 84.8953 132.874 77.0819 136.817 73.4792C135.077 70.5892 131.233 66.9277 128.277 65.9534C127.774 66.2673 127.212 66.5615 126.584 66.823C125.27 67.3723 123.557 67.9411 121.484 68.51L121.222 67.5619C123.256 67.0061 124.93 66.4503 126.205 65.9142C127.251 65.4761 128.114 64.9596 128.774 64.3777C129.997 63.3053 130.206 62.2788 130.219 61.7427C130.049 61.8342 129.892 61.9323 129.716 62.0238C128.814 62.4946 127.78 62.9588 126.558 63.4361C120.621 65.7834 109.159 67.7842 109.048 67.8038L108.878 66.8427C108.989 66.823 120.353 64.8288 126.198 62.5273C127.388 62.0565 128.389 61.6119 129.258 61.1542C131.475 59.9838 132.795 58.7546 133.286 57.4011C133.665 56.355 133.489 55.6946 133.312 55.3546C131.534 56.95 129.35 58.2903 126.649 59.4346L126.551 59.4738C126.473 59.5065 126.394 59.5392 126.316 59.5653C123.367 60.7815 120.209 61.5596 118.09 62.0369C116.436 62.403 114.991 62.6842 113.684 62.9065C113.036 63.0242 112.382 63.1353 111.735 63.2269C109.022 63.6388 106.583 63.8415 104.451 63.8415C103.948 63.8415 103.464 63.8284 102.993 63.8088C103.588 64.7569 103.869 66.1888 102.732 67.8496C101.195 70.0988 94.9247 74.0873 87.1243 75.748C83.2731 76.5719 79.4678 76.9838 75.852 76.9838C73.302 76.9838 70.8435 76.7811 68.5289 76.3692L68.6989 75.4015C74.1716 76.3757 80.4747 76.1665 86.9216 74.7934C94.9966 73.0738 100.757 69.0003 101.921 67.3003C103.072 65.62 102.326 64.43 101.842 63.9134C101.692 64.1815 101.509 64.4365 101.3 64.6784C100.482 65.633 99.4951 66.4961 98.3116 67.3003C97.1216 68.098 95.7485 68.8303 94.1597 69.5038C93.6954 69.7065 93.2181 69.8961 92.7212 70.0857C91.6293 70.4977 90.4654 70.8834 89.2558 71.23C86.0454 72.1715 83.3974 72.7796 80.9454 73.1588C80.187 73.27 79.4743 73.3615 78.7747 73.4334C77.297 73.5773 75.8127 73.6557 74.2043 73.6557C72.9424 73.6557 71.6151 73.61 70.1504 73.5184C66.2993 73.2896 64.5797 72.76 64.2135 71.6877C63.7754 70.3996 65.4231 68.9611 67.9208 66.7773L68.6335 66.1561C73.6354 61.7492 80.6643 57.7607 87.4316 55.4853C90.2824 54.5307 92.6101 54.1646 94.4931 54.1646C97.7101 54.1646 99.652 55.2238 100.777 56.2503C100.835 55.0996 100.659 53.138 99.057 51.68C98.3181 51.013 97.4747 50.5096 96.4743 50.1369C95.3431 49.7119 93.957 49.5353 92.342 49.6007C92.1197 49.6073 91.8908 49.6203 91.6554 49.64C90.3085 49.7511 88.8177 50.0192 87.2354 50.4507C87.2224 50.4573 87.2027 50.4573 87.1897 50.4638C82.7108 51.6538 77.3035 54.2692 72.3343 57.643C67.9339 60.6246 59.3424 68.3203 59.2574 68.3988L58.6035 67.673C58.6885 67.5946 67.3324 59.853 71.7851 56.8257C75.7997 54.0992 80.1151 51.8565 84.012 50.4442C84.7312 50.1827 85.4308 49.9473 86.1108 49.7446C86.4051 49.6596 86.6927 49.5811 86.9804 49.5027C88.3993 49.1169 89.7397 48.8619 90.9885 48.7246C90.4458 48.2996 89.877 47.9073 89.282 47.5869L89.1839 47.528C79.5527 42.3823 65.1485 51.0588 60.5193 54.1711L60.2512 54.3607C59.5124 54.8642 59.022 55.2238 58.8781 55.335C58.8651 55.335 58.852 55.348 58.8454 55.3546C58.8324 55.3611 58.8258 55.3677 58.8258 55.3677L58.2308 54.5896C58.2308 54.5896 58.6101 54.3019 59.2508 53.8573C59.3097 53.8115 59.3685 53.7723 59.4339 53.7265L59.702 53.5434C63.4485 50.9934 74.8974 43.8927 84.5808 45.1023C85.8689 45.2657 87.1177 45.573 88.3208 46.0569C87.8501 45.3115 87.1374 44.3046 86.1435 43.2257C85.9212 42.9773 85.6793 42.7223 85.4177 42.4673C84.1427 41.2053 82.7239 40.1265 81.2004 39.2765C80.5531 38.9103 79.8797 38.59 79.1997 38.3153C78.5981 38.0669 77.9901 37.8577 77.3754 37.6746C74.0801 36.7134 70.4251 36.648 66.5216 37.485C55.6743 39.8061 50.6201 48.8619 48.5735 54.0534C48.4297 54.4065 48.2989 54.753 48.1747 55.093C46.9062 58.6238 46.1477 62.39 45.9908 65.9992C45.9254 67.4377 45.9581 68.7846 46.0889 70.0073C46.1281 70.393 46.1804 70.7592 46.2327 71.1188C46.2981 71.5307 46.3831 71.9492 46.5008 72.4003L45.5462 72.6357C45.4285 72.1519 45.337 71.7073 45.2651 71.2757C45.2258 71.0207 45.1931 70.7461 45.1604 70.4846L42.6954 70.0661C39.5701 74.3815 35.9477 81.3253 35.9674 90.283C35.9674 90.3288 36.0785 95.2457 38.0008 99.2734C38.2885 94.6246 38.7985 89.5965 39.7074 87.9096C41.2635 85.0326 45.1539 81.6588 47.9458 79.3769L48.4297 78.978C50.3847 77.3696 52.8039 75.3688 55.027 74.8457C56.1843 74.5777 57.2893 74.7019 58.2504 75.4865C59.1527 76.2253 59.6366 77.095 59.6889 78.0692C59.7608 79.5142 58.8781 81.1423 56.9951 83.0515C56.4066 83.653 55.5631 84.405 54.6739 85.2026C52.7647 86.9157 50.1493 89.263 49.9204 90.27C49.4235 92.4211 49.502 96.1807 49.5608 97.7107C50.6593 97.3577 52.1108 97.2138 54.1574 97.1615C54.1181 97.0111 54.0724 96.8542 54.0462 96.7038C53.2354 92.1596 55.9751 89.4134 56.0928 89.2957L56.7793 89.9953C56.6812 90.1 54.2947 92.5126 55.0074 96.5338C55.0466 96.7365 55.1054 96.9392 55.1577 97.1484C56.6877 97.1353 58.5185 97.1615 60.7351 97.1876L61.4935 97.2007C63.8931 97.2269 65.6062 97.835 66.5804 98.9988C67.2212 99.7703 67.3781 100.594 67.4043 101.124C71.3339 101.745 72.4258 103.517 72.4977 108.009C75.0608 108.878 75.2962 110.513 75.2701 112.651C75.2243 116.005 75.0347 118.614 74.3547 120.353C74.4724 120.367 74.5901 120.386 74.7143 120.406C84.3651 121.805 100.221 121.923 113.226 118.398C115.88 117.679 118.411 116.816 120.752 115.77C123.432 114.58 125.858 113.161 127.911 111.487C134.633 105.995 138.713 101.17 141.694 90.8323C141.642 90.8715 141.59 90.9173 141.531 90.963H141.537ZM117.018 73.185C118.411 74.2769 120.601 76.8334 121.713 78.6511L120.876 79.1611C119.83 77.4546 117.705 74.97 116.41 73.9565L117.018 73.185Z" fill="#FFD934"/>
<path d="M130.788 36.4911C131.22 38.4788 130.546 40.5319 129.036 41.8788C128.447 41.6434 127.761 41.4734 127.009 41.3623L127.565 40.97C128.898 40.0415 129.533 38.42 129.193 36.8311L123.955 12.5015C124.073 12.5211 124.184 12.5277 124.302 12.5277C124.465 12.5277 124.629 12.5146 124.792 12.4753C125.067 12.4165 125.328 12.3119 125.557 12.1615L130.788 36.4911Z" fill="#2CCCFF"/>
<path d="M130.415 44.0234C130.971 44.723 131.089 45.4618 131.102 45.9391C129.827 45.743 126.433 45.3964 122.04 46.2922C121.052 46.4818 119.987 46.7368 118.868 47.0441C110.689 49.3391 104.144 54.2103 101.77 56.1391C101.816 54.8903 101.587 52.9549 100.11 51.353C104.628 47.5541 113.461 43.1995 122.785 42.2972C123.87 42.186 124.864 42.1599 125.74 42.2122C127.99 42.3364 129.565 42.9445 130.415 44.0234Z" fill="#FFD934"/>
<path d="M125.629 9.90575C125.649 10.0038 125.662 10.1019 125.662 10.2C125.662 10.4615 125.583 10.71 125.439 10.9323C125.243 11.2331 124.936 11.4423 124.589 11.5208C124.236 11.5927 123.87 11.5273 123.556 11.3311C123.256 11.135 123.04 10.8342 122.968 10.4746C122.889 10.1215 122.955 9.75537 123.151 9.4546C123.354 9.14729 123.661 8.93806 124.014 8.8596C124.112 8.83998 124.21 8.8269 124.308 8.8269C124.563 8.8269 124.818 8.90537 125.041 9.04267C125.348 9.24537 125.557 9.54614 125.629 9.90575Z" fill="#7356FB"/>
<path d="M124.537 41.2118C123.949 41.2118 123.334 41.251 122.687 41.3164C121.412 41.4406 120.137 41.6302 118.888 41.8722C118.208 42.0029 117.535 42.1468 116.868 42.3102C109.545 44.0822 103.045 47.5737 99.3837 50.686C98.6318 50.0649 97.7949 49.581 96.8207 49.2149C95.5849 48.7572 94.081 48.5676 92.368 48.6329V48.5741L92.296 48.5218C92.2895 48.5218 92.2764 48.5022 92.2699 48.4891L92.2045 48.4433C91.4853 47.8026 90.7007 47.2533 89.8833 46.7956C89.661 46.351 88.883 44.9126 87.4576 43.2256C87.0653 42.7549 86.6207 42.2645 86.1172 41.7676C84.9337 40.5972 83.626 39.5902 82.2268 38.7468C83.8745 37.1318 90.3476 31.4106 99.5668 31.1818H99.6191C100.286 31.1556 100.966 31.1687 101.633 31.2145C102.241 31.2537 102.823 31.3191 103.385 31.4172H103.392C106.079 31.8618 108.289 32.8883 110.041 34.0587C112.343 35.5887 113.84 37.3672 114.579 38.3676C113.847 38.3937 113.062 38.4526 112.199 38.531C104.17 39.3222 98.2787 41.9637 95.4737 43.4741L94.8395 43.8272C94.6368 43.9383 94.4668 44.0429 94.323 44.1279C93.9633 44.3437 93.7803 44.4679 93.7803 44.4679L94.323 45.2852C94.323 45.2852 94.323 45.2852 94.3426 45.2722C94.4276 45.2199 94.761 45.0041 95.3233 44.6772L95.9445 44.3372C98.6776 42.866 104.438 40.2833 112.291 39.5118C113.494 39.3941 114.54 39.3287 115.501 39.3222C120.778 39.2306 123.373 40.3945 124.537 41.2118Z" fill="#FFD934"/>
<path d="M121.713 78.651L120.876 79.161C119.83 77.4544 117.705 74.9698 116.41 73.9564L117.018 73.1848C118.411 74.2767 120.601 76.8333 121.713 78.651Z" fill="#062733"/>
<path d="M119.195 117.476C118.829 118.974 117.711 121.687 115.037 122.897C109.551 125.388 88.628 127.964 72.1118 124.61C72.138 123.976 72.1641 123.374 72.1837 122.825L72.223 121.929C72.8572 121.785 73.413 121.57 73.7922 121.256C74.0537 121.295 74.3153 121.341 74.5768 121.373C78.4541 121.942 83.3187 122.295 88.6084 122.295C98.5926 122.295 110.074 121.027 119.195 117.476Z" fill="#FFD934"/>
<path d="M133.606 49.5939C133.051 47.92 131.651 47.1158 131.39 46.9785C130.88 46.8804 127.172 46.2462 122.229 47.2531C121.262 47.4427 120.222 47.6912 119.13 47.992C117.567 48.43 116.064 48.9662 114.638 49.5612C112.003 50.6466 109.636 51.9346 107.668 53.1573C104.634 55.0404 102.522 56.7666 101.777 57.4139C102.836 59.0223 103.032 61.0166 102.398 62.7819C103.052 62.8343 103.752 62.8604 104.484 62.8604C106.498 62.8604 108.793 62.6708 111.356 62.285C110.545 61.0296 110.081 59.5389 110.081 57.9304C110.081 54.5827 112.114 51.7189 115.017 50.4896C115.979 50.0843 117.044 49.8554 118.162 49.8554C122.622 49.8554 126.244 53.4712 126.244 57.9304C126.244 58.1396 126.244 58.3423 126.218 58.545L126.277 58.5254C129.01 57.3746 131.194 56.0146 132.933 54.3735C133.842 52.5754 134.064 50.9669 133.606 49.5939Z" fill="white"/>
<path d="M119.987 52.8696C119.032 53.0723 118.424 54.0204 118.633 54.9815C118.836 55.9427 119.784 56.5508 120.739 56.3481C121.693 56.1454 122.308 55.1908 122.099 54.2362C121.896 53.275 120.941 52.6604 119.987 52.8696Z" fill="white"/>
<path d="M94.4801 55.1711C92.5055 55.1711 90.2301 55.5831 87.7389 56.42C85.2935 57.2438 82.8155 58.29 80.4224 59.5061C76.2901 61.5854 72.3866 64.1615 69.2808 66.8946L68.5682 67.5158C66.7701 69.085 64.9132 70.7065 65.142 71.3735C65.2532 71.7004 66.0639 72.2954 70.2093 72.5438C73.3478 72.7334 75.8716 72.7138 78.3432 72.485C77.2839 71.1185 76.6562 69.4054 76.6562 67.5419C76.6562 64.4754 78.3628 61.8077 80.8866 60.4411C82.0308 59.82 83.3385 59.4669 84.7378 59.4669C89.197 59.4669 92.8193 63.0827 92.8193 67.5419C92.8193 68.0585 92.767 68.5554 92.6755 69.0458C93.0547 68.9085 93.4208 68.7581 93.7739 68.6077C96.8078 67.3196 99.0243 65.8223 100.554 64.0438C102.039 62.3046 102.195 59.7808 100.927 57.9108C99.7043 56.0996 97.442 55.1711 94.4801 55.1711Z" fill="white"/>
<path d="M86.5622 62.4812C85.6075 62.6839 84.9995 63.632 85.2087 64.5931C85.4114 65.5477 86.3595 66.1624 87.3141 65.9597C88.2687 65.7504 88.8833 64.8024 88.6741 63.8477C88.4714 62.8866 87.5233 62.272 86.5622 62.4812Z" fill="white"/>
<path d="M67.5349 108.316C74.3545 108.493 74.3284 110.14 74.2957 112.638C74.2499 115.678 74.0995 118.719 73.2953 120.36C72.9487 121.059 70.353 121.328 67.9599 121.197C68.1691 118.281 68.3457 115.77 68.4437 114.24L67.463 114.181C67.208 118.084 66.4757 128.428 65.8611 135.483L65.8414 135.712C65.6845 137.379 65.5341 138.962 65.0634 140.498C64.5141 142.035 63.9845 143.31 63.0691 143.29C61.5914 142.46 61.5914 138.838 61.5914 136.883V136.307C61.598 134.241 61.6176 131.416 61.6372 128.723C61.6634 125.466 61.683 122.406 61.683 121.118C61.6764 120.419 61.598 119.634 60.6237 119.157C59.9111 118.791 59.0022 118.326 57.9561 117.797C58.1326 116.561 58.7537 112.285 59.2114 110.918C60.068 108.336 61.9511 108.166 67.5349 108.316Z" fill="#FFD934"/>
<path d="M71.2358 122.099L71.2031 122.786C70.935 129.37 70.3073 144.801 65.1811 148.56C65.0569 148.652 64.9392 148.743 64.8085 148.822C58.27 153.229 47.2004 148.822 42.7608 143.539C42.2442 142.911 41.7865 142.251 41.3811 141.551C41.3811 141.544 41.3681 141.538 41.3681 141.538C41.3288 141.473 41.2961 141.414 41.2635 141.355C40.7142 140.394 40.2369 139.367 39.8054 138.249C39.7988 138.249 39.7988 138.236 39.7923 138.229C39.3346 137.046 38.9227 135.764 38.5238 134.385H38.5173C38.4846 134.267 38.4519 134.149 38.4192 134.038C37.0788 129.278 36.9088 123.949 36.7388 118.791C36.7127 118.039 36.6931 117.293 36.6604 116.561C36.6408 115.391 36.6211 114.364 36.595 113.442C36.5492 111.298 36.51 109.709 36.5623 108.12C36.595 108.139 36.6277 108.153 36.6538 108.166C36.7519 108.211 36.8435 108.264 36.8958 108.283L41.2504 110.474C45.2715 112.494 51.215 115.489 55.6808 117.744C56.0796 117.947 56.4654 118.143 56.8315 118.333C56.9492 118.392 57.0538 118.444 57.1585 118.496C57.8842 118.869 58.3681 119.111 58.7865 119.32C58.9042 119.379 59.0088 119.438 59.12 119.497C59.4469 119.66 59.7673 119.824 60.1792 120.033C60.5977 120.236 60.6958 120.451 60.7023 121.118C60.7023 122.406 60.6827 125.466 60.6565 128.716C60.6369 131.41 60.6173 134.234 60.6108 136.307V136.883C60.6108 139.4 60.6108 143.199 62.7227 144.212L62.8861 144.258C64.6908 144.454 65.4427 142.355 65.9985 140.806C66.5019 139.151 66.6588 137.523 66.8158 135.804L66.8354 135.575C67.1885 131.567 67.5742 126.513 67.8881 122.171C68.2346 122.191 68.6858 122.21 69.2023 122.21C69.8365 122.21 70.5492 122.184 71.2358 122.099Z" fill="#7356FB"/>
<path d="M63.8996 101.83C70.4642 102.006 71.4319 103.216 71.5234 107.741C70.4969 107.518 69.2023 107.381 67.5611 107.335C62.0754 107.191 59.3946 107.27 58.2765 110.611C57.8254 111.958 57.2565 115.763 57.0342 117.332C55.2361 116.424 53.1438 115.364 50.9927 114.279C51.1104 113.213 51.5615 109.604 52.7646 105.661C54.0592 101.418 56.5896 101.529 61.6308 101.745C62.3434 101.777 63.0954 101.81 63.8996 101.83Z" fill="#FFD934"/>
<path d="M65.822 99.6134C66.2405 100.11 66.3778 100.627 66.417 101C65.6716 100.921 64.8478 100.875 63.9259 100.849C63.1282 100.83 62.3762 100.797 61.6701 100.764C56.6551 100.548 53.3466 100.405 51.8232 105.374C50.7116 109.016 50.2278 112.39 50.0643 113.808C48.2793 112.913 46.4943 112.017 44.8401 111.18C45.252 108.538 46.3112 102.471 47.0893 101.143C48.9135 98.0115 50.4893 98.0311 60.7285 98.1684L61.487 98.1815C63.5793 98.2077 65.0374 98.6915 65.822 99.6134Z" fill="#FFD934"/>
<path d="M64.3116 150.241C63.8539 153.209 63.2785 156.204 61.3366 158.309C59.1201 160.702 55.8508 161.951 52.3658 161.742C48.9004 161.533 45.8274 159.898 43.8985 157.237C40.9889 153.811 41.7081 149.051 42.5189 144.735C45.9974 148.436 52.4901 151.575 58.3812 151.575C60.4931 151.575 62.5201 151.163 64.3116 150.241Z" fill="#134577"/>
<path d="M58.7145 78.1215C58.7733 79.2723 57.9822 80.6649 56.3018 82.3649C55.7329 82.9403 54.9026 83.6857 54.0264 84.4703C51.241 86.968 49.2468 88.8315 48.9722 90.0476C48.3968 92.5453 48.5406 96.8738 48.5995 98.1161C47.6253 98.6392 46.9453 99.4434 46.2391 100.646C45.3303 102.209 44.2579 108.61 43.9245 110.722C43.1333 110.323 42.3814 109.944 41.6883 109.598L38.6479 108.068C38.7395 102.15 39.2495 90.8323 40.5768 88.3738C42.0479 85.6473 45.8468 82.3649 48.5733 80.1353L49.0637 79.7299C51.7641 77.5069 55.4649 74.4599 57.6356 76.2449C58.3222 76.8073 58.6753 77.4219 58.7145 78.1215Z" fill="#FFD934"/>
<path d="M57.6684 21.1911C57.871 21.6357 57.7991 22.1457 57.4787 22.5118L46.7426 34.9153C46.5334 35.1572 46.2457 35.2814 45.958 35.2814C45.7684 35.2814 45.5853 35.2291 45.4087 35.1311C44.9641 34.863 44.7876 34.3399 44.9707 33.8561L47.8214 26.5068C47.8607 26.4022 47.8214 26.3172 47.7953 26.278C47.7626 26.2322 47.7037 26.1668 47.586 26.1668H44.8595C44.4607 26.1668 44.0814 25.9707 43.8526 25.6438C43.6237 25.3168 43.5649 24.8984 43.6957 24.5257L47.6187 13.443C47.7953 12.9526 48.2595 12.6191 48.7826 12.6191H54.9745C55.4126 12.6191 55.8114 12.848 56.0337 13.2207C56.2626 13.5999 56.2691 14.0576 56.0599 14.4434L52.9868 20.1057C52.9214 20.2168 52.9672 20.3149 52.9934 20.3541C53.013 20.3868 53.0784 20.4718 53.2026 20.4718H56.5437C57.0341 20.4718 57.4657 20.753 57.6684 21.1911ZM56.7334 21.8711C56.8314 21.7599 56.7922 21.6488 56.7726 21.603C56.753 21.5572 56.6876 21.4526 56.5437 21.4526H53.2026C52.7645 21.4526 52.3722 21.2303 52.1499 20.8511C51.921 20.4784 51.9145 20.0207 52.1237 19.6349L55.1968 13.9726C55.2557 13.8614 55.2164 13.7634 55.1903 13.7241C55.1707 13.6914 55.1053 13.5999 54.9745 13.5999H48.7826C48.678 13.5999 48.5799 13.6718 48.5472 13.7699L44.6176 24.8526C44.5849 24.9572 44.6241 25.0422 44.6503 25.0814C44.683 25.1207 44.7418 25.1861 44.8595 25.1861H47.586C47.9914 25.1861 48.3707 25.3888 48.5995 25.7222C48.8349 26.0557 48.8807 26.4872 48.7368 26.8599L45.886 34.2091C45.886 34.2091 45.8664 34.2614 45.9187 34.2876C45.9645 34.3138 45.9841 34.2876 45.9972 34.2745L56.7334 21.8711Z" fill="#062733"/>
<path d="M56.7726 21.6031C56.7923 21.6488 56.8315 21.76 56.7334 21.8711L45.9973 34.2746C45.9973 34.2746 45.9646 34.3138 45.9188 34.2877C45.8665 34.2615 45.8796 34.2354 45.8861 34.2092L48.7369 26.86C48.8807 26.4873 48.835 26.0557 48.5996 25.7223C48.3707 25.3888 47.9915 25.1861 47.5861 25.1861H44.8596C44.7419 25.1861 44.683 25.1207 44.6503 25.0815C44.6242 25.0423 44.585 24.9573 44.6176 24.8527L48.5473 13.77C48.58 13.6719 48.678 13.6 48.7826 13.6H54.9746C55.1053 13.6 55.1707 13.6915 55.1903 13.7242C55.2165 13.7634 55.2557 13.8615 55.1969 13.9727L52.1238 19.635C51.9146 20.0207 51.9211 20.4784 52.15 20.8511C52.3723 21.2304 52.7646 21.4527 53.2026 21.4527H56.5438C56.6876 21.4527 56.753 21.5573 56.7726 21.6031Z" fill="#FFD934"/>
<path d="M42.9699 54.6222L47.0695 55.3087C45.886 58.7741 45.1734 62.4356 45.0164 65.9533C44.9576 67.1956 44.9772 68.3725 45.0622 69.471L40.6422 68.7191C40.178 68.6472 39.766 68.3921 39.4914 68.0129C39.2234 67.6271 39.1122 67.1629 39.1907 66.6987L40.9495 56.0672C41.028 55.6029 41.2764 55.1975 41.6622 54.9229C42.0414 54.6483 42.5122 54.5437 42.9699 54.6222ZM43.0484 63.0175C43.6695 62.8868 44.0749 62.2722 43.9376 61.6445C43.8068 61.0233 43.1857 60.6245 42.5645 60.7552C41.9368 60.8925 41.5445 61.5071 41.6753 62.1283C41.8126 62.756 42.4272 63.1548 43.0484 63.0175Z" fill="#7356FB"/>
<path d="M43.9376 61.6445C44.0749 62.2722 43.6695 62.8868 43.0483 63.0176C42.4272 63.1549 41.8126 62.7561 41.6753 62.1284C41.5445 61.5072 41.9368 60.8926 42.5645 60.7553C43.1856 60.6245 43.8068 61.0234 43.9376 61.6445Z" fill="#062733"/>
<path d="M39.2431 60.4022L38.975 62.0172L37.8766 61.8079C35.6339 61.3895 33.875 59.6764 33.3977 57.4468L28.1604 33.1172C28.2716 33.1368 28.3827 33.1433 28.4939 33.1433C28.6573 33.1433 28.8273 33.1302 28.9842 33.091C29.2654 33.0322 29.5269 32.921 29.7623 32.7706L34.9931 57.1002C35.3396 58.6891 36.5885 59.9052 38.1773 60.1995L39.2431 60.4022Z" fill="#2CCCFF"/>
<path d="M29.8276 30.5149C29.9061 30.8679 29.8407 31.2341 29.6445 31.5349C29.4419 31.8422 29.1345 32.0579 28.7815 32.1364C28.4349 32.2083 28.0688 32.1429 27.7615 31.9468C27.4542 31.7506 27.2449 31.4499 27.1665 31.0902C27.0095 30.3579 27.4738 29.6322 28.2061 29.4752C28.5657 29.3968 28.9319 29.4622 29.2392 29.6583C29.5465 29.8545 29.7557 30.1618 29.8276 30.5149Z" fill="#7356FB"/>
<path d="M77.3818 37.6746C69.2087 39.3353 60.2445 41.5846 55.6283 51.5165C52.1041 59.1011 53.961 70.0792 55.0333 74.8457C52.8103 75.3688 50.391 77.3696 48.436 78.978L47.9522 79.3769C45.1603 81.6588 41.2699 85.0326 39.7137 87.9096C38.8049 89.5965 38.2949 94.6246 38.0072 99.2734C36.0849 95.2457 35.9737 90.3288 35.9737 90.283C35.9541 81.3253 39.5764 74.3815 42.7018 70.0661L45.1668 70.4846C45.1995 70.7461 45.2322 71.0207 45.2714 71.2757C45.3433 71.7073 45.4349 72.1519 45.5526 72.6357L46.5072 72.4003C46.3895 71.9492 46.3045 71.5307 46.2391 71.1188C46.1868 70.7592 46.1345 70.393 46.0953 70.0073C45.9645 68.7846 45.9318 67.4377 45.9972 65.9992C46.1541 62.39 46.9126 58.6238 48.181 55.093C48.3053 54.753 48.436 54.4065 48.5799 54.0534C50.6264 48.8619 55.6806 39.8061 66.5279 37.485C70.4314 36.648 74.0864 36.7134 77.3818 37.6746Z" fill="#FDFF92"/>
<path d="M141.701 90.8323C138.719 101.17 134.639 105.995 127.918 111.487C125.865 113.161 123.439 114.58 120.758 115.77C127.669 109.696 131.115 106.943 135.136 95.0104C135.136 95.0104 135.156 94.9973 135.195 94.9777C135.725 94.6703 139.896 92.2577 141.537 90.963C141.596 90.9173 141.648 90.8715 141.701 90.8323Z" fill="#FDFF92"/>
<path d="M103.385 31.4172C87.8172 34.4576 87.4576 43.2256 87.4576 43.2256C87.0653 42.7549 86.6207 42.2645 86.1172 41.7676C84.9337 40.5972 83.626 39.5902 82.2268 38.7468C83.8745 37.1318 90.3476 31.4106 99.5668 31.1818H99.6191C100.286 31.1556 100.966 31.1687 101.633 31.2145C102.241 31.2537 102.823 31.3191 103.385 31.4172Z" fill="#FDFF92"/>
<path d="M90.9883 48.7245C89.7395 48.8619 88.3991 49.1169 86.9802 49.5026C86.6925 49.5811 86.4049 49.6596 86.1106 49.7446C85.4306 49.9472 84.731 50.1826 84.0118 50.4442C77.4799 45.7496 59.9764 54.7792 58.8779 55.3349C59.0218 55.2238 59.5122 54.8642 60.251 54.3607L60.5191 54.1711C65.1483 51.0588 79.5525 42.3822 89.1837 47.528L89.2818 47.5869C89.8768 47.9072 90.4456 48.2995 90.9883 48.7245Z" fill="#FDFF92"/>
<path d="M124.537 41.2118C123.949 41.2118 123.334 41.2511 122.687 41.3165C121.412 41.4407 120.137 41.6303 118.888 41.8722C118.208 42.003 117.535 42.1468 116.868 42.3103C111.794 39.3418 94.9639 45.0565 94.3428 45.2722C94.4278 45.2199 94.7612 45.0041 95.3235 44.6772L95.9447 44.3372C98.6778 42.8661 104.438 40.2834 112.291 39.5118C113.494 39.3941 114.54 39.3288 115.501 39.3222C120.778 39.2307 123.374 40.3945 124.537 41.2118Z" fill="#FDFF92"/>
<path d="M71.2358 122.099L71.2031 122.786C70.935 129.37 70.3073 144.801 65.1812 148.56C65.057 148.652 64.9393 148.743 64.8085 148.822C58.27 153.229 47.2004 148.822 42.7608 143.539C42.2443 142.911 41.7866 142.251 41.3812 141.551C41.3812 141.545 41.3681 141.538 41.3681 141.538C41.3289 141.473 41.2962 141.414 41.2635 141.355C40.7143 140.394 40.237 139.367 39.8054 138.249C45.6312 148.286 56.3085 149.391 56.3085 141.08C56.3085 132.77 56.812 118.542 56.8316 118.333C56.9493 118.392 57.0539 118.444 57.1585 118.496C57.8843 118.869 58.3681 119.111 58.7866 119.32C58.9043 119.386 59.0089 119.438 59.12 119.497C59.447 119.66 59.7673 119.824 60.1793 120.033C60.5977 120.236 60.6958 120.451 60.7023 121.118C60.7023 122.406 60.6827 125.466 60.6566 128.716C60.637 131.41 60.6173 134.235 60.6108 136.307V136.883C60.6108 139.4 60.6108 143.199 62.7227 144.212L62.8862 144.258C64.6908 144.454 65.4427 142.355 65.9985 140.806C66.502 139.151 66.6589 137.523 66.8158 135.804L66.8354 135.575C67.1885 131.567 67.5743 126.513 67.8881 122.171C68.2347 122.191 68.6858 122.21 69.2023 122.21C69.8366 122.21 70.5493 122.184 71.2358 122.099Z" fill="#4B2298"/>
<path d="M46.6771 140.891C45.6702 140.891 44.5848 140.224 43.931 139.099C43.0483 137.569 43.3033 135.758 44.4998 135.065C45.1079 134.718 45.8402 134.699 46.5725 135.013C47.2525 135.307 47.8606 135.869 48.2725 136.582C49.1552 138.112 48.9002 139.923 47.7037 140.616C47.3833 140.799 47.0302 140.884 46.6706 140.884L46.6771 140.891ZM45.5525 135.771C45.3498 135.771 45.1602 135.817 44.9967 135.915C44.2775 136.327 44.1794 137.563 44.7875 138.609C45.3891 139.655 46.5071 140.184 47.2264 139.773C47.9456 139.361 48.0437 138.125 47.4356 137.079C47.1283 136.542 46.6837 136.131 46.1933 135.915C45.971 135.817 45.7552 135.771 45.5525 135.771Z" fill="#062733"/>
</svg>
