<svg width="1360" height="208" viewBox="0 0 1360 208" fill="none" xmlns="http://www.w3.org/2000/svg">
<g clip-path="url(#clip0_6_496)">
<g opacity="0.5">
<line y1="-0.5" x2="1080" y2="-0.5" transform="matrix(4.37114e-08 -1 -1 -4.37114e-08 29 632)" stroke="white"/>
<line y1="-0.5" x2="1080" y2="-0.5" transform="matrix(4.37114e-08 -1 -1 -4.37114e-08 109 632)" stroke="white"/>
<line y1="-0.5" x2="1080" y2="-0.5" transform="matrix(4.37114e-08 -1 -1 -4.37114e-08 189 632)" stroke="white"/>
<line y1="-0.5" x2="1080" y2="-0.5" transform="matrix(4.37114e-08 -1 -1 -4.37114e-08 269 632)" stroke="white"/>
<line y1="-0.5" x2="1080" y2="-0.5" transform="matrix(4.37114e-08 -1 -1 -4.37114e-08 349 632)" stroke="white"/>
<line y1="-0.5" x2="1080" y2="-0.5" transform="matrix(4.37114e-08 -1 -1 -4.37114e-08 429 632)" stroke="white"/>
<line y1="-0.5" x2="1080" y2="-0.5" transform="matrix(4.37114e-08 -1 -1 -4.37114e-08 509 632)" stroke="white"/>
<line y1="-0.5" x2="1080" y2="-0.5" transform="matrix(4.37114e-08 -1 -1 -4.37114e-08 589 632)" stroke="white"/>
<line y1="-0.5" x2="1080" y2="-0.5" transform="matrix(4.37114e-08 -1 -1 -4.37114e-08 669 632)" stroke="white"/>
<line y1="-0.5" x2="1080" y2="-0.5" transform="matrix(4.37114e-08 -1 -1 -4.37114e-08 749 632)" stroke="white"/>
<line y1="-0.5" x2="1080" y2="-0.5" transform="matrix(4.37114e-08 -1 -1 -4.37114e-08 829 632)" stroke="white"/>
<line y1="-0.5" x2="1080" y2="-0.5" transform="matrix(4.37114e-08 -1 -1 -4.37114e-08 909 632)" stroke="white"/>
<line y1="-0.5" x2="1080" y2="-0.5" transform="matrix(4.37114e-08 -1 -1 -4.37114e-08 989 632)" stroke="white"/>
<line y1="-0.5" x2="1080" y2="-0.5" transform="matrix(4.37114e-08 -1 -1 -4.37114e-08 1069 632)" stroke="white"/>
<line y1="-0.5" x2="1080" y2="-0.5" transform="matrix(4.37114e-08 -1 -1 -4.37114e-08 1149 632)" stroke="white"/>
<line y1="-0.5" x2="1080" y2="-0.5" transform="matrix(4.37114e-08 -1 -1 -4.37114e-08 1229 632)" stroke="white"/>
<line y1="-0.5" x2="1080" y2="-0.5" transform="matrix(4.37114e-08 -1 -1 -4.37114e-08 1309 632)" stroke="white"/>
<line y1="-0.5" x2="1440" y2="-0.5" transform="matrix(-1 8.74228e-08 8.74228e-08 1 1389 42)" stroke="white"/>
<line y1="-0.5" x2="1440" y2="-0.5" transform="matrix(-1 8.74228e-08 8.74228e-08 1 1389 122)" stroke="white"/>
</g>
</g>
<rect x="0.5" y="0.5" width="1359" height="162" rx="31.5" stroke="#BAF6F6" stroke-opacity="0.3"/>
<defs>
<clipPath id="clip0_6_496">
<rect width="1360" height="163" rx="32" fill="white"/>
</clipPath>
</defs>
</svg>
