<svg width="20" height="16" viewBox="0 0 20 16" fill="none" xmlns="http://www.w3.org/2000/svg">
<path d="M2.055 3.99015C1.24167 3.42154 0.557501 2.71179 0 1.89456V1.89374C0.744167 2.21456 1.53583 2.4279 2.3625 2.53128C1.5125 2.03159 0.863335 1.24636 0.558334 0.300308C1.35083 0.765538 2.22583 1.09374 3.15833 1.27754C3.91084 0.488205 4.98333 0 6.15333 0C8.42333 0 10.2508 1.81415 10.2508 4.03774C10.2508 4.35774 10.2233 4.66544 10.1558 4.95836C13.5642 4.79426 16.5808 3.18605 18.6075 0.735179C18.9608 1.3399 19.1692 2.03159 19.1692 2.77579C19.1692 4.17395 18.4383 5.41292 17.3475 6.13087C18.0067 6.11856 18.6525 5.92985 19.2 5.63364V5.67795C19.2 7.63979 17.7792 9.26933 15.915 9.64513C16.2492 9.73538 16.6125 9.77805 16.99 9.77805C17.2525 9.77805 17.5175 9.76328 17.7658 9.70913C17.235 11.3075 15.7267 12.4833 13.935 12.5218C15.33 13.5959 17.1017 14.2433 19.0192 14.2433C19.355 14.2433 19.6775 14.2285 20 14.1883C18.1833 15.3411 16.0317 16 13.71 16C6.47417 16 1.75833 10.0562 2.055 3.99015Z" fill="#1E1B30"/>
</svg>
